<svg width="502" height="138" viewBox="0 0 502 138" fill="none" xmlns="http://www.w3.org/2000/svg">
<path d="M193.135 49.39V88H183.73V64.845L175.095 88H167.505L158.815 64.79V88H149.41V49.39H160.52L171.355 76.12L182.08 49.39H193.135ZM198.028 72.6C198.028 69.4467 198.615 66.6783 199.788 64.295C200.998 61.9117 202.63 60.0783 204.683 58.795C206.737 57.5117 209.028 56.87 211.558 56.87C213.722 56.87 215.61 57.31 217.223 58.19C218.873 59.07 220.138 60.225 221.018 61.655V57.31H230.423V88H221.018V83.655C220.102 85.085 218.818 86.24 217.168 87.12C215.555 88 213.667 88.44 211.503 88.44C209.01 88.44 206.737 87.7983 204.683 86.515C202.63 85.195 200.998 83.3433 199.788 80.96C198.615 78.54 198.028 75.7533 198.028 72.6ZM221.018 72.655C221.018 70.3083 220.358 68.4567 219.038 67.1C217.755 65.7433 216.178 65.065 214.308 65.065C212.438 65.065 210.843 65.7433 209.523 67.1C208.24 68.42 207.598 70.2533 207.598 72.6C207.598 74.9467 208.24 76.8167 209.523 78.21C210.843 79.5667 212.438 80.245 214.308 80.245C216.178 80.245 217.755 79.5667 219.038 78.21C220.358 76.8533 221.018 75.0017 221.018 72.655ZM204.353 54.725C205.233 49.2983 207.763 46.585 211.943 46.585C212.75 46.585 213.447 46.7133 214.033 46.97C214.657 47.19 215.408 47.5383 216.288 48.015C216.948 48.3817 217.48 48.6567 217.883 48.84C218.287 48.9867 218.708 49.06 219.148 49.06C220.505 49.06 221.293 48.235 221.513 46.585H226.353C225.473 52.0117 222.943 54.725 218.763 54.725C217.957 54.725 217.242 54.615 216.618 54.395C216.032 54.1383 215.298 53.7717 214.418 53.295C213.758 52.9283 213.227 52.6717 212.823 52.525C212.42 52.3417 211.998 52.25 211.558 52.25C210.202 52.25 209.395 53.075 209.138 54.725H204.353ZM251.197 88.44C248.191 88.44 245.477 87.7983 243.057 86.515C240.674 85.2317 238.786 83.3983 237.392 81.015C236.036 78.6317 235.357 75.845 235.357 72.655C235.357 69.5017 236.054 66.7333 237.447 64.35C238.841 61.93 240.747 60.0783 243.167 58.795C245.587 57.5117 248.301 56.87 251.307 56.87C254.314 56.87 257.027 57.5117 259.447 58.795C261.867 60.0783 263.774 61.93 265.167 64.35C266.561 66.7333 267.257 69.5017 267.257 72.655C267.257 75.8083 266.542 78.595 265.112 81.015C263.719 83.3983 261.794 85.2317 259.337 86.515C256.917 87.7983 254.204 88.44 251.197 88.44ZM251.197 80.3C252.994 80.3 254.516 79.64 255.762 78.32C257.046 77 257.687 75.1117 257.687 72.655C257.687 70.1983 257.064 68.31 255.817 66.99C254.607 65.67 253.104 65.01 251.307 65.01C249.474 65.01 247.952 65.67 246.742 66.99C245.532 68.2733 244.927 70.1617 244.927 72.655C244.927 75.1117 245.514 77 246.687 78.32C247.897 79.64 249.401 80.3 251.197 80.3ZM284.732 88.44C282.055 88.44 279.672 87.9817 277.582 87.065C275.492 86.1483 273.842 84.9017 272.632 83.325C271.422 81.7117 270.744 79.915 270.597 77.935H279.892C280.002 78.9983 280.497 79.86 281.377 80.52C282.257 81.18 283.339 81.51 284.622 81.51C285.795 81.51 286.694 81.29 287.317 80.85C287.977 80.3733 288.307 79.7683 288.307 79.035C288.307 78.155 287.849 77.5133 286.932 77.11C286.015 76.67 284.53 76.1933 282.477 75.68C280.277 75.1667 278.444 74.635 276.977 74.085C275.51 73.4983 274.245 72.6 273.182 71.39C272.119 70.1433 271.587 68.475 271.587 66.385C271.587 64.625 272.064 63.03 273.017 61.6C274.007 60.1333 275.437 58.9783 277.307 58.135C279.214 57.2917 281.469 56.87 284.072 56.87C287.922 56.87 290.947 57.8233 293.147 59.73C295.384 61.6367 296.667 64.1667 296.997 67.32H288.307C288.16 66.2567 287.684 65.4133 286.877 64.79C286.107 64.1667 285.08 63.855 283.797 63.855C282.697 63.855 281.854 64.075 281.267 64.515C280.68 64.9183 280.387 65.4867 280.387 66.22C280.387 67.1 280.845 67.76 281.762 68.2C282.715 68.64 284.182 69.08 286.162 69.52C288.435 70.1067 290.287 70.6933 291.717 71.28C293.147 71.83 294.394 72.7467 295.457 74.03C296.557 75.2767 297.125 76.9633 297.162 79.09C297.162 80.8867 296.649 82.5 295.622 83.93C294.632 85.3233 293.184 86.4233 291.277 87.23C289.407 88.0367 287.225 88.44 284.732 88.44ZM312.701 72.6C312.701 69.4467 313.288 66.6783 314.461 64.295C315.671 61.9117 317.303 60.0783 319.356 58.795C321.409 57.5117 323.701 56.87 326.231 56.87C328.394 56.87 330.283 57.31 331.896 58.19C333.546 59.07 334.811 60.225 335.691 61.655V57.31H345.096V88H335.691V83.655C334.774 85.085 333.491 86.24 331.841 87.12C330.228 88 328.339 88.44 326.176 88.44C323.683 88.44 321.409 87.7983 319.356 86.515C317.303 85.195 315.671 83.3433 314.461 80.96C313.288 78.54 312.701 75.7533 312.701 72.6ZM335.691 72.655C335.691 70.3083 335.031 68.4567 333.711 67.1C332.428 65.7433 330.851 65.065 328.981 65.065C327.111 65.065 325.516 65.7433 324.196 67.1C322.913 68.42 322.271 70.2533 322.271 72.6C322.271 74.9467 322.913 76.8167 324.196 78.21C325.516 79.5667 327.111 80.245 328.981 80.245C330.851 80.245 332.428 79.5667 333.711 78.21C335.031 76.8533 335.691 75.0017 335.691 72.655ZM336.406 48.73V55.22L323.151 49.665V42.35L336.406 48.73ZM381.816 88.385C378.186 88.385 374.849 87.5417 371.806 85.855C368.799 84.1683 366.397 81.8217 364.601 78.815C362.841 75.7717 361.961 72.3617 361.961 68.585C361.961 64.8083 362.841 61.4167 364.601 58.41C366.397 55.4033 368.799 53.0567 371.806 51.37C374.849 49.6833 378.186 48.84 381.816 48.84C385.446 48.84 388.764 49.6833 391.771 51.37C394.814 53.0567 397.197 55.4033 398.921 58.41C400.681 61.4167 401.561 64.8083 401.561 68.585C401.561 72.3617 400.681 75.7717 398.921 78.815C397.161 81.8217 394.777 84.1683 391.771 85.855C388.764 87.5417 385.446 88.385 381.816 88.385ZM381.816 79.805C384.896 79.805 387.352 78.7783 389.186 76.725C391.056 74.6717 391.991 71.9583 391.991 68.585C391.991 65.175 391.056 62.4617 389.186 60.445C387.352 58.3917 384.896 57.365 381.816 57.365C378.699 57.365 376.206 58.3733 374.336 60.39C372.502 62.4067 371.586 65.1383 371.586 68.585C371.586 71.995 372.502 74.7267 374.336 76.78C376.206 78.7967 378.699 79.805 381.816 79.805ZM416.198 61.655C417.078 60.225 418.343 59.07 419.993 58.19C421.643 57.31 423.531 56.87 425.658 56.87C428.188 56.87 430.479 57.5117 432.533 58.795C434.586 60.0783 436.199 61.9117 437.373 64.295C438.583 66.6783 439.188 69.4467 439.188 72.6C439.188 75.7533 438.583 78.54 437.373 80.96C436.199 83.3433 434.586 85.195 432.533 86.515C430.479 87.7983 428.188 88.44 425.658 88.44C423.494 88.44 421.606 88.0183 419.993 87.175C418.379 86.295 417.114 85.14 416.198 83.71V88H406.793V47.3H416.198V61.655ZM429.618 72.6C429.618 70.2533 428.958 68.42 427.638 67.1C426.354 65.7433 424.759 65.065 422.853 65.065C420.983 65.065 419.388 65.7433 418.068 67.1C416.784 68.4567 416.143 70.3083 416.143 72.655C416.143 75.0017 416.784 76.8533 418.068 78.21C419.388 79.5667 420.983 80.245 422.853 80.245C424.723 80.245 426.318 79.5667 427.638 78.21C428.958 76.8167 429.618 74.9467 429.618 72.6ZM453.527 62.425C454.627 60.7383 456.002 59.4183 457.652 58.465C459.302 57.475 461.135 56.98 463.152 56.98V66.935H460.567C458.22 66.935 456.46 67.4483 455.287 68.475C454.114 69.465 453.527 71.225 453.527 73.755V88H444.122V57.31H453.527V62.425ZM465.777 72.6C465.777 69.4467 466.364 66.6783 467.537 64.295C468.747 61.9117 470.379 60.0783 472.432 58.795C474.486 57.5117 476.777 56.87 479.307 56.87C481.471 56.87 483.359 57.31 484.972 58.19C486.622 59.07 487.887 60.225 488.767 61.655V57.31H498.172V88H488.767V83.655C487.851 85.085 486.567 86.24 484.917 87.12C483.304 88 481.416 88.44 479.252 88.44C476.759 88.44 474.486 87.7983 472.432 86.515C470.379 85.195 468.747 83.3433 467.537 80.96C466.364 78.54 465.777 75.7533 465.777 72.6ZM488.767 72.655C488.767 70.3083 488.107 68.4567 486.787 67.1C485.504 65.7433 483.927 65.065 482.057 65.065C480.187 65.065 478.592 65.7433 477.272 67.1C475.989 68.42 475.347 70.2533 475.347 72.6C475.347 74.9467 475.989 76.8167 477.272 78.21C478.592 79.5667 480.187 80.245 482.057 80.245C483.927 80.245 485.504 79.5667 486.787 78.21C488.107 76.8533 488.767 75.0017 488.767 72.655Z" fill="#39C972"/>
<path d="M108.121 87.187L78.9334 137.308L28.8124 108.121C18.8995 102.348 10.9209 93.7651 5.88581 83.4579C0.850724 73.1509 -1.01483 61.5821 0.524923 50.2146C2.06468 38.8471 6.94071 28.1916 14.5364 19.5952C22.1322 10.999 32.1064 4.84819 43.1978 1.92058C54.2893 -1.00703 65.9998 -0.579699 76.8484 3.14809C87.697 6.87589 97.1967 13.7369 104.146 22.8637C111.095 31.9905 115.182 42.9731 115.89 54.4224C116.597 65.8718 113.894 77.2741 108.121 87.187ZM61.2892 70.4616C64.5943 69.5891 67.4175 67.4394 69.1378 64.4855C70.8579 61.5315 71.3343 58.0152 70.462 54.7101C69.5895 51.4051 67.4398 48.5818 64.4858 46.8615C61.5319 45.1412 58.0156 44.665 54.7105 45.5373C51.4054 46.4099 48.5822 48.5595 46.8619 51.5135C45.1416 54.4674 44.6654 57.9837 45.5377 61.2888C46.4103 64.5939 48.5599 67.4172 51.5139 69.1375C54.4678 70.8575 57.9841 71.3339 61.2892 70.4616Z" fill="#39C972"/>
<path d="M58.0839 71.4494C65.4988 71.4494 71.5097 65.4384 71.5097 58.0235C71.5097 50.6086 65.4988 44.5976 58.0839 44.5976C50.6689 44.5976 44.658 50.6086 44.658 58.0235C44.658 65.4384 50.6689 71.4494 58.0839 71.4494Z" fill="#39C972"/>
<path d="M59.3334 22.3242C59.5985 22.1232 59.8343 21.8861 60.0336 21.6194H72.234L72.4007 21.6148C73.2653 21.5708 74.1315 21.5708 74.9961 21.6148H75.1769C77.8882 21.6086 80.5662 22.2091 83.0153 23.3719C87.4901 25.1267 91.3606 28.1403 94.1588 32.0486C96.277 35.0077 97.7181 38.3964 98.3797 41.9748C99.0412 45.5533 98.9075 49.2332 97.9876 52.7541L82.363 37.3392C81.6942 36.6796 80.7925 36.3101 79.8535 36.3106H57.2571C56.4791 36.3145 55.7229 36.5681 55.1 37.0343L46.1282 43.8347C45.6461 44.2025 45.0966 44.4715 44.5104 44.6265C43.9245 44.7815 43.3136 44.8193 42.7129 44.738C42.1122 44.6567 41.5334 44.4574 41.01 44.1521C40.4862 43.8468 40.028 43.4412 39.6612 42.9586C39.2963 42.484 39.0291 41.9418 38.8746 41.3634C38.7204 40.7849 38.6823 40.1816 38.7624 39.5883C38.8427 38.995 39.0396 38.4235 39.3416 37.9066C39.6439 37.3898 40.0454 36.9379 40.5231 36.5774L59.3334 22.3242Z" fill="white"/>
<path d="M35.8228 75.0594L35.7609 75.1213L31.1224 79.7311L31.0605 79.7884C30.2483 80.5607 29.1674 80.9865 28.0465 80.976C26.9256 80.9652 25.8531 80.5187 25.0555 79.7311C24.6573 79.3362 24.3409 78.8662 24.1251 78.3486C23.9093 77.8307 23.7983 77.2753 23.7983 76.7142C23.7983 76.1534 23.9093 75.5979 24.1251 75.0801C24.3409 74.5622 24.6573 74.0924 25.0555 73.6976L29.6939 69.0878C30.5018 68.2879 31.5927 67.8391 32.7297 67.8391C33.8667 67.8391 34.9576 68.2879 35.7655 69.0878C36.559 69.8754 37.0099 70.9439 37.0206 72.0619C37.0313 73.1797 36.6009 74.2569 35.8228 75.0594Z" fill="white"/>
<path d="M34.4416 83.1462C33.6639 83.9495 33.2343 85.0269 33.2461 86.1447C33.2576 87.2625 33.7094 88.3309 34.5035 89.1178C36.1798 90.7846 38.8941 90.7846 40.5751 89.1178L45.2135 84.5128C45.6638 84.0671 46.0091 83.526 46.2231 82.9293C46.4374 82.3327 46.5154 81.696 46.4515 81.0653C46.3876 80.4347 46.1832 79.8263 45.8536 79.2849C45.5242 78.7435 45.0775 78.2827 44.5468 77.9365C43.7331 77.401 42.7623 77.1567 41.7923 77.2432C40.8221 77.3296 39.9099 77.7418 39.2036 78.4126L39.1417 78.4794L34.5035 83.0843L34.4416 83.1462Z" fill="white"/>
<path d="M24.4033 61.5925C24.8015 61.9873 25.1178 62.4574 25.3337 62.9752C25.5495 63.4928 25.6605 64.0483 25.6605 64.6093C25.6605 65.1702 25.5495 65.7256 25.3337 66.2435C25.1178 66.7613 24.8015 67.2311 24.4033 67.6262L19.7697 72.2358C18.9616 73.0372 17.8696 73.4871 16.7314 73.4871C15.5934 73.4871 14.5014 73.0372 13.6933 72.2358C13.2949 71.8409 12.9785 71.3709 12.7627 70.8533C12.5469 70.3354 12.4359 69.78 12.4359 69.2192C12.4359 68.6581 12.5469 68.1026 12.7627 67.5848C12.9785 67.0672 13.2949 66.5971 13.6933 66.2023L18.3364 61.5925C19.1442 60.7926 20.2352 60.3438 21.3721 60.3438C22.5091 60.3438 23.6001 60.7926 24.4079 61.5925H24.4033Z" fill="white"/>
<path d="M54.6614 87.8656C55.0598 88.2604 55.3762 88.7304 55.592 89.248C55.8078 89.7659 55.9188 90.3213 55.9188 90.8824C55.9188 91.4432 55.8078 91.9987 55.592 92.5165C55.3762 93.0344 55.0598 93.5042 54.6614 93.899L50.0232 98.5088C49.2179 99.3133 48.1259 99.7655 46.9874 99.7655C45.8489 99.7655 44.7569 99.3133 43.9516 98.5088C43.319 97.8818 42.8996 97.0716 42.7525 96.1932C42.6057 95.3147 42.7384 94.4123 43.1325 93.6134L43.1371 93.6039C43.3448 93.1855 43.62 92.8042 43.9516 92.4754L48.5898 87.8656C49.3977 87.0654 50.4886 86.6168 51.6256 86.6168C52.7626 86.6168 53.8535 87.0654 54.6614 87.8656Z" fill="white"/>
<path d="M23.6605 30.2724C26.8226 27.131 30.6568 24.7489 34.8738 23.3061C39.0911 21.8632 43.5809 21.3973 48.0046 21.9435L36.2087 30.8867C34.9804 31.8158 33.9483 32.9788 33.1714 34.3086C32.3947 35.6384 31.8884 37.1086 31.6823 38.6348C31.4759 40.161 31.5736 41.7128 31.9697 43.2012C32.3656 44.6893 33.0522 46.0845 33.9895 47.3064C35.8824 49.7735 38.674 51.392 41.7553 51.8086C44.8368 52.2252 47.958 51.4063 50.4379 49.5303L58.4573 43.4587H78.3867L95.0875 59.9355C95.1412 60.0019 95.1985 60.0656 95.2588 60.126L100.735 65.6025C101.967 66.8514 102.673 68.5255 102.708 70.2795C102.742 72.0336 102.103 73.7342 100.921 75.0308C99.739 76.3273 98.1049 77.1211 96.3551 77.249C94.6054 77.3766 92.8734 76.8285 91.5159 75.7171L91.0587 75.2601C90.9699 75.1701 90.8746 75.0873 90.773 75.0123L85.5679 69.8123C85.3482 69.5847 85.0856 69.4034 84.7951 69.2786C84.5046 69.1538 84.192 69.0881 83.876 69.0853C83.5599 69.0827 83.2464 69.1428 82.9535 69.2625C82.661 69.3824 82.3953 69.5591 82.1715 69.7826C81.948 70.0061 81.7713 70.2721 81.6516 70.5647C81.5319 70.8572 81.4716 71.171 81.4744 71.4871C81.477 71.8032 81.5427 72.1157 81.6675 72.4062C81.7923 72.6967 81.9738 72.9593 82.2012 73.179L87.6777 78.6555C87.8776 78.8506 88.0776 79.0411 88.2871 79.2222L88.4968 79.4316C89.3394 80.3548 89.7936 81.5672 89.7652 82.817C89.7368 84.0665 89.2277 85.2572 88.3438 86.141C87.4598 87.0248 86.2694 87.534 85.0199 87.5623C83.7701 87.5907 82.5577 87.1366 81.6345 86.2939L80.8248 85.4891C80.4891 85.1541 80.061 84.927 79.5953 84.837C79.1296 84.7473 78.6475 84.7984 78.211 84.9841C77.7747 85.1697 77.4037 85.4817 77.1456 85.8796C76.8876 86.2776 76.7544 86.7435 76.7628 87.2176C76.7556 87.5398 76.814 87.86 76.9344 88.1587C77.0546 88.4574 77.2344 88.7287 77.4627 88.9558L78.5248 90.0179C78.9623 90.4299 79.313 90.9257 79.5554 91.4755C79.7978 92.0256 79.9275 92.6187 79.9364 93.2196C79.9456 93.8209 79.8339 94.4175 79.6081 94.9745C79.3823 95.5317 79.0467 96.0375 78.6217 96.4626C78.1967 96.8876 77.6906 97.2231 77.1336 97.4489C76.5766 97.6747 75.9798 97.7865 75.3788 97.7775C74.7778 97.7683 74.1848 97.6387 73.6347 97.3962C73.0846 97.1538 72.589 96.8034 72.177 96.3656H72.1673L72.1149 96.3037L71.115 95.3038C70.8953 95.0762 70.6327 94.8949 70.3422 94.7701C70.0517 94.6453 69.7392 94.5796 69.4231 94.577C69.1067 94.5742 68.7932 94.6343 68.5006 94.7543C68.2081 94.874 67.9421 95.0507 67.7186 95.2742C67.4951 95.4979 67.3181 95.7636 67.1985 96.0562C67.0788 96.349 67.0187 96.6625 67.0212 96.9786C67.0241 97.2947 67.0898 97.6072 67.2146 97.8977C67.3394 98.1882 67.5207 98.4509 67.748 98.6705L68.7863 99.7134C69.2136 100.136 69.5537 100.638 69.7872 101.191C70.0205 101.745 70.1427 102.339 70.1463 102.94C70.1501 103.54 70.0355 104.136 69.8092 104.692C69.5826 105.249 69.2489 105.755 68.8267 106.183C68.4047 106.61 67.9025 106.95 67.3488 107.184C66.7954 107.417 66.2011 107.539 65.6004 107.543C64.9997 107.547 64.4041 107.432 63.8476 107.206C63.2914 106.979 62.7848 106.646 62.3575 106.223L55.5427 99.7469L58.0382 97.2609C58.8795 96.427 59.5475 95.4343 60.0032 94.3408C60.4592 93.2472 60.6937 92.0742 60.6937 90.8894C60.6937 89.7046 60.4592 88.5313 60.0032 87.4378C59.5475 86.3443 58.8795 85.3518 58.0382 84.5176C57.1485 83.6323 56.0846 82.9413 54.9142 82.4879C53.7437 82.0347 52.4919 81.8291 51.238 81.8841C51.2935 80.6346 51.0866 79.3871 50.6304 78.2225C50.1744 77.0579 49.4794 76.0015 48.5902 75.1221C47.7 74.2375 46.6361 73.5473 45.4657 73.0949C44.2952 72.6425 43.0436 72.4376 41.7898 72.4931C41.8445 71.2444 41.6371 69.9982 41.1811 68.8344C40.7252 67.6706 40.0306 66.6152 39.1422 65.736C38.0109 64.612 36.6043 63.8049 35.0633 63.3955C33.5223 62.9861 31.9007 62.9884 30.3609 63.4024C30.0952 61.4445 29.1894 59.6296 27.7844 58.2402C26.2178 56.6874 24.1413 55.7555 21.9397 55.6169C19.7383 55.4786 17.5613 56.1435 15.8126 57.4879C14.6884 52.6597 14.8196 47.6238 16.1934 42.8605C17.5672 38.0973 20.1378 33.7652 23.6605 30.277V30.2724Z" fill="white"/>
</svg>
