<svg width="592" height="420" viewBox="0 0 592 420" fill="none" xmlns="http://www.w3.org/2000/svg">
<g clip-path="url(#clip0_1410:95)">
<g style="mix-blend-mode:hard-light" opacity="0.15">
<path d="M571.119 261.48C567.233 266.269 563.094 270.847 558.72 275.193C546.52 287.444 532.945 298.421 520.828 310.778C500.641 331.33 484.583 355.585 464.713 376.431C444.844 397.278 419.657 415.142 391.012 417.535C368.802 419.386 347.015 411.758 324.945 408.444C251.279 397.408 174.484 434.385 102.912 413.503C59.9023 401.004 23.6927 367.057 8.37596 324.822C-6.94078 282.586 -0.964664 233.322 23.9397 196.027C38.3742 174.402 58.3847 157.116 74.7249 137.001C111.476 91.6285 134.18 27.9328 189.189 8.47744C206.211 2.45217 224.587 1.63859 242.644 0.848583C284.795 -0.96725 329.698 -2.0992 365.743 19.8677C392.33 36.1512 410.446 62.9407 432.233 85.2023C457.679 111.143 484.336 126.2 517.593 137.343C547.003 147.212 582.295 162.812 590.447 196.157C590.915 198.044 591.272 199.958 591.518 201.887C594.329 223.052 584.624 244.701 571.119 261.48Z" fill="#1DBF73"/>
</g>
<path d="M100.486 294.028L281.309 226.128L283.26 116.943L245.104 89.733L163.878 215.851L95.6207 266.372L100.486 294.028Z" fill="white"/>
<path d="M100.486 294.534C100.402 294.531 100.32 294.507 100.248 294.465C100.184 294.428 100.128 294.379 100.086 294.319C100.043 294.259 100.014 294.19 100 294.118L95.1353 266.462C95.1196 266.37 95.1298 266.276 95.1648 266.19C95.1999 266.104 95.2583 266.03 95.3334 265.976L163.511 215.504L244.688 89.4651C244.762 89.3541 244.875 89.2759 245.005 89.2469C245.141 89.2249 245.279 89.257 245.392 89.3361L283.518 116.536C283.584 116.584 283.637 116.646 283.673 116.719C283.709 116.791 283.727 116.871 283.726 116.952L281.745 226.138C281.745 226.238 281.714 226.335 281.658 226.416C281.601 226.498 281.521 226.56 281.427 226.594L100.605 294.495C100.566 294.512 100.527 294.525 100.486 294.534ZM96.1657 266.591L100.872 293.374L280.823 225.791L282.805 117.191L245.293 90.4075L164.343 216.08C164.312 216.129 164.272 216.173 164.224 216.209L96.1657 266.591Z" fill="#231F20"/>
<path d="M84.2066 263C84.2066 263 191.214 203.194 208.286 100.258L184.209 92.9271L253.407 49.2211L283.26 116.943L261.324 112.241C261.324 112.241 224.208 213.421 100.723 274.189L84.2066 263Z" fill="white"/>
<path d="M100.723 274.685C100.625 274.689 100.527 274.662 100.446 274.606L83.9292 263.416C83.8569 263.37 83.7985 263.305 83.7601 263.228C83.7217 263.151 83.7048 263.066 83.7112 262.98C83.7122 262.896 83.7357 262.814 83.7793 262.742C83.8229 262.671 83.8849 262.612 83.9589 262.573C84.2264 262.424 111.018 247.317 139.533 219.849C165.76 194.594 198.843 153.387 207.731 100.605L184.07 93.4032C183.979 93.3768 183.898 93.3242 183.836 93.2519C183.775 93.1796 183.735 93.0909 183.724 92.9965C183.708 92.902 183.722 92.805 183.763 92.7183C183.803 92.6316 183.869 92.5591 183.952 92.5105L253.15 48.8045C253.209 48.7651 253.276 48.7401 253.347 48.7314C253.418 48.7228 253.489 48.7308 253.556 48.7549C253.624 48.7746 253.686 48.8087 253.739 48.855C253.792 48.9012 253.834 48.9584 253.863 49.0227L283.716 116.734C283.752 116.818 283.765 116.911 283.753 117.002C283.741 117.093 283.704 117.178 283.647 117.25C283.59 117.324 283.513 117.379 283.424 117.409C283.336 117.439 283.242 117.442 283.152 117.419L261.631 112.816C260.323 116.199 250.524 140.383 227.726 170.717C205.145 200.764 164.819 243.19 100.902 274.635C100.847 274.665 100.786 274.681 100.723 274.685ZM85.138 263.039L100.763 273.624C164.294 242.278 204.422 200.069 226.913 170.152C251.307 137.695 260.729 112.32 260.858 112.112C260.9 112.001 260.98 111.909 261.083 111.851C261.186 111.793 261.307 111.773 261.423 111.794L282.418 116.288L253.189 49.9948L185.428 92.7684L208.474 99.7816C208.589 99.8162 208.688 99.8916 208.752 99.9939C208.816 100.096 208.84 100.218 208.821 100.337C199.993 153.645 166.652 195.149 140.237 220.583C123.513 236.752 105.031 250.993 85.138 263.039Z" fill="#231F20"/>
<path d="M150.284 107.678C150.284 107.678 153.583 111.328 153.167 112.251C152.751 113.173 150.809 112.905 150.809 112.905" fill="white"/>
<path d="M151.423 113.441C151.196 113.454 150.967 113.454 150.74 113.441C150.611 113.419 150.495 113.348 150.418 113.242C150.34 113.137 150.306 113.005 150.323 112.875C150.343 112.747 150.412 112.632 150.516 112.554C150.62 112.476 150.75 112.442 150.878 112.459C151.512 112.538 152.533 112.459 152.711 112.082C152.89 111.705 151.473 109.771 149.917 108.055C149.869 108.007 149.831 107.951 149.805 107.888C149.78 107.825 149.768 107.758 149.769 107.691C149.77 107.623 149.785 107.556 149.813 107.495C149.841 107.433 149.882 107.378 149.932 107.333C149.982 107.287 150.041 107.253 150.104 107.231C150.168 107.209 150.236 107.201 150.303 107.206C150.371 107.211 150.436 107.23 150.496 107.262C150.556 107.294 150.608 107.337 150.65 107.39C151.968 108.838 154.098 111.437 153.623 112.499C153.227 113.292 152.156 113.441 151.423 113.441Z" fill="#231F20"/>
<path d="M148.887 102.41C150.799 103.541 150.759 106.557 151.047 108.481C151.443 111.179 151.77 113.887 152.038 116.595C152.206 118.321 147.797 119.036 146.935 118.649L148.669 125.285L138.86 123.162L138.374 117.518C138.374 117.518 136.967 111.834 138.156 108.094C138.968 105.734 140.419 103.646 142.347 102.063C142.347 102.063 147.004 101.309 148.887 102.41Z" fill="white"/>
<path d="M148.679 125.781H148.57L138.741 123.658C138.638 123.634 138.545 123.577 138.476 123.497C138.407 123.417 138.364 123.317 138.355 123.212L137.869 117.568C137.869 117.409 136.452 111.774 137.671 107.945C138.508 105.482 140.022 103.306 142.04 101.666C142.104 101.618 142.179 101.588 142.258 101.577C142.456 101.577 147.133 100.803 149.134 101.984C150.948 103.045 151.205 105.446 151.413 107.37C151.453 107.74 151.493 108.071 151.532 108.362C151.929 111.05 152.265 113.788 152.523 116.496C152.547 116.815 152.479 117.133 152.328 117.414C152.177 117.695 151.949 117.927 151.671 118.083C150.443 118.817 149.039 119.204 147.609 119.204L149.144 125.156C149.167 125.237 149.167 125.323 149.147 125.405C149.126 125.487 149.084 125.562 149.026 125.622C148.935 125.719 148.811 125.775 148.679 125.781ZM139.306 122.805L147.995 124.68L146.469 118.827C146.448 118.737 146.451 118.642 146.48 118.553C146.509 118.465 146.562 118.386 146.632 118.325C146.703 118.265 146.789 118.225 146.881 118.21C146.973 118.196 147.067 118.207 147.153 118.242C148.532 118.381 149.919 118.079 151.116 117.379C151.433 117.148 151.582 116.919 151.562 116.695C151.294 114.006 150.958 111.278 150.571 108.6C150.522 108.273 150.482 107.906 150.442 107.529C150.264 105.823 150.036 103.7 148.649 102.886C147.292 102.083 143.913 102.381 142.565 102.579C140.754 104.091 139.385 106.065 138.602 108.293C137.473 111.854 138.82 117.399 138.84 117.448L139.306 122.805Z" fill="#231F20"/>
<path d="M151.671 114.602C151.436 114.818 151.158 114.981 150.854 115.08C150.551 115.178 150.23 115.21 149.913 115.174C149.596 115.137 149.291 115.032 149.018 114.867C148.745 114.701 148.511 114.479 148.332 114.215" fill="white"/>
<path d="M150.056 115.703H149.759C149.386 115.647 149.029 115.513 148.711 115.31C148.394 115.106 148.122 114.838 147.916 114.522C147.84 114.415 147.81 114.282 147.83 114.153C147.85 114.023 147.92 113.907 148.025 113.828C148.077 113.789 148.137 113.761 148.201 113.746C148.264 113.731 148.33 113.728 148.394 113.738C148.459 113.748 148.52 113.771 148.576 113.805C148.632 113.839 148.68 113.884 148.718 113.937C148.846 114.141 149.015 114.317 149.215 114.452C149.415 114.587 149.64 114.678 149.878 114.721C150.404 114.736 150.918 114.559 151.324 114.225C151.427 114.143 151.557 114.104 151.688 114.115C151.818 114.126 151.94 114.186 152.028 114.284C152.111 114.386 152.152 114.517 152.141 114.648C152.13 114.78 152.068 114.902 151.968 114.988C151.421 115.42 150.752 115.67 150.056 115.703Z" fill="#231F20"/>
<path d="M148.724 107.787C148.933 107.743 149.013 107.281 148.902 106.756C148.792 106.23 148.533 105.84 148.324 105.884C148.115 105.928 148.035 106.39 148.146 106.915C148.256 107.441 148.515 107.831 148.724 107.787Z" fill="#231F20"/>
<path d="M137.235 125.116L137.562 122.012L149.6 122.131L151.74 127.358C146.822 127.322 141.935 126.566 137.235 125.116Z" fill="white"/>
<path d="M151.483 127.864C146.601 127.78 141.755 127.012 137.086 125.583C136.975 125.55 136.88 125.48 136.816 125.384C136.753 125.287 136.725 125.171 136.739 125.057L137.066 121.962C137.076 121.838 137.133 121.723 137.225 121.64C137.318 121.557 137.438 121.513 137.562 121.516L149.6 121.635C149.698 121.635 149.793 121.665 149.875 121.719C149.956 121.774 150.019 121.852 150.056 121.942L152.196 127.17C152.235 127.241 152.256 127.321 152.256 127.403C152.256 127.484 152.235 127.564 152.196 127.636C152.152 127.704 152.092 127.759 152.021 127.798C151.95 127.836 151.87 127.855 151.79 127.854L151.483 127.864ZM137.77 124.759C142.069 126.032 146.516 126.739 150.997 126.862L149.263 122.617L138.008 122.517L137.77 124.759Z" fill="#231F20"/>
<path d="M177.987 135.314C178.939 133.934 179.793 132.488 180.543 130.989C180.603 129.905 180.793 128.833 181.108 127.795C181.584 126.803 182.941 125.811 183.664 127.15C183.664 127.15 183.902 124.829 185.497 126.029C186.201 126.511 186.74 127.197 187.041 127.996C187.342 128.794 187.391 129.666 187.182 130.493C186.855 132.268 180.87 141.464 180.87 141.464" fill="white"/>
<path d="M180.87 141.96C180.772 141.963 180.675 141.935 180.593 141.881C180.484 141.808 180.409 141.695 180.383 141.567C180.357 141.439 180.382 141.305 180.454 141.196C182.842 137.536 186.468 131.634 186.686 130.413C186.88 129.679 186.841 128.903 186.575 128.192C186.309 127.481 185.828 126.871 185.2 126.446C184.942 126.247 184.715 126.168 184.596 126.217C184.477 126.267 184.189 126.862 184.16 127.209C184.147 127.316 184.101 127.416 184.028 127.494C183.955 127.572 183.859 127.626 183.753 127.646C183.65 127.666 183.542 127.652 183.448 127.605C183.353 127.558 183.276 127.482 183.228 127.388C183 126.971 182.792 126.981 182.713 126.981C182.337 126.981 181.811 127.467 181.554 127.973C181.31 128.652 181.173 129.365 181.148 130.086C181.129 130.419 181.09 130.75 181.029 131.078C180.283 132.645 179.404 134.145 178.403 135.562C178.33 135.67 178.218 135.746 178.09 135.772C177.962 135.798 177.829 135.772 177.719 135.701C177.665 135.666 177.617 135.62 177.581 135.566C177.544 135.512 177.518 135.452 177.505 135.388C177.492 135.324 177.492 135.258 177.505 135.194C177.518 135.13 177.544 135.07 177.581 135.016C178.511 133.694 179.342 132.305 180.068 130.86C180.117 130.578 180.15 130.293 180.167 130.007C180.191 129.172 180.355 128.347 180.652 127.567C180.827 127.146 181.106 126.778 181.463 126.496C181.821 126.215 182.244 126.03 182.693 125.96C182.946 125.963 183.194 126.028 183.417 126.148C183.554 125.764 183.835 125.448 184.199 125.265C184.471 125.169 184.764 125.151 185.046 125.212C185.328 125.274 185.587 125.412 185.794 125.612C186.572 126.152 187.167 126.915 187.502 127.801C187.836 128.686 187.894 129.653 187.667 130.572C187.34 132.397 181.901 140.78 181.286 141.732C181.24 141.8 181.178 141.857 181.106 141.897C181.034 141.936 180.953 141.958 180.87 141.96Z" fill="#231F20"/>
<path d="M104.409 154.092C104.409 154.092 103.092 156.304 102.329 157.97C101.742 159.575 101.327 161.238 101.09 162.93C100.704 162.375 100.02 162.186 99.6138 161.69C99.4967 162.413 99.2588 163.11 98.9103 163.753C98.7322 164.072 98.4777 164.341 98.1699 164.537C97.862 164.733 97.5104 164.849 97.1467 164.874C96.7605 164.859 96.3822 164.761 96.0369 164.587C94.7489 164.041 92.6285 163.059 92.4799 161.432C92.4788 160.803 92.6576 160.187 92.9951 159.657C94.2138 157.395 99.267 151.661 100.099 150.729" fill="white"/>
<path d="M97.1466 165.341C96.693 165.321 96.2481 165.21 95.8388 165.013C94.739 164.547 92.1629 163.456 91.9845 161.442C91.9726 160.719 92.1724 160.009 92.5592 159.399C93.9166 156.869 99.6732 150.471 99.7326 150.372C99.8253 150.281 99.9498 150.23 100.079 150.23C100.209 150.23 100.334 150.281 100.426 150.372C100.473 150.418 100.51 150.473 100.535 150.533C100.56 150.594 100.573 150.659 100.573 150.724C100.573 150.79 100.56 150.854 100.535 150.915C100.51 150.975 100.473 151.03 100.426 151.076C98.9499 152.723 94.4814 157.871 93.3915 159.905C93.106 160.353 92.9484 160.871 92.9357 161.403C93.0447 162.652 94.7291 163.525 96.1855 164.14C96.4733 164.283 96.7865 164.368 97.107 164.388C97.3862 164.361 97.6546 164.267 97.8893 164.113C98.124 163.959 98.318 163.751 98.4545 163.505C98.7642 162.908 98.9782 162.265 99.0886 161.601C99.1079 161.51 99.1521 161.427 99.2163 161.36C99.2804 161.293 99.362 161.246 99.4518 161.223C99.5415 161.2 99.6358 161.203 99.724 161.232C99.8121 161.26 99.8907 161.312 99.9506 161.383C100.124 161.563 100.321 161.72 100.535 161.849L100.714 161.958C100.943 160.541 101.318 159.151 101.833 157.812C102.596 156.125 103.894 153.963 103.944 153.844C104.012 153.733 104.121 153.654 104.247 153.623C104.373 153.591 104.506 153.611 104.618 153.677C104.73 153.744 104.811 153.851 104.844 153.977C104.877 154.103 104.86 154.237 104.796 154.35C104.796 154.35 103.478 156.562 102.735 158.189C102.174 159.737 101.775 161.339 101.546 162.97C101.524 163.062 101.477 163.147 101.41 163.215C101.343 163.282 101.259 163.33 101.167 163.352C101.074 163.375 100.978 163.372 100.887 163.343C100.797 163.314 100.716 163.26 100.654 163.188C100.467 162.968 100.242 162.784 99.9903 162.642L99.8714 162.563C99.7517 163.065 99.558 163.547 99.2967 163.992C99.0734 164.383 98.7562 164.712 98.3738 164.949C97.9915 165.186 97.5561 165.324 97.107 165.351L97.1466 165.341Z" fill="#231F20"/>
<path d="M162.223 208.471C162.223 208.471 161.232 215.316 164.066 216.328C166.9 217.339 181.415 205.753 180.414 203.184C179.414 200.615 174.469 199.732 170.011 203.184C167.543 205.129 164.941 206.896 162.223 208.471Z" fill="#231F20"/>
<path d="M164.442 216.873C164.257 216.876 164.073 216.846 163.898 216.784C160.776 215.683 161.629 209.146 161.738 208.402C161.747 208.325 161.774 208.252 161.817 208.188C161.86 208.125 161.918 208.072 161.985 208.035C164.674 206.467 167.253 204.717 169.704 202.797C172.339 200.754 175.431 199.96 177.977 200.665C178.61 200.797 179.202 201.079 179.705 201.486C180.208 201.893 180.608 202.414 180.87 203.006C181.009 203.343 181.415 204.384 178.264 207.628C174.965 211.04 167.445 216.873 164.442 216.873ZM162.639 208.779C162.401 210.763 162.263 215.177 164.185 215.861C165.75 216.407 173.102 211.497 177.521 206.934C179.651 204.732 180.028 203.64 179.919 203.353C179.705 202.909 179.392 202.521 179.003 202.218C178.615 201.915 178.162 201.706 177.68 201.607C176.375 201.354 175.03 201.402 173.746 201.745C172.462 202.089 171.273 202.72 170.268 203.591C167.84 205.484 165.292 207.217 162.639 208.779Z" fill="#231F20"/>
<path d="M132.964 177.472C132.964 177.472 150.284 182.125 163.224 179.754L162.055 208.442C162.055 208.442 166.949 210.227 172.29 203.323C172.29 203.323 177.452 168.078 174.113 166.382C170.774 164.686 140.178 166.69 140.178 166.69L132.964 177.472Z" fill="white"/>
<path d="M163.63 209.166C163.043 209.174 162.459 209.093 161.896 208.928C161.795 208.889 161.708 208.819 161.647 208.728C161.587 208.638 161.556 208.531 161.559 208.422L162.709 180.369C149.828 182.482 132.984 178.018 132.855 177.968C132.776 177.948 132.703 177.908 132.643 177.852C132.583 177.797 132.536 177.728 132.509 177.651C132.48 177.575 132.469 177.493 132.477 177.412C132.486 177.331 132.514 177.253 132.558 177.185L139.771 166.402C139.815 166.338 139.873 166.285 139.939 166.245C140.006 166.206 140.081 166.182 140.158 166.174C143.309 165.975 171.002 164.19 174.361 165.926C177.719 167.662 173.667 197.421 172.795 203.373C172.783 203.459 172.749 203.541 172.696 203.611C169.06 208.332 165.612 209.166 163.63 209.166ZM162.639 208.055C163.798 208.283 167.593 208.531 171.864 203.095C174.361 185.983 175.827 167.771 173.944 166.819C171.329 165.499 149.174 166.6 140.524 167.166L133.856 177.085C137.205 177.909 151.968 181.242 163.194 179.188C163.269 179.173 163.347 179.176 163.421 179.197C163.496 179.217 163.564 179.255 163.62 179.307C163.678 179.358 163.724 179.42 163.755 179.491C163.786 179.561 163.801 179.637 163.798 179.714L162.639 208.055Z" fill="#231F20"/>
<path d="M123.393 172.473C123.393 172.473 118.835 200.536 117.944 200.982C117.052 201.428 92.1827 223.033 92.1827 223.033L99.5246 229.501C99.5246 229.501 127.267 212.697 128.833 207.678C130.398 202.658 142.823 172.473 142.823 172.473H123.393Z" fill="white"/>
<path d="M99.5345 230.007C99.4114 230.011 99.2913 229.968 99.1977 229.888L91.8458 223.42C91.7921 223.371 91.7493 223.312 91.7203 223.245C91.6913 223.178 91.6766 223.106 91.6774 223.033C91.6765 222.96 91.6921 222.887 91.723 222.82C91.7538 222.753 91.7992 222.694 91.8557 222.647C95.8983 219.135 115.705 201.944 117.617 200.605C118.36 199.196 121.243 182.621 122.908 172.393C122.927 172.273 122.988 172.162 123.08 172.082C123.173 172.002 123.291 171.958 123.413 171.957H142.823C142.907 171.959 142.989 171.981 143.063 172.02C143.137 172.06 143.201 172.116 143.249 172.185C143.296 172.254 143.325 172.334 143.334 172.417C143.342 172.5 143.33 172.584 143.299 172.661C143.17 172.969 130.904 202.996 129.378 207.886C127.773 212.975 100.971 229.243 99.8318 229.937C99.743 229.993 99.6385 230.017 99.5345 230.007ZM92.9655 223.063L99.5841 228.886C107.511 224.085 127.148 211.467 128.318 207.598C129.754 203.035 140.069 177.691 141.981 173.009H123.829C119.281 200.903 118.479 201.309 118.172 201.458C117.349 201.934 102.814 214.483 92.9655 223.043V223.063Z" fill="#231F20"/>
<path d="M113.158 198.938C113.158 198.938 128.932 209.701 138.146 207.866C164.68 202.381 178.235 165.678 178.235 165.678C178.235 165.678 160.4 163.287 150.928 160.916L123.393 169.745L113.158 198.938Z" fill="#231F20"/>
<path d="M135.798 208.541C126.465 208.541 113.475 199.752 112.881 199.345C112.79 199.286 112.721 199.198 112.687 199.096C112.653 198.993 112.655 198.881 112.692 198.78L122.927 169.646C122.952 169.573 122.994 169.507 123.049 169.454C123.104 169.4 123.171 169.361 123.245 169.338L150.749 160.48C150.837 160.455 150.929 160.455 151.017 160.48C160.36 162.821 178.096 165.202 178.274 165.222C178.348 165.232 178.418 165.258 178.48 165.299C178.542 165.34 178.594 165.395 178.632 165.459C178.67 165.522 178.693 165.594 178.7 165.668C178.706 165.742 178.696 165.817 178.67 165.886C178.532 166.253 164.71 202.926 138.216 208.323C137.418 208.47 136.609 208.543 135.798 208.541ZM113.743 198.74C116.002 200.218 129.843 209.007 138.047 207.34C162.203 202.381 175.698 170.786 177.551 166.104C174.331 165.668 159.369 163.555 150.948 161.462L123.78 170.162L113.743 198.74Z" fill="#231F20"/>
<path d="M158.091 130.681C158.091 130.681 156.655 124.888 139.395 123.043C135.23 122.549 131.007 123.101 127.109 124.65C126.663 127.328 122.571 160.639 120.787 169.775C120.787 169.775 144.042 174.854 153.415 161.611C153.415 161.611 156.754 133.578 158.091 130.681Z" fill="#1DBF73"/>
<path d="M106.793 172.779L79.8802 157.191C78.3645 156.314 76.4249 156.832 75.5481 158.35L66.5677 173.891C65.6908 175.408 66.2087 177.35 67.7244 178.228L94.637 193.815C96.1527 194.693 98.0923 194.175 98.9691 192.657L107.949 177.116C108.826 175.599 108.308 173.657 106.793 172.779Z" fill="white"/>
<path d="M96.2549 194.733C95.615 194.735 94.9859 194.567 94.4319 194.246L67.5214 178.653C67.1046 178.411 66.7394 178.09 66.4469 177.707C66.1545 177.324 65.9405 176.887 65.8172 176.421C65.5683 175.48 65.7001 174.478 66.1838 173.633L75.1606 158.099C75.4008 157.681 75.7215 157.315 76.1042 157.022C76.4869 156.729 76.924 156.515 77.3899 156.393C77.8548 156.264 78.3409 156.23 78.8193 156.293C79.2976 156.356 79.7583 156.515 80.1741 156.76L107.094 172.344C107.935 172.833 108.548 173.636 108.799 174.577C109.05 175.518 108.918 176.52 108.432 177.363L99.4553 192.897C98.9679 193.742 98.1664 194.359 97.2259 194.613C96.9084 194.693 96.5823 194.733 96.2549 194.733ZM94.9273 193.383C95.5439 193.736 96.2747 193.829 96.9598 193.643C97.6449 193.457 98.2287 193.007 98.5833 192.391L107.56 176.857C107.737 176.553 107.853 176.217 107.898 175.868C107.944 175.518 107.92 175.164 107.828 174.824C107.74 174.482 107.584 174.162 107.37 173.882C107.155 173.603 106.886 173.37 106.579 173.197L79.6688 157.613C79.07 157.264 78.3585 157.165 77.6872 157.335C77.3475 157.427 77.0292 157.584 76.7504 157.798C76.4716 158.013 76.2377 158.28 76.0622 158.585L67.0855 174.129C66.91 174.435 66.7965 174.772 66.7513 175.121C66.7062 175.471 66.7303 175.825 66.8224 176.165C66.9144 176.505 67.0725 176.824 67.2877 177.103C67.5029 177.381 67.7708 177.615 68.0763 177.79L94.9867 193.374L94.9273 193.383Z" fill="#231F20"/>
<path d="M99.3264 168.941C99.2404 168.941 99.1557 168.92 99.0787 168.882L87.1097 161.938C86.9966 161.87 86.9145 161.76 86.8812 161.632C86.8479 161.504 86.8659 161.368 86.9314 161.254L88.2591 158.962C88.6444 158.296 89.2783 157.81 90.0213 157.611C90.7644 157.412 91.556 157.516 92.2223 157.901L100.04 162.434C100.37 162.622 100.659 162.875 100.89 163.176C101.122 163.478 101.291 163.822 101.387 164.19C101.486 164.558 101.512 164.942 101.463 165.32C101.414 165.698 101.29 166.062 101.1 166.392L99.7624 168.654C99.7237 168.738 99.6623 168.809 99.5853 168.86C99.5083 168.911 99.4186 168.939 99.3264 168.941ZM88.0411 161.333L99.1481 167.771L100.228 165.906C100.354 165.69 100.436 165.451 100.469 165.203C100.502 164.956 100.486 164.704 100.422 164.462C100.357 164.22 100.246 163.994 100.094 163.796C99.9412 163.597 99.7512 163.431 99.5345 163.307L91.7071 158.774C91.2707 158.522 90.7524 158.453 90.2657 158.584C89.7791 158.714 89.3639 159.032 89.1112 159.468L88.0411 161.333Z" fill="#231F20"/>
<path d="M138.146 129.322C138.146 129.322 120.589 131.356 116.121 133.479C111.652 135.601 96.7404 152.257 96.7404 152.257L103.567 158.813C103.567 158.813 115.13 147.574 118.34 146.116C121.55 144.658 134.807 147.555 134.807 147.555L138.146 129.322Z" fill="#1DBF73"/>
<path d="M158.091 130.681L167.752 146.831L178.235 133.459L183.734 139.53C183.734 139.53 174.489 157.703 170.031 157.613C160.341 157.425 147.41 144.519 147.41 144.519L158.091 130.681Z" fill="#1DBF73"/>
<path d="M99.5345 229.501C98.9995 222.875 95.9775 220.911 93.8076 221.635C91.6378 222.359 90.1515 222.567 90.7658 229.005C91.3801 235.443 94.8579 244.708 98.3654 243.884C101.873 243.061 100.06 236.107 99.5345 229.501Z" fill="#231F20"/>
<path d="M97.9096 244.42C97.2767 244.403 96.6657 244.184 96.1658 243.795C93.2924 241.732 90.7956 234.51 90.2804 229.055C89.676 222.785 91.0037 222.031 93.3915 221.248L93.6491 221.168C94.1558 221.004 94.6938 220.961 95.2202 221.042C95.7466 221.123 96.2468 221.326 96.681 221.635C98.5338 222.855 99.7228 225.603 100.02 229.461C100.139 230.86 100.307 232.288 100.466 233.667C101.11 238.994 101.665 243.587 98.4843 244.351C98.2957 244.394 98.1031 244.417 97.9096 244.42ZM94.6697 221.982C94.4302 221.982 94.1924 222.022 93.9662 222.101L93.6987 222.19C91.8359 222.795 90.7262 223.182 91.2613 228.965C91.7468 234.094 94.1247 241.107 96.7404 242.992C96.9463 243.166 97.1882 243.292 97.4488 243.36C97.7093 243.429 97.9818 243.439 98.2465 243.389C100.575 242.833 100.07 238.637 99.4949 233.776C99.3265 232.398 99.158 230.959 99.0391 229.541C98.6626 224.799 97.0575 223.063 96.146 222.458C95.7122 222.156 95.1981 221.99 94.6697 221.982Z" fill="#231F20"/>
<path d="M146.786 97.4107C142.121 96.2108 137.171 96.8949 133.004 99.3153C131.655 100.089 130.492 101.149 129.596 102.42C127.049 106.259 128.268 111.199 126.623 115.316C124.978 119.432 119.945 122.319 116.646 125.047C112.861 128.182 109.145 131.564 106.738 135.839C102.675 142.972 104.201 149.856 108.848 156.175C109.467 157.07 110.207 157.875 111.048 158.565C112.747 159.74 114.693 160.507 116.735 160.807C120.51 161.571 125.969 162.335 129.487 160.232C132.003 158.734 134.114 154.955 134.441 152.128C134.768 149.3 133.807 146.106 134.817 143.339C136.303 139.222 141.535 137.387 143.021 133.28C144.091 130.304 142.902 127.021 141.307 124.353C140.078 122.259 138.553 119.849 139.454 117.597C139.979 116.258 141.238 115.385 142.199 114.324C143.392 112.976 144.139 111.292 144.339 109.503C144.517 107.906 143.824 106.398 144.002 104.86C145.3 105.575 146.915 105.079 148.312 105.019C150.036 104.95 151.77 104.841 153.494 104.702C153.264 102.865 152.394 101.168 151.037 99.9105C149.833 98.7586 148.378 97.9028 146.786 97.4107Z" fill="white"/>
<path d="M123.334 162.107C121.054 162.065 118.783 161.796 116.557 161.303C114.42 160.997 112.384 160.195 110.612 158.962C109.736 158.245 108.962 157.411 108.313 156.482C103.082 149.34 102.368 142.317 106.173 135.651C108.65 131.296 112.465 127.824 116.23 124.739C116.993 124.105 117.845 123.47 118.736 122.756C121.58 120.623 124.81 118.212 126.058 115.157C126.682 113.371 127.039 111.502 127.119 109.612C127.356 107.063 127.604 104.444 129.1 102.172C130.039 100.838 131.256 99.7246 132.667 98.9087C136.95 96.411 142.043 95.6985 146.846 96.9247C148.49 97.4248 149.993 98.3048 151.235 99.4939C152.686 100.825 153.611 102.635 153.841 104.593C153.85 104.658 153.845 104.725 153.827 104.788C153.808 104.852 153.775 104.91 153.732 104.96C153.646 105.06 153.526 105.124 153.395 105.138C151.681 105.277 149.927 105.386 148.193 105.456C147.846 105.456 147.48 105.515 147.113 105.565C146.194 105.743 145.249 105.743 144.329 105.565C144.359 106.054 144.422 106.542 144.517 107.023C144.699 107.85 144.756 108.699 144.686 109.543C144.478 111.432 143.689 113.211 142.427 114.631C142.139 114.949 141.832 115.256 141.515 115.554C140.818 116.161 140.252 116.903 139.851 117.736C139.088 119.661 140.366 121.843 141.495 123.767L141.674 124.065C143.794 127.676 144.379 130.84 143.427 133.459C142.645 135.641 140.891 137.189 139.187 138.696C137.483 140.204 135.927 141.573 135.223 143.517C134.755 145.154 134.63 146.87 134.857 148.557C134.966 149.764 134.966 150.979 134.857 152.187C134.54 154.975 132.459 159.002 129.675 160.668C127.726 161.703 125.537 162.199 123.334 162.107ZM142.397 97.3017C139.184 97.2941 136.026 98.1358 133.242 99.7419C131.953 100.483 130.844 101.499 129.992 102.718C128.625 104.781 128.397 107.172 128.159 109.662C128.066 111.651 127.683 113.616 127.02 115.494C125.672 118.798 122.333 121.297 119.38 123.509C118.499 124.174 117.656 124.799 116.903 125.414C113.218 128.469 109.482 131.862 107.084 136.078C103.478 142.416 104.181 149.072 109.165 155.917C109.759 156.772 110.47 157.54 111.276 158.198C112.914 159.325 114.788 160.062 116.755 160.351C118.885 160.788 125.355 162.097 129.15 159.835C131.607 158.377 133.569 154.657 133.866 152.098C133.965 150.946 133.965 149.788 133.866 148.636C133.627 146.815 133.769 144.963 134.282 143.2C135.065 141.018 136.819 139.47 138.523 137.972C140.227 136.474 141.793 135.086 142.486 133.141C143.338 130.81 142.773 127.924 140.812 124.581L140.633 124.283C139.395 122.17 137.978 119.77 138.919 117.339C139.389 116.357 140.065 115.487 140.901 114.79C141.203 114.514 141.491 114.223 141.763 113.917C142.875 112.643 143.567 111.056 143.744 109.374C143.796 108.626 143.739 107.874 143.576 107.142C143.41 106.353 143.353 105.546 143.408 104.741C143.417 104.66 143.446 104.582 143.493 104.514C143.539 104.447 143.602 104.392 143.675 104.355C143.746 104.315 143.827 104.295 143.908 104.295C143.989 104.295 144.069 104.315 144.141 104.355C145.062 104.716 146.071 104.789 147.034 104.563C147.43 104.563 147.817 104.474 148.193 104.464C149.739 104.394 151.294 104.295 152.82 104.186C152.507 102.664 151.728 101.277 150.591 100.218C149.469 99.1404 148.112 98.3389 146.628 97.877C145.252 97.4824 143.828 97.2886 142.397 97.3017Z" fill="#231F20"/>
<path d="M146.122 110.475C146.074 109.791 145.833 109.134 145.429 108.58C145.182 108.111 144.869 107.679 144.497 107.301C144.308 107.113 144.078 106.971 143.826 106.883C143.574 106.796 143.306 106.765 143.041 106.795C142.812 106.846 142.597 106.944 142.407 107.082C142.218 107.22 142.059 107.396 141.941 107.598C141.715 108.01 141.583 108.468 141.555 108.937C141.469 109.96 141.654 110.987 142.09 111.915C142.527 112.843 143.2 113.64 144.042 114.225L143.903 114.066" fill="white"/>
<path d="M144.012 114.711C143.927 114.712 143.845 114.688 143.774 114.641C142.86 114.004 142.129 113.139 141.653 112.131C141.177 111.124 140.972 110.009 141.059 108.898C141.091 108.349 141.251 107.816 141.525 107.34C141.681 107.083 141.89 106.862 142.138 106.691C142.385 106.52 142.666 106.403 142.962 106.348C143.299 106.303 143.643 106.336 143.966 106.444C144.288 106.553 144.582 106.734 144.824 106.973C145.224 107.382 145.559 107.851 145.815 108.362C146.264 108.998 146.528 109.747 146.578 110.525C146.58 110.59 146.567 110.656 146.542 110.717C146.517 110.778 146.48 110.833 146.432 110.879C146.385 110.924 146.328 110.96 146.266 110.982C146.205 111.005 146.139 111.015 146.073 111.011C146.008 111.009 145.944 110.995 145.884 110.969C145.824 110.943 145.771 110.905 145.725 110.858C145.68 110.811 145.645 110.756 145.621 110.695C145.598 110.635 145.586 110.57 145.587 110.505C145.536 109.912 145.32 109.345 144.963 108.868C144.742 108.441 144.458 108.05 144.121 107.707C143.992 107.578 143.836 107.478 143.666 107.413C143.495 107.348 143.312 107.32 143.13 107.33C142.971 107.367 142.821 107.436 142.689 107.533C142.558 107.63 142.448 107.754 142.367 107.896C142.179 108.245 142.067 108.631 142.04 109.027C141.976 109.894 142.123 110.764 142.469 111.562C142.814 112.36 143.347 113.063 144.022 113.61C144.134 113.632 144.235 113.691 144.309 113.778L144.408 113.897C144.486 113.993 144.528 114.112 144.528 114.235C144.528 114.357 144.486 114.476 144.408 114.572C144.355 114.621 144.293 114.659 144.225 114.683C144.156 114.707 144.084 114.716 144.012 114.711Z" fill="#231F20"/>
<path d="M168.079 158.089H167.99C158.161 156.264 147.48 143.765 147.034 143.21C146.992 143.161 146.959 143.104 146.939 143.042C146.919 142.98 146.912 142.915 146.917 142.85C146.923 142.785 146.941 142.722 146.972 142.665C147.002 142.607 147.043 142.557 147.093 142.515C147.142 142.473 147.2 142.441 147.261 142.421C147.323 142.401 147.388 142.393 147.453 142.399C147.517 142.404 147.58 142.423 147.638 142.453C147.695 142.483 147.746 142.525 147.787 142.575C147.896 142.694 158.686 155.332 168.168 157.087C168.233 157.099 168.294 157.124 168.349 157.16C168.404 157.196 168.452 157.242 168.489 157.297C168.525 157.351 168.551 157.413 168.564 157.477C168.577 157.542 168.577 157.608 168.564 157.673C168.547 157.789 168.489 157.896 168.4 157.972C168.31 158.049 168.196 158.091 168.079 158.089Z" fill="#231F20"/>
<path d="M146.945 118.649L142.338 117.171C142.805 118.379 143.701 119.371 144.854 119.958C146.628 120.95 147.49 120.752 147.49 120.752L146.945 118.649Z" fill="#231F20"/>
<path d="M147.232 121.268C146.296 121.212 145.39 120.911 144.607 120.395C143.327 119.748 142.337 118.643 141.832 117.3C141.809 117.214 141.809 117.123 141.833 117.037C141.858 116.951 141.906 116.874 141.971 116.814C142.036 116.752 142.116 116.708 142.203 116.687C142.29 116.666 142.381 116.669 142.466 116.695L147.064 118.173C147.143 118.198 147.214 118.244 147.272 118.304C147.329 118.365 147.37 118.439 147.391 118.52L147.946 120.623C147.979 120.749 147.961 120.883 147.896 120.997C147.831 121.11 147.724 121.193 147.599 121.228C147.478 121.255 147.355 121.268 147.232 121.268ZM143.348 118.063C143.829 118.683 144.428 119.199 145.112 119.581C145.645 119.914 146.232 120.152 146.846 120.285L146.539 119.055L143.348 118.063Z" fill="#231F20"/>
<path d="M105.36 175.994H105.311L86.3468 174.427C86.274 174.422 86.2032 174.401 86.1397 174.365C86.0763 174.329 86.0217 174.279 85.9802 174.219L76.5972 160.718C76.5303 160.61 76.5073 160.48 76.533 160.356C76.5587 160.232 76.6312 160.122 76.7354 160.049C76.8396 159.977 76.9677 159.947 77.0931 159.966C77.2186 159.985 77.3319 160.052 77.4097 160.153L86.6539 173.465L105.4 175.002C105.531 175.002 105.657 175.055 105.75 175.148C105.843 175.241 105.895 175.367 105.895 175.498C105.895 175.63 105.843 175.756 105.75 175.849C105.657 175.942 105.531 175.994 105.4 175.994H105.36Z" fill="#D1D3D4"/>
<path d="M84.2066 263.01V283.216L100.486 294.028V274.189L84.2066 263.01Z" fill="white"/>
<path d="M100.486 294.534C100.389 294.534 100.296 294.502 100.218 294.445L83.9292 283.633C83.8613 283.587 83.8058 283.524 83.7677 283.452C83.7297 283.379 83.7103 283.298 83.7112 283.216V263C83.712 262.91 83.737 262.822 83.7837 262.746C83.8303 262.669 83.8968 262.606 83.9761 262.565C84.0554 262.523 84.1445 262.504 84.234 262.509C84.3234 262.514 84.4098 262.543 84.4841 262.593L100.773 273.802C100.837 273.849 100.888 273.911 100.924 273.981C100.961 274.052 100.98 274.13 100.981 274.209V294.048C100.98 294.137 100.956 294.224 100.911 294.301C100.866 294.378 100.801 294.441 100.723 294.485C100.65 294.521 100.568 294.538 100.486 294.534ZM84.702 282.948L99.9902 293.106V274.457L84.702 263.942V282.948Z" fill="#231F20"/>
<path d="M247.988 237.288C247.856 237.288 247.73 237.236 247.637 237.143C247.544 237.05 247.492 236.923 247.492 236.792V144.122C247.492 143.991 247.544 143.865 247.637 143.772C247.73 143.679 247.856 143.626 247.988 143.626C248.119 143.626 248.245 143.679 248.338 143.772C248.431 143.865 248.483 143.991 248.483 144.122V236.792C248.483 236.923 248.431 237.05 248.338 237.143C248.245 237.236 248.119 237.288 247.988 237.288Z" fill="#D1D3D4"/>
<path d="M213.171 250.213C213.04 250.211 212.916 250.158 212.823 250.065C212.731 249.973 212.678 249.848 212.675 249.717V191.687C212.678 191.556 212.731 191.432 212.823 191.339C212.916 191.247 213.04 191.194 213.171 191.191C213.302 191.191 213.428 191.243 213.521 191.336C213.614 191.43 213.666 191.556 213.666 191.687V249.717C213.666 249.849 213.614 249.975 213.521 250.068C213.428 250.161 213.302 250.213 213.171 250.213Z" fill="#D1D3D4"/>
<path d="M178.353 263.079C178.222 263.079 178.096 263.027 178.003 262.934C177.91 262.841 177.858 262.715 177.858 262.583V226.128C177.861 225.997 177.914 225.873 178.006 225.78C178.098 225.688 178.223 225.635 178.353 225.632C178.485 225.632 178.611 225.685 178.704 225.778C178.797 225.871 178.849 225.997 178.849 226.128V262.583C178.849 262.715 178.797 262.841 178.704 262.934C178.611 263.027 178.485 263.079 178.353 263.079Z" fill="#D1D3D4"/>
<path d="M143.536 275.955C143.405 275.955 143.279 275.902 143.186 275.809C143.093 275.716 143.041 275.59 143.041 275.459V252.911C143.043 252.781 143.096 252.656 143.189 252.563C143.281 252.471 143.406 252.418 143.536 252.415C143.668 252.415 143.794 252.468 143.887 252.561C143.98 252.654 144.032 252.78 144.032 252.911V275.459C144.032 275.59 143.98 275.716 143.887 275.809C143.794 275.902 143.668 275.955 143.536 275.955Z" fill="#D1D3D4"/>
<path d="M411.587 165.327C411.587 165.327 412.912 159.927 411.906 155.982L402.348 156.679C402.348 156.679 402.348 165.577 405.049 166.869C407.75 168.161 412.293 164.965 412.293 164.965" fill="white"/>
<path d="M406.52 167.618C405.944 167.63 405.373 167.509 404.851 167.265C402.021 165.895 401.909 157.618 401.909 156.679C401.906 156.568 401.947 156.46 402.023 156.378C402.098 156.296 402.202 156.247 402.313 156.24L411.88 155.542C411.984 155.532 412.088 155.56 412.172 155.622C412.257 155.684 412.315 155.776 412.336 155.878C413.119 158.945 412.542 162.769 412.207 164.535C412.306 164.517 412.408 164.533 412.497 164.581C412.586 164.629 412.656 164.706 412.696 164.799C412.736 164.891 412.743 164.995 412.717 165.092C412.69 165.19 412.632 165.275 412.551 165.336C412.387 165.447 409.23 167.618 406.52 167.618ZM402.795 157.067C402.855 159.72 403.363 165.534 405.238 166.438C406.959 167.299 409.772 165.93 411.174 165.12C411.321 164.457 412.301 159.952 411.561 156.43L402.795 157.067Z" fill="#231F20"/>
<path d="M385.012 218.487C381.571 223.242 369.14 249.081 368.305 250.287C367.152 251.958 363.496 252.457 361.99 253.586C360.201 254.929 358.962 257.599 358.085 259.615C357.716 260.321 357.533 261.109 357.551 261.906C357.563 262.31 357.708 262.699 357.966 263.011C358.223 263.323 358.576 263.541 358.971 263.629C359.336 263.622 359.696 263.542 360.03 263.394C360.363 263.246 360.664 263.033 360.915 262.767L364.468 259.804C364.821 260.614 364.382 261.527 364.038 262.319C363.694 263.112 363.487 264.197 364.141 264.774C364.389 264.975 364.686 265.105 365.002 265.153C367.023 265.567 369.097 264.421 370.404 262.836C371.712 261.251 373.433 260.493 374.155 258.53C375.016 256.273 378.853 252.552 379.962 250.407C380.737 248.917 377.949 247.901 378.99 246.557L385.873 237.712L394.631 226.403" fill="white"/>
<path d="M365.819 265.592C365.53 265.592 365.242 265.563 364.958 265.506C364.563 265.445 364.192 265.278 363.883 265.024C363.203 264.412 363.117 263.301 363.668 262.061L363.728 261.906C363.939 261.484 364.089 261.035 364.176 260.571L361.199 263.008C360.907 263.32 360.554 263.568 360.161 263.736C359.769 263.903 359.346 263.987 358.919 263.982C358.431 263.884 357.99 263.627 357.663 263.252C357.336 262.876 357.143 262.403 357.112 261.906C357.08 261.035 357.276 260.171 357.68 259.4C358.403 257.754 359.745 254.688 361.724 253.207C362.563 252.676 363.468 252.259 364.417 251.966C365.853 251.441 367.333 250.89 367.944 250.011C368.185 249.658 369.716 246.566 371.488 243.052C375.79 234.439 382.251 221.519 384.66 218.203C384.69 218.147 384.732 218.097 384.783 218.059C384.834 218.02 384.893 217.993 384.955 217.979C385.018 217.965 385.082 217.964 385.145 217.977C385.208 217.991 385.267 218.017 385.318 218.055C385.37 218.093 385.412 218.141 385.444 218.197C385.475 218.253 385.494 218.315 385.499 218.379C385.504 218.443 385.496 218.507 385.474 218.567C385.453 218.628 385.418 218.682 385.374 218.728C383.016 221.95 376.297 235.412 372.28 243.448C370.095 247.824 368.942 250.132 368.675 250.519C367.909 251.631 366.283 252.242 364.718 252.802C363.854 253.07 363.027 253.446 362.257 253.922C360.459 255.265 359.177 258.228 358.489 259.753C358.148 260.387 357.979 261.1 357.999 261.82C358.009 262.115 358.114 262.4 358.299 262.631C358.483 262.862 358.737 263.028 359.022 263.103C359.638 263.06 360.213 262.782 360.631 262.328L364.184 259.374C364.236 259.328 364.299 259.295 364.366 259.279C364.434 259.262 364.504 259.262 364.571 259.279C364.639 259.295 364.701 259.326 364.753 259.371C364.806 259.416 364.847 259.473 364.872 259.537C365.004 259.99 365.039 260.465 364.977 260.932C364.915 261.399 364.756 261.848 364.511 262.251L364.451 262.406C364.305 262.733 363.883 263.861 364.451 264.352C364.643 264.502 364.872 264.597 365.113 264.628C366.06 264.736 367.018 264.592 367.891 264.211C368.764 263.83 369.521 263.225 370.086 262.457C370.571 261.888 371.107 261.363 371.686 260.89C372.59 260.224 373.305 259.333 373.759 258.306C374.258 256.979 375.678 255.248 377.046 253.577C378.005 252.506 378.869 251.353 379.627 250.132C379.85 249.701 379.627 249.339 379.102 248.659C378.577 247.979 377.949 247.178 378.689 246.221L394.304 226.067C394.339 226.02 394.384 225.98 394.434 225.95C394.485 225.921 394.541 225.901 394.6 225.893C394.658 225.885 394.718 225.889 394.774 225.904C394.831 225.919 394.885 225.945 394.932 225.981C395.023 226.055 395.083 226.162 395.097 226.279C395.112 226.397 395.08 226.515 395.009 226.609L379.334 246.799C379.059 247.152 379.179 247.419 379.747 248.151C380.315 248.883 380.866 249.589 380.349 250.58C379.575 251.856 378.688 253.061 377.7 254.18C376.461 255.525 375.405 257.028 374.56 258.65C374.052 259.811 373.251 260.821 372.237 261.579C371.698 262.015 371.195 262.493 370.731 263.008C370.147 263.768 369.405 264.393 368.557 264.839C367.71 265.285 366.775 265.542 365.819 265.592Z" fill="#231F20"/>
<path d="M379.541 194.267C379.541 194.267 381.872 215.877 379.85 220.864C377.596 226.446 367.961 247.341 367.961 247.341L378.655 254.008C378.655 254.008 388.884 238.03 389.942 231.459C391 224.887 379.541 194.267 379.541 194.267Z" fill="#1DBF73"/>
<path d="M321.607 269.847C321.607 269.847 295.557 269.287 285.139 272.431L292.529 290.717C292.529 290.717 321.263 281.802 321.607 269.847Z" fill="#231F20"/>
<path d="M292.529 291.156C292.443 291.159 292.359 291.135 292.288 291.087C292.216 291.039 292.162 290.97 292.133 290.889L284.743 272.604C284.72 272.548 284.708 272.488 284.708 272.427C284.708 272.366 284.72 272.306 284.743 272.25C284.77 272.197 284.807 272.149 284.853 272.111C284.899 272.072 284.952 272.044 285.01 272.026C295.334 268.891 320.549 269.391 321.607 269.443C321.665 269.441 321.722 269.452 321.774 269.474C321.827 269.496 321.875 269.528 321.915 269.569C321.954 269.611 321.985 269.66 322.005 269.714C322.024 269.767 322.033 269.825 322.029 269.882C321.883 275.05 316.867 280.157 307.128 285.179C302.464 287.545 297.623 289.547 292.649 291.165C292.609 291.169 292.568 291.166 292.529 291.156ZM285.715 272.724L292.778 290.2C296.099 289.106 320.205 280.838 321.169 270.269C317.719 270.209 295.463 269.985 285.715 272.724Z" fill="#231F20"/>
<path d="M208.52 286.608C208.52 286.608 216.263 282.302 229.804 281.096L232.385 295.566L208.52 286.608Z" fill="#231F20"/>
<path d="M232.428 295.997C232.377 296.009 232.324 296.009 232.273 295.997L208.374 287.013C208.296 286.985 208.227 286.936 208.177 286.87C208.127 286.804 208.096 286.725 208.09 286.643C208.086 286.561 208.104 286.48 208.144 286.409C208.183 286.337 208.242 286.278 208.313 286.238C208.391 286.195 216.263 281.888 229.761 280.665C229.868 280.657 229.975 280.688 230.06 280.754C230.146 280.819 230.205 280.913 230.225 281.019L232.806 295.489C232.817 295.563 232.809 295.639 232.784 295.709C232.758 295.78 232.716 295.843 232.66 295.893C232.595 295.951 232.514 295.987 232.428 295.997ZM209.604 286.522L231.869 294.877L229.451 281.544C218.912 282.569 211.935 285.454 209.604 286.557V286.522Z" fill="#231F20"/>
<path d="M317.581 292.396L316.988 320.458C316.959 321.783 316.472 323.058 315.609 324.063C314.746 325.069 313.561 325.743 312.256 325.97L295.91 328.839C294.751 329.044 293.556 328.886 292.49 328.385C291.424 327.883 290.539 327.064 289.957 326.039L282.463 312.965L286.765 310.966L293.14 322.439C293.496 323.086 294.044 323.606 294.708 323.927C295.373 324.248 296.121 324.354 296.848 324.231L309.348 322.077C310.157 321.94 310.894 321.526 311.432 320.905C311.97 320.285 312.277 319.497 312.299 318.675L312.91 296.591L317.581 292.396Z" fill="#231F20"/>
<path d="M294.895 329.33C293.811 329.329 292.746 329.042 291.808 328.498C290.869 327.953 290.092 327.171 289.552 326.229L282.119 313.163C282.089 313.111 282.07 313.054 282.062 312.995C282.055 312.936 282.06 312.876 282.076 312.818C282.117 312.705 282.2 312.612 282.309 312.56L286.653 310.562C286.752 310.515 286.865 310.508 286.968 310.541C287.072 310.575 287.159 310.647 287.212 310.742L293.536 322.25C293.852 322.818 294.335 323.274 294.921 323.556C295.506 323.839 296.164 323.933 296.805 323.826L309.305 321.672C310.014 321.546 310.658 321.179 311.128 320.633C311.598 320.087 311.866 319.396 311.886 318.675L312.488 296.6C312.489 296.541 312.502 296.484 312.525 296.43C312.549 296.377 312.583 296.329 312.626 296.29L317.289 292.078C317.349 292.019 317.427 291.981 317.51 291.969C317.593 291.957 317.678 291.971 317.753 292.009C317.83 292.042 317.895 292.097 317.94 292.168C317.984 292.239 318.006 292.322 318.003 292.405L317.392 320.467C317.358 321.891 316.832 323.26 315.903 324.341C314.975 325.421 313.701 326.146 312.299 326.392L295.953 329.261C295.603 329.318 295.249 329.341 294.895 329.33ZM283.066 313.145L290.292 325.824C290.836 326.769 291.656 327.524 292.643 327.986C293.629 328.448 294.734 328.596 295.807 328.408L312.153 325.54C313.36 325.327 314.456 324.701 315.255 323.77C316.053 322.839 316.505 321.659 316.532 320.432L317.1 293.37L313.314 296.815L312.703 318.71C312.677 319.63 312.334 320.512 311.732 321.208C311.129 321.903 310.306 322.368 309.4 322.525L296.899 324.678C296.083 324.818 295.244 324.699 294.498 324.34C293.752 323.98 293.136 323.397 292.736 322.672L286.602 311.518L283.066 313.145Z" fill="#231F20"/>
<path d="M238.243 344.463L369.432 260.424C369.921 260.039 370.237 259.476 370.312 258.857C370.386 258.239 370.212 257.616 369.828 257.126C369.638 256.884 369.403 256.681 369.135 256.53C368.867 256.379 368.572 256.283 368.267 256.246C367.961 256.209 367.652 256.233 367.356 256.316C367.06 256.399 366.783 256.539 366.542 256.729L235.318 340.768C234.829 341.153 234.513 341.717 234.439 342.335C234.365 342.954 234.539 343.576 234.923 344.067C235.113 344.313 235.351 344.518 235.622 344.672C235.893 344.825 236.191 344.923 236.5 344.96C236.809 344.997 237.123 344.972 237.422 344.887C237.721 344.801 238 344.657 238.243 344.463Z" fill="white"/>
<path d="M236.772 345.402C236.192 345.405 235.625 345.226 235.151 344.89C234.678 344.554 234.321 344.079 234.131 343.529C233.941 342.98 233.928 342.385 234.093 341.828C234.258 341.271 234.593 340.78 235.052 340.423L366.309 256.325C366.599 256.098 366.93 255.932 367.285 255.834C367.639 255.736 368.009 255.708 368.373 255.754C368.738 255.799 369.09 255.915 369.41 256.097C369.73 256.278 370.011 256.521 370.236 256.811C370.462 257.101 370.629 257.433 370.727 257.788C370.825 258.142 370.852 258.513 370.807 258.878C370.762 259.243 370.645 259.596 370.464 259.916C370.283 260.236 370.04 260.517 369.75 260.743L238.467 344.833C237.981 345.206 237.385 345.405 236.772 345.402ZM367.978 256.686C367.554 256.686 367.142 256.829 366.808 257.091L235.559 341.147C235.173 341.461 234.926 341.915 234.873 342.41C234.819 342.906 234.964 343.402 235.275 343.791C235.588 344.185 236.044 344.439 236.543 344.499C237.043 344.559 237.545 344.419 237.942 344.11L369.157 260.046C369.541 259.729 369.787 259.274 369.842 258.779C369.896 258.283 369.756 257.786 369.449 257.393C369.133 256.999 368.677 256.742 368.176 256.678L367.978 256.686Z" fill="#231F20"/>
<path d="M336.043 293.525L335.458 321.578C335.429 322.904 334.941 324.179 334.079 325.185C333.216 326.192 332.031 326.868 330.727 327.099L314.381 329.967C313.221 330.169 312.026 330.008 310.961 329.506C309.895 329.003 309.01 328.184 308.428 327.159L300.969 314.076L305.27 312.069L311.593 323.576C311.949 324.226 312.498 324.748 313.165 325.069C313.831 325.39 314.581 325.495 315.31 325.368L327.81 323.223C328.626 323.083 329.367 322.662 329.906 322.033C330.445 321.404 330.747 320.606 330.761 319.778L331.372 297.702L336.043 293.525Z" fill="white"/>
<path d="M313.366 330.501C312.278 330.501 311.21 330.213 310.268 329.668C309.327 329.122 308.547 328.336 308.006 327.392L300.547 314.3C300.515 314.247 300.495 314.188 300.487 314.127C300.48 314.065 300.486 314.003 300.505 313.944C300.523 313.885 300.555 313.831 300.596 313.786C300.638 313.74 300.688 313.704 300.745 313.679L305.047 311.673C305.149 311.628 305.265 311.623 305.371 311.657C305.477 311.692 305.567 311.765 305.623 311.862L311.955 323.369C312.264 323.937 312.743 324.394 313.325 324.675C313.907 324.957 314.562 325.048 315.198 324.937L327.716 322.792C328.422 322.668 329.065 322.304 329.535 321.761C330.005 321.218 330.274 320.53 330.297 319.812L330.907 297.728C330.908 297.668 330.922 297.608 330.947 297.553C330.972 297.498 331.008 297.449 331.054 297.409L335.717 293.197C335.781 293.139 335.86 293.101 335.946 293.087C336.032 293.073 336.119 293.085 336.198 293.12C336.275 293.159 336.339 293.218 336.385 293.291C336.43 293.364 336.455 293.448 336.456 293.533L335.897 321.578C335.865 323.007 335.34 324.382 334.409 325.467C333.479 326.552 332.202 327.281 330.796 327.529L314.45 330.398C314.092 330.463 313.729 330.498 313.366 330.501ZM301.554 314.282L308.78 326.952C309.318 327.896 310.134 328.651 311.117 329.113C312.099 329.576 313.2 329.723 314.269 329.536L330.615 326.668C331.817 326.454 332.908 325.83 333.703 324.902C334.498 323.974 334.948 322.8 334.977 321.578L335.545 294.55L331.785 297.943L331.183 319.838C331.155 320.762 330.809 321.648 330.204 322.346C329.599 323.045 328.772 323.512 327.862 323.671L315.362 325.815C314.542 325.955 313.699 325.836 312.95 325.475C312.201 325.114 311.583 324.528 311.181 323.8L305.055 312.655L301.554 314.282Z" fill="#231F20"/>
<path d="M225.881 283.077H226.07C227.24 280.286 228.539 276.471 230.939 274.464C232.763 272.948 235.972 272.853 237.185 274.903C237.87 273.336 238.865 271.923 240.11 270.752C241.435 269.675 243.397 269.201 244.859 270.08C243.999 269.546 248.3 266.092 248.765 265.885C250.575 265.173 252.55 264.991 254.46 265.36C254.133 261.76 262.108 258.245 264.904 257.1C269.731 255.136 278.136 254.12 280.751 259.744C282.222 258.754 283.762 257.513 285.595 257.203C287.427 256.893 289.656 257.849 290.051 259.692C293.243 258.831 293.561 259.873 295.136 261.828C295.996 262.888 298.629 262.449 299.936 263.034C300.844 263.43 301.621 264.074 302.179 264.892C302.738 265.71 303.055 266.669 303.094 267.66C304.605 267.227 306.207 267.218 307.723 267.632C309.24 268.047 310.614 268.869 311.697 270.011C316.179 274.61 315.8 281.802 313.099 287.091C309.58 293.981 303.378 300.252 296.856 304.36C288.898 309.364 279.71 312.112 270.445 313.68C260.852 315.29 250.838 315.652 241.538 312.818C235.396 310.983 229.844 307.561 225.442 302.896C223.274 300.536 221.003 298.477 218.929 296.247C218.046 295.252 217.449 294.036 217.204 292.728C216.958 291.42 217.073 290.07 217.536 288.822C218.792 285.454 222.328 283.353 225.881 283.077Z" fill="white"/>
<path d="M256.714 315.333C251.52 315.39 246.347 314.667 241.366 313.188C235.15 311.339 229.534 307.874 225.089 303.146C223.962 301.923 222.801 300.768 221.648 299.7C220.495 298.632 219.549 297.616 218.542 296.539C217.603 295.486 216.969 294.197 216.708 292.809C216.447 291.422 216.57 289.99 217.063 288.667C218.327 285.42 221.812 283.034 225.743 282.698C225.872 282.388 226.01 282.061 226.139 281.733C227.24 279.029 228.488 275.963 230.638 274.171C231.234 273.686 231.925 273.333 232.666 273.134C233.407 272.935 234.182 272.895 234.94 273.017C235.762 273.145 236.52 273.538 237.099 274.137C237.753 272.742 238.677 271.492 239.818 270.459C240.441 269.924 241.186 269.551 241.987 269.373C242.789 269.196 243.622 269.22 244.412 269.442C245.083 268.047 248.292 265.653 248.567 265.532C250.289 264.819 252.176 264.604 254.013 264.912C254.34 261.467 260.784 258.34 264.724 256.738C269.688 254.723 277.938 253.767 280.898 259.15L281.139 258.977C282.415 257.938 283.909 257.199 285.509 256.816C287.393 256.497 289.664 257.384 290.335 259.21C292.968 258.581 293.716 259.365 294.964 260.933C295.119 261.122 295.273 261.337 295.454 261.553C295.85 262.044 296.899 262.139 297.906 262.225C298.651 262.253 299.387 262.392 300.091 262.638C300.988 263.031 301.77 263.648 302.361 264.428C302.953 265.209 303.336 266.129 303.472 267.1C304.988 266.776 306.561 266.843 308.043 267.295C309.525 267.747 310.869 268.569 311.946 269.684C316.678 274.541 316.102 282.009 313.426 287.254C310.071 293.826 303.963 300.346 297.028 304.696C289.862 309.209 281.164 312.275 270.453 314.076C265.916 314.875 261.321 315.295 256.714 315.333ZM234.114 273.766C233.059 273.766 232.036 274.128 231.215 274.791C229.227 276.445 228.023 279.408 226.965 282.009C226.793 282.431 226.629 282.87 226.466 283.232C226.433 283.307 226.38 283.371 226.314 283.418C226.247 283.465 226.169 283.493 226.087 283.499H225.915C222.276 283.783 219.033 285.962 217.889 288.925C217.455 290.098 217.348 291.367 217.58 292.596C217.812 293.825 218.374 294.968 219.205 295.902C220.194 296.961 221.209 297.969 222.276 299.037C223.343 300.105 224.582 301.32 225.717 302.551C230.058 307.174 235.548 310.56 241.624 312.362C249.686 314.851 259.08 315.135 270.333 313.223C280.923 311.44 289.518 308.408 296.59 303.955C303.378 299.649 309.391 293.292 312.678 286.858C315.207 281.888 315.783 274.8 311.344 270.278C310.323 269.198 309.027 268.419 307.595 268.024C306.164 267.63 304.652 267.635 303.223 268.038C303.158 268.059 303.089 268.063 303.022 268.053C302.955 268.043 302.891 268.017 302.836 267.978C302.783 267.935 302.74 267.882 302.71 267.821C302.681 267.76 302.665 267.693 302.664 267.625C302.622 266.719 302.327 265.842 301.813 265.095C301.299 264.347 300.587 263.759 299.756 263.396C299.139 263.188 298.496 263.072 297.846 263.052C296.659 262.948 295.428 262.828 294.809 262.061C294.62 261.837 294.456 261.622 294.301 261.424C293.148 259.942 292.718 259.382 290.163 260.08C290.049 260.106 289.929 260.087 289.828 260.028C289.778 259.998 289.734 259.958 289.7 259.911C289.666 259.863 289.642 259.81 289.63 259.753C289.286 258.142 287.273 257.324 285.664 257.591C284.195 257.969 282.825 258.659 281.646 259.615L280.992 260.071C280.941 260.105 280.883 260.127 280.822 260.136C280.761 260.145 280.699 260.141 280.64 260.123C280.579 260.108 280.523 260.079 280.475 260.038C280.428 259.998 280.39 259.948 280.364 259.89C279.057 257.083 273.748 253.93 265.068 257.47C258.495 260.14 254.684 263.069 254.89 265.282C254.895 265.347 254.886 265.412 254.864 265.473C254.842 265.534 254.807 265.589 254.761 265.635C254.714 265.679 254.658 265.711 254.597 265.73C254.537 265.75 254.472 265.756 254.409 265.747C252.578 265.392 250.684 265.563 248.946 266.238C248.395 266.514 245.427 269.02 245.178 269.761C245.245 269.838 245.282 269.937 245.284 270.039C245.285 270.141 245.25 270.241 245.185 270.319C245.12 270.398 245.029 270.451 244.928 270.469C244.827 270.486 244.724 270.468 244.636 270.416C243.259 269.554 241.47 270.166 240.386 271.053C239.187 272.189 238.228 273.554 237.564 275.067C237.53 275.136 237.477 275.195 237.412 275.236C237.347 275.277 237.271 275.299 237.194 275.299C237.117 275.3 237.042 275.281 236.974 275.245C236.907 275.209 236.849 275.156 236.807 275.093C236.591 274.743 236.299 274.445 235.954 274.221C235.609 273.998 235.218 273.854 234.811 273.801C234.58 273.768 234.347 273.756 234.114 273.766Z" fill="#D1D3D4"/>
<path d="M312.686 305.471C312.686 305.471 320.429 284.576 319.336 275.549C319.336 275.549 308.376 288.719 269.679 294.61C235.989 299.778 210.679 288.719 210.679 288.719C210.679 288.719 237.521 323.386 258.555 332.249L312.686 305.471Z" fill="white"/>
<path d="M258.555 332.689C258.499 332.702 258.44 332.702 258.383 332.689C237.486 323.886 210.593 289.373 210.326 289.02C210.27 288.942 210.24 288.847 210.241 288.75C210.242 288.653 210.275 288.56 210.334 288.483C210.393 288.406 210.476 288.351 210.569 288.325C210.662 288.299 210.761 288.304 210.851 288.34C211.109 288.452 236.454 299.261 269.61 294.205C307.645 288.417 318.889 275.429 319.001 275.256C319.057 275.191 319.131 275.143 319.214 275.118C319.297 275.094 319.385 275.094 319.467 275.119C319.55 275.143 319.624 275.191 319.68 275.257C319.736 275.323 319.772 275.403 319.784 275.489C320.911 284.515 313.417 304.774 313.099 305.635C313.056 305.739 312.976 305.825 312.875 305.876L258.745 332.654C258.685 332.679 258.62 332.691 258.555 332.689ZM212.047 289.709C217.14 296.048 240.179 323.877 258.504 331.733L312.29 305.127C312.987 303.215 319.414 285.316 318.949 276.548C316.007 279.442 303.343 289.899 269.705 295.023C241.005 299.433 218.078 291.974 212.047 289.709Z" fill="#231F20"/>
<path d="M238.889 355.41C246.149 355.41 252.034 349.518 252.034 342.249C252.034 334.981 246.149 329.088 238.889 329.088C231.629 329.088 225.743 334.981 225.743 342.249C225.743 349.518 231.629 355.41 238.889 355.41Z" fill="#231F20"/>
<path d="M238.889 355.841C236.204 355.841 233.579 355.044 231.346 353.55C229.114 352.057 227.374 349.934 226.346 347.45C225.319 344.967 225.05 342.234 225.574 339.598C226.098 336.961 227.391 334.539 229.289 332.639C231.188 330.738 233.607 329.443 236.24 328.919C238.874 328.394 241.603 328.664 244.084 329.692C246.564 330.721 248.685 332.463 250.176 334.698C251.668 336.933 252.464 339.561 252.464 342.249C252.46 345.853 251.028 349.307 248.483 351.855C245.938 354.403 242.488 355.836 238.889 355.841ZM238.889 329.519C236.374 329.519 233.915 330.266 231.824 331.664C229.733 333.063 228.104 335.051 227.141 337.378C226.179 339.704 225.927 342.263 226.418 344.733C226.908 347.202 228.119 349.47 229.897 351.251C231.676 353.031 233.941 354.244 236.408 354.735C238.874 355.226 241.431 354.974 243.755 354.01C246.078 353.047 248.064 351.415 249.461 349.322C250.858 347.228 251.604 344.767 251.604 342.249C251.599 338.874 250.258 335.639 247.875 333.253C245.491 330.866 242.26 329.524 238.889 329.519Z" fill="#231F20"/>
<path d="M238.889 350.862C243.64 350.862 247.492 347.006 247.492 342.249C247.492 337.492 243.64 333.636 238.889 333.636C234.137 333.636 230.286 337.492 230.286 342.249C230.286 347.006 234.137 350.862 238.889 350.862Z" fill="white"/>
<path d="M238.889 351.302C237.1 351.302 235.352 350.771 233.865 349.776C232.378 348.781 231.219 347.368 230.535 345.714C229.851 344.059 229.672 342.239 230.021 340.483C230.369 338.727 231.231 337.114 232.495 335.848C233.76 334.582 235.371 333.72 237.125 333.371C238.879 333.021 240.697 333.201 242.349 333.886C244.001 334.571 245.413 335.731 246.407 337.22C247.4 338.709 247.931 340.459 247.931 342.249C247.928 344.649 246.975 346.951 245.28 348.648C243.585 350.345 241.286 351.299 238.889 351.302ZM238.889 334.075C237.276 334.075 235.7 334.554 234.359 335.451C233.018 336.348 231.972 337.622 231.355 339.114C230.737 340.605 230.575 342.247 230.889 343.83C231.203 345.414 231.979 346.869 233.119 348.011C234.258 349.154 235.711 349.932 237.292 350.248C238.874 350.564 240.513 350.404 242.004 349.787C243.494 349.17 244.769 348.125 245.666 346.783C246.563 345.442 247.043 343.864 247.045 342.249C247.042 340.084 246.182 338.009 244.653 336.478C243.124 334.947 241.051 334.086 238.889 334.084V334.075Z" fill="#231F20"/>
<path d="M426.557 237.824L425.791 290.364L447.772 316.591L442.997 327.435C442.997 327.435 408.826 307.719 403.019 299.606C397.212 291.492 396.343 271.932 396.343 271.932L377.218 291.148L369.871 328.236L355.246 327.435C355.246 327.435 357.104 301.449 357.104 290.088C357.104 278.727 386.01 239.65 386.01 239.65L426.557 237.824Z" fill="#231F20"/>
<path d="M369.871 328.666L355.246 327.865C355.133 327.856 355.028 327.804 354.953 327.719C354.915 327.677 354.885 327.629 354.866 327.575C354.847 327.522 354.838 327.465 354.841 327.409C354.841 327.15 356.7 301.311 356.7 290.088C356.7 278.71 384.505 240.993 385.692 239.391C385.729 239.341 385.777 239.299 385.832 239.269C385.887 239.239 385.948 239.222 386.01 239.219L426.522 237.393C426.581 237.389 426.64 237.397 426.695 237.418C426.75 237.439 426.8 237.472 426.841 237.514C426.882 237.555 426.915 237.605 426.938 237.66C426.96 237.715 426.971 237.773 426.97 237.832L426.204 290.2L448.082 316.298C448.136 316.357 448.172 316.431 448.185 316.511C448.197 316.591 448.185 316.673 448.151 316.746L443.384 327.607C443.362 327.663 443.328 327.713 443.283 327.754C443.238 327.794 443.184 327.824 443.126 327.84C443.072 327.863 443.013 327.875 442.954 327.875C442.895 327.875 442.837 327.863 442.782 327.84C441.38 327.03 408.473 308.029 402.666 299.89C397.504 292.698 396.222 277.039 395.964 272.948L377.614 291.354L370.293 328.322C370.274 328.42 370.222 328.508 370.145 328.571C370.068 328.634 369.971 328.668 369.871 328.666ZM355.736 327.03L369.501 327.788L376.779 291.061C376.794 290.977 376.833 290.899 376.891 290.837L396.033 271.622C396.093 271.563 396.169 271.523 396.251 271.506C396.334 271.489 396.419 271.496 396.498 271.527C396.574 271.557 396.64 271.609 396.688 271.676C396.735 271.744 396.762 271.824 396.764 271.906C396.764 272.095 397.693 291.423 403.363 299.347C408.714 306.815 438.894 324.541 442.799 326.815L447.273 316.634L425.464 290.622C425.398 290.542 425.361 290.442 425.361 290.338L426.127 238.263L386.277 240.063C384.238 242.837 357.577 279.348 357.577 290.08C357.577 300.536 355.986 323.576 355.745 327.03H355.736Z" fill="#231F20"/>
<path d="M425.55 182.467C413.979 176.627 384.212 175.034 379.85 183.923C376.409 190.985 386.879 228.203 386.879 228.203L423.701 235.817C423.701 235.817 431.323 185.378 425.55 182.467Z" fill="#1DBF73"/>
<path d="M382.294 246.523L385.838 210.02L427.572 212.785L426.479 243.026L382.294 246.523Z" fill="#231F20"/>
<path d="M382.294 246.954C382.237 246.954 382.181 246.943 382.13 246.921C382.078 246.899 382.031 246.866 381.993 246.824C381.948 246.78 381.914 246.725 381.893 246.666C381.873 246.606 381.865 246.543 381.872 246.48L385.408 209.977C385.412 209.922 385.428 209.868 385.453 209.818C385.478 209.769 385.513 209.725 385.556 209.689C385.598 209.653 385.647 209.625 385.7 209.608C385.753 209.591 385.809 209.585 385.864 209.59L427.598 212.355C427.709 212.361 427.813 212.411 427.888 212.493C427.964 212.575 428.005 212.683 428.002 212.794L426.909 243.043C426.904 243.148 426.861 243.247 426.788 243.323C426.716 243.399 426.618 243.446 426.514 243.457L382.328 246.954H382.294ZM386.217 210.468L382.776 246.049L426.066 242.604L427.133 213.156L386.217 210.468Z" fill="#231F20"/>
<path d="M398.571 176.653L399.362 184.405C399.362 184.405 401.195 188.548 405.995 186.472C407.374 185.875 408.56 184.907 409.421 183.675C410.282 182.443 410.785 180.997 410.873 179.496L409.342 165.551C409.342 165.551 405.29 164.207 404.997 155.947C404.997 155.947 400.18 155.947 392.575 156.3C392.575 156.3 391.525 169.143 392.798 172.924C394.071 176.705 398.571 176.653 398.571 176.653Z" fill="white"/>
<path d="M403.466 187.532C402.521 187.507 401.601 187.224 400.806 186.712C400.011 186.2 399.372 185.48 398.958 184.629C398.954 184.583 398.954 184.537 398.958 184.491L398.201 177.084C397.005 176.998 393.529 176.446 392.411 173.113C391.129 169.289 392.118 156.843 392.162 156.309C392.172 156.201 392.221 156.1 392.3 156.025C392.38 155.951 392.483 155.908 392.592 155.904C400.119 155.577 404.98 155.551 405.032 155.551C405.148 155.551 405.259 155.596 405.342 155.676C405.426 155.756 405.475 155.866 405.479 155.982C405.754 163.837 409.48 165.163 409.523 165.172C409.603 165.2 409.674 165.251 409.728 165.318C409.781 165.385 409.814 165.466 409.824 165.551L411.321 179.461C411.23 181.058 410.7 182.598 409.789 183.911C408.878 185.225 407.621 186.26 406.159 186.903C405.313 187.293 404.397 187.507 403.466 187.532ZM399.801 184.319C400.042 184.81 401.745 187.859 405.823 186.102C407.127 185.542 408.249 184.63 409.063 183.468C409.878 182.305 410.353 180.939 410.435 179.521L408.929 165.895C407.983 165.43 404.937 163.406 404.576 156.421C403.26 156.421 399.018 156.498 392.987 156.757C392.824 158.927 392.127 169.522 393.22 172.812C394.312 176.102 398.382 176.205 398.562 176.197C398.674 176.198 398.782 176.239 398.866 176.314C398.95 176.388 399.004 176.49 399.018 176.602L399.801 184.319Z" fill="#231F20"/>
<path d="M407.854 165.844C407.906 165.127 408.19 164.447 408.662 163.906C409.832 162.571 412.284 161.641 413.394 163.51C415.166 166.498 411.983 170.348 408.757 169.539" fill="white"/>
<path d="M409.643 170.09C409.309 170.089 408.977 170.046 408.654 169.961C408.597 169.948 408.543 169.923 408.496 169.889C408.449 169.855 408.409 169.812 408.378 169.762C408.348 169.713 408.328 169.657 408.319 169.6C408.31 169.542 408.313 169.483 408.327 169.427C408.341 169.37 408.366 169.316 408.401 169.268C408.436 169.221 408.48 169.181 408.53 169.151C408.58 169.12 408.636 169.1 408.694 169.091C408.752 169.083 408.812 169.085 408.869 169.099C409.584 169.248 410.328 169.182 411.006 168.909C411.684 168.637 412.266 168.169 412.68 167.566C413.118 167.039 413.385 166.39 413.445 165.707C413.505 165.023 413.355 164.338 413.015 163.742C412.891 163.504 412.71 163.301 412.488 163.15C412.265 163 412.009 162.907 411.742 162.881C411.219 162.887 410.703 163.006 410.23 163.228C409.756 163.451 409.336 163.773 408.998 164.173C408.588 164.642 408.34 165.231 408.292 165.852C408.289 165.911 408.274 165.968 408.248 166.021C408.223 166.073 408.187 166.12 408.143 166.159C408.099 166.197 408.047 166.227 407.992 166.245C407.936 166.263 407.877 166.27 407.819 166.266C407.702 166.257 407.593 166.202 407.516 166.114C407.438 166.025 407.399 165.909 407.406 165.792C407.469 164.977 407.791 164.204 408.327 163.587C408.756 163.079 409.293 162.672 409.898 162.398C410.504 162.124 411.164 161.989 411.828 162.002C412.229 162.041 412.614 162.178 412.949 162.402C413.284 162.626 413.558 162.93 413.747 163.286C414.172 164.034 414.362 164.893 414.295 165.751C414.228 166.609 413.905 167.428 413.368 168.1C412.943 168.697 412.385 169.187 411.739 169.532C411.092 169.878 410.375 170.068 409.643 170.09Z" fill="#231F20"/>
<path d="M398.949 180.383C400.609 179.932 402.091 178.985 403.199 177.67C403.66 177.178 403.983 176.574 404.134 175.917C404.285 175.26 404.259 174.575 404.06 173.931C403.393 174.761 402.553 175.435 401.599 175.905C400.645 176.375 399.6 176.631 398.536 176.653L398.949 180.383Z" fill="#231F20"/>
<path d="M398.949 180.813C398.859 180.815 398.77 180.784 398.7 180.727C398.651 180.692 398.611 180.647 398.581 180.595C398.552 180.543 398.533 180.485 398.528 180.426L398.149 176.696C398.143 176.636 398.15 176.574 398.169 176.516C398.189 176.458 398.22 176.405 398.262 176.36C398.303 176.315 398.354 176.28 398.41 176.256C398.466 176.233 398.527 176.221 398.588 176.223H398.743C399.713 176.167 400.66 175.908 401.524 175.463C402.388 175.018 403.149 174.396 403.758 173.639C403.803 173.578 403.864 173.53 403.934 173.501C404.003 173.473 404.08 173.463 404.154 173.475C404.231 173.486 404.303 173.518 404.363 173.566C404.424 173.615 404.47 173.678 404.498 173.751C404.724 174.47 404.752 175.236 404.579 175.97C404.407 176.703 404.04 177.377 403.518 177.919C402.35 179.306 400.786 180.302 399.035 180.77L398.949 180.813ZM399.044 177.075L399.328 179.831C400.698 179.327 401.92 178.486 402.881 177.385C403.2 177.05 403.448 176.654 403.611 176.22C403.773 175.786 403.847 175.324 403.827 174.862C402.555 176.157 400.854 176.944 399.044 177.075Z" fill="#231F20"/>
<path d="M397.237 170.245C396.83 170.269 396.428 170.147 396.102 169.901C395.293 169.229 396.351 166.576 397.375 164.483C397.425 164.38 397.514 164.301 397.622 164.264C397.73 164.227 397.849 164.234 397.951 164.285C398.054 164.335 398.133 164.424 398.17 164.532C398.207 164.64 398.2 164.759 398.149 164.862C397.186 166.834 396.498 168.893 396.678 169.272C397.005 169.539 398.046 169.272 398.631 169.082C398.683 169.06 398.739 169.048 398.795 169.048C398.852 169.047 398.908 169.058 398.96 169.08C399.012 169.102 399.059 169.134 399.099 169.174C399.138 169.214 399.17 169.262 399.19 169.315C399.233 169.42 399.233 169.538 399.189 169.643C399.146 169.747 399.063 169.831 398.958 169.875C398.41 170.096 397.828 170.221 397.237 170.245Z" fill="#231F20"/>
<path d="M393.951 164.431C394.217 164.431 394.433 163.872 394.433 163.182C394.433 162.492 394.217 161.933 393.951 161.933C393.685 161.933 393.469 162.492 393.469 163.182C393.469 163.872 393.685 164.431 393.951 164.431Z" fill="#231F20"/>
<path d="M401.522 164.431C401.788 164.431 402.003 163.872 402.003 163.182C402.003 162.492 401.788 161.933 401.522 161.933C401.256 161.933 401.04 162.492 401.04 163.182C401.04 163.872 401.256 164.431 401.522 164.431Z" fill="#231F20"/>
<path d="M398.881 173.208C397.873 173.212 396.882 172.96 395.999 172.476C395.951 172.446 395.909 172.407 395.876 172.361C395.843 172.315 395.82 172.262 395.807 172.207C395.794 172.152 395.792 172.095 395.801 172.039C395.811 171.983 395.831 171.93 395.861 171.882C395.891 171.833 395.93 171.792 395.976 171.759C396.022 171.726 396.074 171.702 396.129 171.69C396.184 171.677 396.241 171.675 396.297 171.684C396.353 171.694 396.407 171.714 396.455 171.744C397.341 172.226 398.352 172.431 399.356 172.333C400.361 172.235 401.313 171.838 402.09 171.192C402.134 171.157 402.186 171.132 402.241 171.117C402.295 171.102 402.353 171.099 402.409 171.107C402.465 171.115 402.519 171.134 402.568 171.164C402.616 171.193 402.659 171.232 402.692 171.279C402.761 171.369 402.792 171.483 402.777 171.596C402.763 171.709 402.704 171.812 402.614 171.882C401.555 172.733 400.239 173.2 398.881 173.208Z" fill="#231F20"/>
<path d="M239.697 344.506L440.253 244.387C440.797 244.084 441.198 243.577 441.369 242.978C441.54 242.379 441.467 241.736 441.165 241.191C440.861 240.649 440.355 240.248 439.757 240.077C439.159 239.906 438.518 239.978 437.973 240.278L237.383 340.406C236.846 340.716 236.454 341.227 236.293 341.826C236.132 342.425 236.214 343.063 236.523 343.602C236.825 344.142 237.329 344.54 237.924 344.71C238.519 344.879 239.156 344.806 239.697 344.506Z" fill="white"/>
<path d="M238.562 345.247C237.944 345.247 237.344 345.042 236.856 344.665C236.367 344.287 236.018 343.757 235.862 343.159C235.707 342.561 235.754 341.928 235.996 341.36C236.239 340.791 236.663 340.319 237.202 340.019L437.775 239.882C438.422 239.53 439.181 239.447 439.888 239.652C440.595 239.857 441.193 240.333 441.552 240.976C441.73 241.296 441.844 241.648 441.887 242.012C441.93 242.377 441.9 242.746 441.8 243.098C441.7 243.451 441.532 243.781 441.305 244.068C441.078 244.356 440.796 244.596 440.476 244.774L239.904 344.902C239.493 345.129 239.031 345.247 238.562 345.247ZM439.117 240.433C438.794 240.432 438.477 240.515 438.197 240.675L237.615 340.802C237.185 341.055 236.87 341.466 236.74 341.948C236.61 342.431 236.674 342.945 236.919 343.38C237.164 343.815 237.57 344.137 238.05 344.275C238.529 344.413 239.044 344.357 239.482 344.118L440.055 243.982C440.371 243.794 440.626 243.518 440.788 243.188C440.951 242.858 441.013 242.487 440.969 242.121C440.924 241.756 440.774 241.411 440.537 241.13C440.299 240.849 439.986 240.642 439.633 240.537C439.467 240.477 439.293 240.442 439.117 240.433Z" fill="#231F20"/>
<path d="M432.243 232.458L413.317 254.55C413.317 254.55 414.719 261.062 413.42 261.682C412.121 262.302 405.419 264.49 404.386 262.767C403.759 261.56 403.519 260.189 403.698 258.84L401.978 258.71C401.978 258.71 401.315 255.937 402.657 254.292C403.999 252.647 422.186 228.272 422.186 228.272" fill="white"/>
<path d="M406.305 263.87C405.238 263.87 404.378 263.637 404.008 263.008C403.386 261.86 403.108 260.556 403.208 259.253L401.917 259.167C401.824 259.159 401.735 259.121 401.664 259.059C401.593 258.997 401.543 258.914 401.522 258.822C401.522 258.702 400.816 255.816 402.296 254.016C403.621 252.397 421.627 228.263 421.808 228.013C421.882 227.93 421.985 227.877 422.097 227.866C422.208 227.855 422.319 227.886 422.409 227.953C422.499 228.02 422.56 228.118 422.581 228.228C422.602 228.338 422.581 228.452 422.522 228.547C421.773 229.546 404.318 252.94 402.976 254.585C402.038 255.73 402.21 257.574 402.322 258.306L403.724 258.4C403.785 258.404 403.845 258.421 403.9 258.449C403.955 258.477 404.003 258.516 404.042 258.564C404.08 258.612 404.108 258.668 404.124 258.727C404.14 258.786 404.145 258.848 404.137 258.909C403.968 260.156 404.188 261.425 404.765 262.543C405.513 263.792 411.493 262.104 413.23 261.286C413.738 261.045 413.575 257.841 412.878 254.654C412.864 254.587 412.866 254.519 412.882 254.454C412.899 254.388 412.93 254.327 412.972 254.275L431.899 232.182C431.937 232.138 431.983 232.102 432.035 232.076C432.087 232.049 432.143 232.033 432.201 232.029C432.259 232.025 432.317 232.032 432.373 232.05C432.428 232.068 432.479 232.097 432.523 232.135C432.567 232.173 432.603 232.219 432.629 232.271C432.656 232.323 432.671 232.379 432.676 232.437C432.68 232.495 432.673 232.553 432.655 232.609C432.637 232.664 432.608 232.715 432.57 232.759L413.781 254.68C414.237 256.85 415.011 261.424 413.6 262.087C413.024 262.354 409.006 263.87 406.305 263.87Z" fill="#231F20"/>
<path d="M249.84 297.564C264.342 297.559 278.75 295.251 292.529 290.725C312.789 284.068 324.765 275.015 325.264 274.636C325.588 274.399 325.861 274.1 326.068 273.756C326.275 273.412 326.411 273.031 326.468 272.633C326.526 272.236 326.504 271.831 326.403 271.443C326.302 271.054 326.124 270.689 325.881 270.371C325.637 270.052 325.332 269.784 324.984 269.585C324.636 269.386 324.252 269.258 323.854 269.209C323.456 269.16 323.052 269.192 322.666 269.301C322.281 269.411 321.921 269.596 321.607 269.847C321.392 270.011 309.701 278.779 290.413 285.075C264.824 293.424 237.29 293.685 211.548 285.825C210.783 285.596 209.958 285.682 209.255 286.062C208.553 286.442 208.03 287.087 207.801 287.853C207.573 288.619 207.659 289.445 208.038 290.149C208.418 290.852 209.062 291.376 209.827 291.604C222.802 295.542 236.283 297.55 249.84 297.564Z" fill="white"/>
<path d="M249.84 298.004C236.234 297.986 222.704 295.972 209.681 292.026C209.023 291.834 208.437 291.449 207.999 290.921C207.561 290.393 207.29 289.746 207.222 289.063C207.154 288.38 207.291 287.692 207.615 287.087C207.94 286.483 208.438 285.989 209.045 285.67C209.837 285.247 210.763 285.151 211.626 285.403C237.284 293.23 264.727 292.969 290.232 284.653C309.34 278.409 320.825 269.847 321.298 269.486C321.658 269.208 322.07 269.005 322.509 268.888C322.948 268.771 323.406 268.742 323.856 268.802C324.306 268.863 324.74 269.013 325.132 269.242C325.525 269.472 325.867 269.777 326.141 270.14C326.418 270.501 326.621 270.913 326.738 271.352C326.855 271.792 326.884 272.25 326.824 272.701C326.763 273.152 326.614 273.586 326.384 273.979C326.155 274.372 325.85 274.715 325.488 274.989C324.989 275.377 312.987 284.464 292.624 291.148C278.817 295.694 264.375 298.008 249.84 298.004ZM210.714 286.143C210.11 286.166 209.534 286.399 209.085 286.803C208.635 287.207 208.342 287.755 208.255 288.353C208.168 288.951 208.293 289.561 208.609 290.076C208.924 290.592 209.41 290.98 209.982 291.173C222.921 295.095 236.365 297.097 249.884 297.116C264.339 297.122 278.702 294.822 292.434 290.303C312.652 283.654 324.541 274.662 325.04 274.283C325.311 274.077 325.538 273.818 325.707 273.522C325.875 273.226 325.982 272.899 326.021 272.56C326.109 271.885 325.927 271.202 325.515 270.66C325.102 270.118 324.493 269.761 323.819 269.666C323.485 269.619 323.146 269.639 322.82 269.727C322.495 269.814 322.191 269.966 321.926 270.175C321.435 270.536 309.839 279.184 290.602 285.472C264.922 293.848 237.289 294.113 211.453 286.229C211.213 286.164 210.963 286.135 210.714 286.143Z" fill="#231F20"/>
<path d="M231.946 282.336C231.903 282.344 231.86 282.344 231.817 282.336C231.709 282.303 231.619 282.228 231.566 282.128C231.512 282.028 231.501 281.911 231.533 281.802C232.118 279.976 232.815 278.09 234.346 276.876C236.506 275.153 239.457 275.394 242.287 275.79L246.236 276.342C246.349 276.359 246.452 276.42 246.521 276.511C246.59 276.603 246.62 276.718 246.606 276.833C246.587 276.945 246.525 277.045 246.433 277.112C246.342 277.18 246.228 277.209 246.115 277.194L242.167 276.643C239.517 276.281 236.772 276.04 234.88 277.556C233.538 278.615 232.901 280.364 232.359 282.061C232.326 282.143 232.269 282.213 232.195 282.263C232.121 282.312 232.035 282.337 231.946 282.336Z" fill="#D1D3D4"/>
<path d="M288.881 273.473C288.822 273.473 288.763 273.46 288.708 273.437C288.654 273.413 288.604 273.379 288.563 273.336C286.295 270.927 283.306 269.322 280.047 268.763C276.788 268.204 273.436 268.72 270.497 270.235C270.396 270.29 270.278 270.302 270.168 270.27C270.059 270.238 269.966 270.163 269.912 270.063C269.857 269.962 269.844 269.844 269.876 269.734C269.909 269.624 269.983 269.532 270.084 269.477C273.19 267.882 276.729 267.339 280.169 267.929C283.61 268.519 286.767 270.211 289.165 272.75C289.222 272.812 289.26 272.889 289.274 272.971C289.288 273.054 289.277 273.139 289.243 273.216C289.21 273.293 289.154 273.359 289.084 273.404C289.013 273.45 288.931 273.474 288.847 273.473H288.881Z" fill="#D1D3D4"/>
<path d="M258.031 282.207C257.962 282.206 257.894 282.189 257.833 282.158C257.772 282.127 257.719 282.081 257.678 282.026C257.613 281.933 257.586 281.818 257.604 281.706C257.621 281.593 257.682 281.492 257.773 281.423C260.499 279.424 263.771 278.306 267.15 278.219C267.207 278.216 267.264 278.224 267.318 278.244C267.372 278.263 267.421 278.294 267.462 278.334C267.503 278.373 267.536 278.421 267.558 278.474C267.579 278.527 267.59 278.584 267.589 278.641C267.591 278.698 267.582 278.755 267.562 278.808C267.541 278.861 267.511 278.91 267.471 278.951C267.432 278.992 267.385 279.025 267.332 279.047C267.28 279.069 267.224 279.081 267.167 279.081C263.965 279.166 260.865 280.226 258.28 282.121C258.207 282.174 258.12 282.204 258.031 282.207Z" fill="#D1D3D4"/>
<path d="M306.105 274.593C305.458 273.578 304.464 272.834 303.309 272.5C301.495 271.802 299.592 271.362 297.657 271.191" fill="white"/>
<path d="M306.105 275.067C306.026 275.067 305.949 275.046 305.882 275.004C305.815 274.963 305.761 274.904 305.726 274.834C305.118 273.918 304.203 273.249 303.145 272.948C301.369 272.249 299.504 271.803 297.605 271.622C297.491 271.611 297.385 271.556 297.312 271.468C297.239 271.38 297.203 271.266 297.213 271.152C297.224 271.038 297.279 270.932 297.367 270.859C297.455 270.785 297.568 270.75 297.682 270.76C299.656 270.939 301.596 271.392 303.446 272.104C304.705 272.468 305.785 273.288 306.475 274.404C306.526 274.505 306.534 274.623 306.499 274.731C306.463 274.839 306.387 274.929 306.285 274.981C306.233 275.024 306.171 275.053 306.105 275.067Z" fill="#D1D3D4"/>
<path d="M425.55 182.467C425.55 182.467 445.983 211.089 446.198 216.42C446.413 221.752 419.072 249.641 419.072 249.641L408.172 241.157C408.172 241.157 427.546 217.212 427.185 214.852C426.823 212.492 414.495 195.826 414.495 195.826C414.495 195.826 415.467 184.905 425.55 182.467Z" fill="#1DBF73"/>
<path d="M389.942 212.906C389.942 212.906 387.12 192.381 390.518 178.272L395.267 177.807C395.267 177.807 393.099 192.286 395.156 214.482L389.942 212.906Z" fill="#231F20"/>
<path d="M395.173 214.913C395.133 214.921 395.092 214.921 395.052 214.913L389.813 213.337C389.735 213.313 389.666 213.269 389.613 213.208C389.56 213.147 389.525 213.072 389.512 212.992C389.512 212.785 386.724 192.252 390.123 178.195C390.145 178.109 390.194 178.033 390.262 177.976C390.329 177.919 390.413 177.884 390.501 177.876L395.241 177.411C395.306 177.404 395.372 177.412 395.433 177.434C395.494 177.457 395.549 177.493 395.594 177.54C395.638 177.589 395.67 177.647 395.689 177.709C395.709 177.771 395.714 177.837 395.706 177.902C395.706 178.049 393.572 192.544 395.603 214.465C395.61 214.535 395.599 214.605 395.572 214.67C395.545 214.734 395.502 214.791 395.448 214.835C395.369 214.894 395.271 214.921 395.173 214.913ZM390.329 212.57L394.691 213.888C392.97 194.603 394.433 181.098 394.786 178.29L390.888 178.669C387.843 191.675 390.019 210.115 390.329 212.57Z" fill="#231F20"/>
<path d="M414.177 178.832C410.934 191.302 409.306 204.138 409.333 217.023L414.547 216.541C414.547 216.541 414.177 197.928 419.769 180.495L414.177 178.832Z" fill="#231F20"/>
<path d="M409.333 217.454C409.281 217.455 409.229 217.445 409.18 217.426C409.131 217.407 409.087 217.378 409.049 217.342C409.003 217.302 408.966 217.254 408.941 217.199C408.916 217.143 408.903 217.084 408.903 217.023C408.891 204.099 410.519 191.225 413.747 178.712C413.782 178.604 413.856 178.512 413.953 178.453C414.059 178.415 414.174 178.415 414.28 178.453L419.864 180.116C419.919 180.132 419.97 180.16 420.014 180.197C420.059 180.234 420.095 180.28 420.122 180.331C420.144 180.383 420.156 180.438 420.156 180.495C420.156 180.551 420.144 180.607 420.122 180.658C414.624 197.824 414.917 216.377 414.96 216.566C414.961 216.674 414.921 216.779 414.85 216.86C414.779 216.941 414.68 216.993 414.573 217.006L409.359 217.488L409.333 217.454ZM414.495 179.366C411.404 191.523 409.82 204.014 409.781 216.558L414.134 216.153C414.134 213.371 414.28 196.567 419.236 180.787L414.495 179.366Z" fill="#231F20"/>
<path d="M412.929 160.064C412.929 160.314 394.106 160.495 388.841 160.538C388.67 160.53 388.504 160.483 388.354 160.402C388.204 160.321 388.074 160.208 387.973 160.07C387.872 159.932 387.804 159.773 387.772 159.605C387.741 159.437 387.747 159.265 387.791 159.1C387.843 158.86 387.974 158.645 388.163 158.489C388.352 158.333 388.587 158.244 388.832 158.238H391.714C391.714 158.238 390.949 148.617 400.799 147.326C410.65 146.034 412.886 154.569 412.929 160.064Z" fill="white"/>
<path d="M388.798 160.986C388.576 160.984 388.358 160.933 388.158 160.836C387.959 160.739 387.784 160.599 387.645 160.426C387.486 160.23 387.375 159.999 387.32 159.753C387.265 159.506 387.267 159.25 387.327 159.005C387.392 158.66 387.574 158.349 387.842 158.123C388.11 157.897 388.447 157.77 388.798 157.765H391.224C391.224 155.749 391.843 148.015 400.687 146.852C404.18 146.395 407.028 147.102 409.17 148.962C412.852 152.149 413.325 157.782 413.351 160.064C413.351 160.183 413.305 160.298 413.222 160.383C413.033 160.581 412.835 160.779 388.789 160.986H388.798ZM388.798 158.652C388.65 158.661 388.51 158.719 388.399 158.818C388.288 158.916 388.214 159.049 388.187 159.194C388.162 159.311 388.163 159.432 388.189 159.548C388.216 159.664 388.268 159.773 388.342 159.866C388.395 159.938 388.463 159.996 388.543 160.036C388.622 160.076 388.709 160.098 388.798 160.099C401.831 159.987 410.658 159.832 412.465 159.694C412.387 157.343 411.82 152.424 408.602 149.634C406.658 147.954 404.042 147.308 400.859 147.739C391.551 148.953 392.127 157.799 392.162 158.169C392.165 158.231 392.156 158.292 392.135 158.35C392.114 158.408 392.082 158.461 392.04 158.506C391.999 158.551 391.948 158.587 391.892 158.612C391.836 158.637 391.776 158.651 391.714 158.652H388.798Z" fill="#231F20"/>
<path d="M395.431 158.204C395.431 158.204 395.095 152.562 397.151 148.962C398.519 146.524 402.313 145.947 403.234 146.981C403.81 147.627 401.307 148.798 400.575 151.71C400.241 153.858 400.069 156.029 400.059 158.204" fill="white"/>
<path d="M395.431 158.652C395.317 158.652 395.208 158.608 395.126 158.529C395.045 158.451 394.996 158.343 394.992 158.23C394.992 157.997 394.674 152.416 396.713 148.755C397.19 148.011 397.83 147.385 398.584 146.925C399.338 146.464 400.187 146.18 401.066 146.094C401.493 146.002 401.935 146.009 402.358 146.115C402.782 146.221 403.176 146.423 403.509 146.705C404.034 147.282 403.509 147.903 402.898 148.557C401.984 149.469 401.315 150.598 400.954 151.839C400.627 153.954 400.458 156.09 400.446 158.23C400.449 158.289 400.439 158.348 400.417 158.403C400.396 158.458 400.363 158.508 400.32 158.549C400.278 158.59 400.228 158.623 400.172 158.643C400.117 158.664 400.058 158.673 399.999 158.669C399.882 158.667 399.77 158.619 399.688 158.535C399.606 158.451 399.56 158.338 399.56 158.221C399.567 156.009 399.745 153.8 400.094 151.615C400.489 150.239 401.226 148.986 402.236 147.971C402.448 147.749 402.638 147.507 402.804 147.248C402.308 146.957 401.722 146.862 401.16 146.981C400.421 147.047 399.706 147.281 399.069 147.664C398.433 148.048 397.892 148.571 397.487 149.195C395.534 152.64 395.835 158.144 395.835 158.195C395.842 158.313 395.803 158.428 395.726 158.517C395.648 158.606 395.539 158.66 395.422 158.669L395.431 158.652Z" fill="#231F20"/>
<path d="M412.138 158.635H391.68C391.566 158.635 391.456 158.589 391.376 158.508C391.295 158.428 391.25 158.318 391.25 158.204C391.25 158.09 391.295 157.98 391.376 157.899C391.456 157.819 391.566 157.773 391.68 157.773H412.138C412.252 157.773 412.361 157.819 412.442 157.899C412.523 157.98 412.568 158.09 412.568 158.204C412.568 158.318 412.523 158.428 412.442 158.508C412.361 158.589 412.252 158.635 412.138 158.635Z" fill="#231F20"/>
<path d="M385.83 210.468C385.73 210.466 385.633 210.43 385.557 210.366C385.48 210.302 385.428 210.213 385.408 210.115C385.296 209.486 382.698 194.612 383.98 187.032C384.001 186.92 384.065 186.82 384.158 186.754C384.251 186.688 384.366 186.661 384.479 186.679C384.591 186.7 384.691 186.764 384.756 186.857C384.822 186.95 384.849 187.066 384.832 187.178C383.567 194.612 386.234 209.805 386.26 209.96C386.27 210.016 386.268 210.074 386.256 210.129C386.244 210.185 386.22 210.237 386.187 210.284C386.155 210.33 386.113 210.369 386.065 210.4C386.017 210.43 385.963 210.45 385.907 210.46L385.83 210.468Z" fill="#231F20"/>
<path d="M427.211 215.283C427.138 215.285 427.067 215.267 427.004 215.232C426.94 215.198 426.887 215.147 426.849 215.085L418.169 201.597C418.107 201.501 418.086 201.384 418.111 201.273C418.135 201.162 418.202 201.064 418.298 201.003C418.344 200.97 418.397 200.947 418.453 200.936C418.509 200.924 418.567 200.925 418.623 200.937C418.679 200.949 418.731 200.973 418.778 201.006C418.824 201.04 418.862 201.082 418.891 201.132L427.572 214.62C427.633 214.716 427.654 214.832 427.63 214.944C427.606 215.055 427.539 215.152 427.443 215.214C427.373 215.258 427.293 215.282 427.211 215.283Z" fill="#231F20"/>
<path d="M401.702 240.33C401.324 240.33 400.937 240.33 400.558 240.278C397.46 240.002 394.592 238.524 392.567 236.16C390.542 233.796 389.52 230.734 389.718 227.626L390.381 216.618C390.382 216.558 390.397 216.499 390.423 216.446C390.45 216.392 390.488 216.345 390.536 216.308C390.581 216.271 390.633 216.244 390.689 216.228C390.746 216.211 390.804 216.207 390.862 216.213L413.747 218.961C413.855 218.972 413.956 219.025 414.026 219.108C414.097 219.192 414.132 219.3 414.125 219.409L413.652 228.944C413.496 232.013 412.169 234.904 409.946 237.023C407.722 239.142 404.772 240.325 401.702 240.33ZM391.207 217.126L390.587 227.695C390.507 229.153 390.714 230.613 391.198 231.992C391.681 233.37 392.431 234.639 393.404 235.727C394.378 236.815 395.556 237.701 396.871 238.333C398.186 238.966 399.613 239.333 401.07 239.413C402.527 239.493 403.985 239.285 405.362 238.801C406.739 238.317 408.006 237.567 409.093 236.592C410.18 235.618 411.065 234.438 411.696 233.121C412.328 231.805 412.694 230.376 412.774 228.918L413.23 219.788L391.207 217.126Z" fill="white"/>
<path d="M373.63 314.911L354.385 311.793L353.585 339.76C353.585 339.76 341.851 343.576 341.954 345.695C342.1 348.812 368.856 347.529 368.856 347.529L373.63 314.911Z" fill="white"/>
<path d="M357.405 348.278H355.478C341.653 348.132 341.567 346.478 341.541 345.772C341.541 345.204 342.272 343.067 353.172 339.484L353.972 311.828C353.974 311.764 353.989 311.702 354.018 311.646C354.046 311.589 354.086 311.54 354.136 311.5C354.185 311.462 354.242 311.433 354.303 311.417C354.363 311.401 354.426 311.397 354.489 311.406L373.699 314.524C373.756 314.532 373.811 314.552 373.861 314.581C373.91 314.611 373.953 314.65 373.988 314.697C374.022 314.743 374.047 314.796 374.061 314.852C374.075 314.908 374.078 314.966 374.069 315.023L369.32 347.641C369.306 347.744 369.256 347.838 369.179 347.908C369.102 347.977 369.002 348.017 368.899 348.02C368.839 347.977 363.358 348.278 357.405 348.278ZM354.824 312.353L354.033 339.812C354.031 339.903 354.001 339.992 353.947 340.066C353.893 340.14 353.818 340.195 353.732 340.225C348.243 342.008 342.358 344.618 342.41 345.72C342.41 345.875 342.84 347.245 355.469 347.383C361.208 347.434 366.989 347.21 368.477 347.142L373.114 315.316L354.824 312.353Z" fill="#231F20"/>
<path d="M436.519 301.208L423.855 317.323L444.202 333.205C444.202 333.205 440.416 342.301 441.457 343.541C442.498 344.782 458.973 328.262 458.973 328.262L436.519 301.208Z" fill="white"/>
<path d="M441.621 344.024C441.441 344.017 441.271 343.94 441.148 343.808C440.081 342.568 442.464 336.315 443.686 333.352L423.606 317.676C423.559 317.64 423.52 317.595 423.492 317.543C423.464 317.491 423.447 317.433 423.442 317.374C423.427 317.258 423.458 317.141 423.528 317.047L436.166 300.906C436.207 300.854 436.259 300.811 436.319 300.781C436.379 300.751 436.444 300.735 436.511 300.734C436.642 300.743 436.764 300.802 436.855 300.898L459.343 327.951C459.418 328.034 459.46 328.141 459.46 328.253C459.46 328.364 459.418 328.472 459.343 328.554C455.661 332.189 443.677 344.024 441.621 344.024ZM424.475 317.271L444.477 332.887C444.551 332.947 444.605 333.03 444.629 333.123C444.654 333.216 444.649 333.314 444.615 333.404C442.722 337.951 441.457 342.249 441.741 343.136C443.255 342.706 451.205 335.385 458.38 328.236L436.528 301.94L424.475 317.271Z" fill="#231F20"/>
<path d="M370.929 321.397H370.86L355.246 319.089C355.134 319.069 355.033 319.008 354.966 318.916C354.899 318.824 354.869 318.71 354.884 318.598C354.892 318.542 354.91 318.488 354.938 318.44C354.967 318.391 355.004 318.349 355.049 318.315C355.094 318.282 355.145 318.257 355.2 318.244C355.254 318.23 355.311 318.227 355.366 318.236L371.007 320.536C371.121 320.543 371.227 320.597 371.302 320.683C371.377 320.769 371.415 320.882 371.407 320.996C371.399 321.111 371.346 321.217 371.259 321.292C371.173 321.367 371.06 321.405 370.946 321.397H370.929Z" fill="#D1D3D4"/>
<path d="M370.327 324.79H370.275L355.573 322.827C355.458 322.811 355.355 322.75 355.286 322.658C355.217 322.566 355.187 322.45 355.203 322.336C355.219 322.222 355.279 322.118 355.371 322.049C355.463 321.979 355.579 321.949 355.693 321.965L370.387 323.929C370.501 323.937 370.607 323.99 370.683 324.077C370.758 324.163 370.795 324.276 370.787 324.39C370.779 324.504 370.726 324.61 370.64 324.686C370.554 324.761 370.441 324.798 370.327 324.79Z" fill="#D1D3D4"/>
<path d="M431.615 320.243C431.519 320.239 431.426 320.205 431.349 320.148C431.26 320.077 431.203 319.974 431.19 319.861C431.177 319.748 431.21 319.634 431.28 319.545L440.244 308.15C440.275 308.096 440.317 308.05 440.367 308.015C440.417 307.979 440.474 307.954 440.535 307.942C440.595 307.931 440.657 307.932 440.717 307.946C440.777 307.961 440.833 307.988 440.882 308.026C440.93 308.064 440.97 308.112 440.998 308.167C441.027 308.221 441.043 308.281 441.046 308.343C441.05 308.405 441.039 308.466 441.017 308.523C440.994 308.581 440.96 308.632 440.915 308.675L431.959 320.079C431.917 320.13 431.865 320.17 431.805 320.199C431.746 320.227 431.681 320.242 431.615 320.243Z" fill="#D1D3D4"/>
<path d="M434.532 321.397C434.431 321.397 434.333 321.36 434.256 321.293C434.17 321.218 434.116 321.113 434.106 320.998C434.097 320.884 434.132 320.77 434.205 320.682L442.421 310.889C442.498 310.816 442.598 310.774 442.704 310.771C442.81 310.768 442.913 310.804 442.993 310.872C443.074 310.94 443.127 311.036 443.142 311.141C443.157 311.245 443.133 311.352 443.075 311.44L434.859 321.242C434.818 321.289 434.767 321.327 434.711 321.353C434.655 321.38 434.594 321.395 434.532 321.397Z" fill="#D1D3D4"/>
</g>
<defs>
<clipPath id="clip0_1410:95">
<rect width="592" height="420" fill="white"/>
</clipPath>
</defs>
</svg>
