<svg width="604" height="455" viewBox="0 0 604 455" fill="none" xmlns="http://www.w3.org/2000/svg">
<path d="M287.247 419.942C377.422 419.942 450.524 410.354 450.524 398.526C450.524 386.698 377.422 377.11 287.247 377.11C197.072 377.11 123.971 386.698 123.971 398.526C123.971 410.354 197.072 419.942 287.247 419.942Z" fill="#D1D3D4"/>
<path d="M275.62 174.677C275.62 174.677 260.037 176.548 254.314 176.926C248.591 177.303 242.687 181.453 241.721 182.268C240.754 183.083 236.194 189.513 237.719 194.463C239.244 199.413 245.541 204.182 248.214 204.56C250.887 204.937 272.268 194.161 277.04 190.343L275.62 174.677Z" fill="white"/>
<path d="M248.304 205.314H248.108C245.013 204.877 238.535 199.715 236.979 194.75C235.288 189.256 240.301 182.48 241.238 181.71C241.238 181.71 247.746 176.639 254.269 176.216C259.901 175.839 275.409 173.983 275.53 173.968C275.632 173.955 275.736 173.963 275.835 173.991C275.934 174.02 276.027 174.068 276.107 174.133C276.187 174.197 276.254 174.278 276.302 174.368C276.351 174.459 276.381 174.559 276.39 174.662L277.81 190.343C277.824 190.471 277.805 190.601 277.755 190.72C277.705 190.839 277.625 190.943 277.523 191.022C273.099 194.478 252.17 205.314 248.304 205.314ZM274.911 175.507C271.649 175.899 259.297 177.348 254.359 177.68C249.422 178.012 243.789 181.604 242.279 182.842C241.57 183.4 237.1 189.558 238.535 194.206C239.969 198.855 245.934 203.413 248.38 203.76C250.826 204.107 270.894 194.025 276.285 189.965L274.911 175.507Z" fill="#231F20"/>
<path d="M239.969 195.534C239.969 195.534 250.403 204.59 253.831 204.68C257.259 204.771 255.341 201.239 255.341 201.239C255.341 201.239 258.633 203.82 259.207 201.677C259.78 199.534 259.056 198.659 259.056 198.659C259.056 198.659 261.774 202.371 262.498 199.655C263.223 196.938 262.785 196.078 262.785 196.078C262.785 196.078 264.929 200.379 265.926 197.376C266.923 194.372 261.064 183.793 255.205 178.782C255.205 178.782 262.06 179.506 262.634 177.077C263.208 174.647 257.062 173.636 254.48 173.5C251.898 173.364 246.93 176.639 242.476 177.077C238.651 177.237 234.82 177.045 231.03 176.503L231.604 193.105L239.969 195.534Z" fill="white"/>
<path d="M254.027 205.465H253.801C250.313 205.329 241.147 197.587 239.592 196.244L231.317 193.859C231.156 193.817 231.013 193.723 230.909 193.593C230.806 193.462 230.747 193.301 230.743 193.135L230.169 176.533C230.169 176.418 230.191 176.304 230.235 176.198C230.279 176.092 230.344 175.995 230.426 175.914C230.514 175.843 230.615 175.789 230.724 175.758C230.833 175.727 230.948 175.719 231.06 175.733C234.79 176.261 238.561 176.448 242.325 176.292C244.642 175.922 246.898 175.237 249.029 174.254C250.724 173.411 252.564 172.899 254.45 172.745C254.526 172.745 261.17 173.153 262.921 175.492C263.119 175.742 263.257 176.033 263.325 176.345C263.393 176.656 263.389 176.978 263.314 177.288C262.831 179.355 259.524 179.703 257.274 179.703C262.68 185.181 267.693 194.508 266.651 197.647C266.319 198.659 265.775 199.157 265.065 199.247C264.78 199.241 264.498 199.176 264.238 199.057C263.978 198.938 263.746 198.766 263.555 198.553C263.555 198.945 263.389 199.383 263.269 199.881C262.967 201.013 262.347 201.39 261.879 201.39C261.574 201.422 261.265 201.392 260.972 201.301C260.679 201.211 260.407 201.061 260.173 200.862C260.125 201.192 260.06 201.52 259.977 201.843C259.915 202.149 259.774 202.432 259.567 202.666C259.36 202.899 259.095 203.073 258.799 203.171C258.093 203.346 257.348 203.26 256.7 202.93C256.776 203.453 256.67 203.986 256.398 204.439C256.138 204.814 255.778 205.109 255.359 205.29C254.94 205.472 254.479 205.532 254.027 205.465ZM232.283 192.501L240.181 194.78C240.288 194.811 240.387 194.868 240.468 194.946C244.59 198.493 251.551 203.805 253.861 203.896C254.45 203.896 254.858 203.82 254.979 203.609C255.099 203.398 254.858 202.1 254.586 201.632C254.503 201.474 254.476 201.293 254.509 201.119C254.543 200.944 254.634 200.786 254.77 200.67C254.905 200.554 255.075 200.488 255.253 200.481C255.431 200.475 255.606 200.53 255.749 200.636C256.434 201.25 257.295 201.635 258.21 201.737C258.21 201.737 258.316 201.737 258.376 201.481C258.672 200.734 258.672 199.903 258.376 199.157C258.255 198.994 258.203 198.79 258.231 198.59C258.26 198.389 258.366 198.208 258.527 198.085C258.687 197.964 258.888 197.91 259.087 197.932C259.287 197.955 259.47 198.053 259.599 198.206C260.064 198.916 260.71 199.49 261.472 199.866C261.54 199.73 261.595 199.589 261.638 199.443C261.99 198.479 262.099 197.442 261.955 196.425C261.909 196.334 261.882 196.235 261.876 196.134C261.869 196.032 261.883 195.93 261.917 195.835C261.951 195.739 262.004 195.651 262.073 195.576C262.141 195.501 262.225 195.441 262.317 195.399C262.506 195.309 262.722 195.297 262.919 195.365C263.117 195.433 263.28 195.575 263.374 195.761C263.705 196.518 264.225 197.178 264.884 197.678C264.971 197.507 265.047 197.33 265.111 197.149C265.911 194.78 260.581 184.532 254.616 179.416C254.489 179.307 254.4 179.161 254.362 178.998C254.324 178.835 254.339 178.664 254.405 178.51C254.471 178.358 254.585 178.23 254.729 178.146C254.872 178.062 255.039 178.025 255.205 178.042C257.802 178.314 261.532 178.042 261.804 176.926C261.824 176.839 261.823 176.749 261.802 176.662C261.781 176.576 261.74 176.496 261.683 176.428C260.762 175.205 256.776 174.435 254.36 174.315C252.707 174.501 251.101 174.981 249.618 175.733C247.348 176.774 244.944 177.495 242.476 177.876C238.901 178.062 235.316 177.911 231.77 177.424L232.283 192.501Z" fill="#231F20"/>
<path d="M265.005 176.186C262.814 176.096 260.619 176.156 258.436 176.367C254.48 176.745 250.222 177.876 247.791 180.985C247.633 181.146 247.517 181.343 247.454 181.559C247.39 181.775 247.382 182.003 247.429 182.223C247.61 182.661 248.153 182.797 248.606 182.872C251.881 183.38 255.211 183.42 258.497 182.993C258.943 182.879 259.41 182.879 259.856 182.993C260.198 183.147 260.51 183.362 260.777 183.627C262.079 184.706 263.693 185.341 265.382 185.438" fill="white"/>
<path d="M265.382 186.177C263.52 186.082 261.738 185.383 260.309 184.185L260.173 184.079C260.008 183.921 259.82 183.788 259.614 183.687C259.297 183.612 258.966 183.612 258.648 183.687C255.282 184.13 251.87 184.089 248.516 183.566C248.15 183.546 247.796 183.433 247.487 183.238C247.178 183.042 246.924 182.771 246.749 182.449C246.632 182.103 246.612 181.731 246.692 181.375C246.772 181.018 246.948 180.69 247.202 180.427C249.346 177.635 253.016 176.035 258.391 175.522C260.609 175.311 262.839 175.25 265.065 175.341C265.167 175.345 265.266 175.369 265.358 175.411C265.45 175.453 265.533 175.513 265.601 175.588C265.67 175.662 265.723 175.749 265.758 175.844C265.793 175.939 265.809 176.04 265.805 176.141C265.787 176.345 265.693 176.535 265.542 176.675C265.392 176.814 265.195 176.893 264.99 176.895C262.839 176.808 260.685 176.863 258.542 177.061C253.62 177.544 250.313 178.948 248.44 181.378C248.184 181.725 248.184 181.861 248.184 181.861C248.184 181.861 248.274 181.951 248.757 182.027C251.957 182.527 255.211 182.568 258.421 182.148C258.991 181.998 259.589 181.998 260.158 182.148C260.54 182.307 260.888 182.538 261.185 182.827C262.382 183.852 263.884 184.457 265.458 184.547C265.665 184.563 265.858 184.658 265.996 184.813C266.134 184.968 266.206 185.17 266.198 185.377C266.2 185.484 266.18 185.59 266.14 185.689C266.099 185.788 266.039 185.878 265.963 185.953C265.886 186.028 265.796 186.087 265.696 186.125C265.596 186.164 265.489 186.181 265.382 186.177Z" fill="#231F20"/>
<path d="M407.383 380.43C407.383 380.43 408.606 388.369 406.779 391.418C404.952 394.466 403.306 398.345 402.506 405.469C403.968 407.103 405.754 408.416 407.75 409.326C409.746 410.235 411.909 410.72 414.102 410.751C421.441 410.751 428.764 405.257 429.58 402.616C430.395 399.975 423.676 371.888 423.676 371.888L407.383 380.43Z" fill="white"/>
<path d="M414.102 411.536C411.789 411.506 409.508 410.995 407.404 410.033C405.301 409.071 403.421 407.681 401.886 405.952C401.766 405.786 401.707 405.583 401.72 405.378C402.596 397.696 404.438 393.802 406.099 391.025C407.489 388.716 406.945 382.679 406.613 380.551C406.59 380.39 406.616 380.226 406.689 380.08C406.762 379.934 406.878 379.814 407.02 379.736L423.313 371.194C423.419 371.142 423.535 371.115 423.653 371.115C423.771 371.115 423.887 371.142 423.993 371.194C424.103 371.24 424.201 371.312 424.277 371.404C424.353 371.496 424.406 371.605 424.431 371.722C425.563 376.446 431.165 400.141 430.32 402.858C429.474 405.574 421.788 411.536 414.102 411.536ZM403.306 405.212C404.699 406.683 406.371 407.862 408.225 408.681C410.078 409.499 412.076 409.942 414.102 409.981C421.139 409.981 428.16 404.578 428.84 402.435C429.308 400.926 426.303 386.347 423.147 373.081L408.228 380.913C408.485 382.815 409.119 389.063 407.443 391.87C405.767 394.678 404.167 398.043 403.306 405.212Z" fill="#231F20"/>
<path d="M356.722 207.548L392.026 217.313L400.241 110.157C400.241 110.157 368.002 115.455 360.981 118.699C353.959 121.944 356.722 207.548 356.722 207.548Z" fill="white"/>
<path d="M392.026 218.097H391.815L356.526 208.333C356.366 208.288 356.224 208.194 356.121 208.064C356.018 207.934 355.959 207.774 355.952 207.608C355.952 207.397 355.243 185.936 355.409 164.354C355.756 120.239 359.274 118.609 360.603 118.005C367.685 114.73 398.791 109.614 400.105 109.387C400.222 109.366 400.342 109.372 400.457 109.405C400.571 109.438 400.677 109.497 400.764 109.577C400.852 109.658 400.92 109.757 400.963 109.868C401.006 109.98 401.022 110.099 401.011 110.218L392.796 217.373C392.789 217.49 392.756 217.604 392.698 217.706C392.641 217.808 392.561 217.895 392.464 217.962C392.336 218.051 392.183 218.099 392.026 218.097ZM357.492 206.944L391.316 216.317L399.38 111.063C393.944 111.983 367.458 116.526 361.267 119.379C357.009 121.356 356.133 165.848 357.492 206.944Z" fill="#231F20"/>
<path d="M368.44 369.172V393.048L357.039 396.308L357.311 391.418L352.207 396.534C352.207 396.534 321.57 402.028 321.721 397.953C321.872 393.878 324.982 391.644 328.848 389.607C333 387.433 343.948 381.261 343.948 381.261L345.579 363.769" fill="white"/>
<path d="M327.413 400.262C324.559 400.262 322.37 399.975 321.524 399.236C321.334 399.086 321.182 398.892 321.083 398.672C320.983 398.451 320.937 398.21 320.951 397.968C321.132 393.44 324.68 390.965 328.501 388.912C332.321 386.86 341.29 381.849 343.193 380.778L344.793 363.678C344.784 363.566 344.798 363.453 344.837 363.347C344.876 363.241 344.937 363.145 345.017 363.066C345.096 362.986 345.193 362.925 345.299 362.887C345.404 362.849 345.517 362.834 345.63 362.844C345.742 362.854 345.85 362.889 345.948 362.945C346.045 363.002 346.129 363.079 346.193 363.172C346.257 363.264 346.3 363.37 346.32 363.481C346.339 363.591 346.333 363.705 346.303 363.814L344.703 381.442C344.689 381.566 344.647 381.685 344.578 381.79C344.51 381.895 344.418 381.982 344.31 382.045C344.189 382.045 333.333 388.248 329.21 390.406C325.088 392.565 322.642 394.572 322.506 398.088C323.336 399.598 336.73 398.602 351.83 395.915L356.813 390.935C356.92 390.819 357.061 390.74 357.216 390.711C357.371 390.681 357.531 390.701 357.674 390.769C357.819 390.833 357.941 390.939 358.025 391.074C358.108 391.208 358.149 391.365 358.142 391.523L357.93 395.312L367.715 392.519V369.172C367.682 369.055 367.676 368.932 367.698 368.812C367.72 368.693 367.77 368.58 367.843 368.483C367.917 368.386 368.011 368.308 368.12 368.254C368.229 368.199 368.349 368.171 368.47 368.171C368.592 368.171 368.712 368.199 368.82 368.254C368.929 368.308 369.024 368.386 369.097 368.483C369.17 368.58 369.22 368.693 369.242 368.812C369.264 368.932 369.259 369.055 369.225 369.172V393.048C369.224 393.216 369.169 393.38 369.068 393.516C368.968 393.651 368.827 393.751 368.666 393.802L357.251 397.047C357.133 397.082 357.008 397.087 356.887 397.064C356.766 397.04 356.653 396.988 356.556 396.911C356.459 396.835 356.382 396.736 356.332 396.623C356.282 396.509 356.26 396.386 356.269 396.262L356.42 393.41L352.706 397.123C352.598 397.24 352.455 397.319 352.298 397.349C348.961 397.953 335.507 400.262 327.413 400.262Z" fill="#231F20"/>
<path d="M423.253 217.177L432.841 378.801C432.841 378.801 431.935 385.426 417.545 386.241C403.155 387.056 404.605 383.69 404.605 383.69L381.954 270.377L372.713 375.933L341.653 377.85L347.829 204.288L423.253 217.177Z" fill="#231F20"/>
<path d="M413.453 387.116C408.274 387.116 405.148 386.407 404.151 384.973C403.882 384.592 403.768 384.122 403.834 383.66L382.272 275.675L373.499 375.993C373.484 376.175 373.404 376.346 373.274 376.473C373.143 376.601 372.971 376.677 372.789 376.688L341.728 378.604C341.516 378.613 341.31 378.537 341.154 378.393C341.007 378.239 340.925 378.033 340.928 377.82L347.104 204.258C347.109 204.152 347.137 204.048 347.187 203.954C347.236 203.86 347.306 203.779 347.391 203.715C347.47 203.645 347.564 203.594 347.666 203.565C347.768 203.536 347.875 203.531 347.979 203.549L423.374 216.483C423.541 216.51 423.694 216.594 423.806 216.72C423.919 216.847 423.985 217.008 423.993 217.177L433.596 378.801C433.596 379.238 432.419 386.196 417.59 387.041C416.08 387.071 414.706 387.116 413.453 387.116ZM405.299 383.962C405.343 384.042 405.393 384.118 405.45 384.188C405.964 384.762 408.153 386.015 417.53 385.486C430.29 384.777 431.966 379.374 432.117 378.755L422.558 217.826L348.568 205.133L342.528 377.05L372.109 375.224L381.29 270.302C381.305 270.121 381.385 269.953 381.516 269.828C381.647 269.702 381.819 269.629 382 269.623C382.18 269.612 382.357 269.668 382.499 269.779C382.641 269.89 382.737 270.049 382.77 270.226L405.42 383.539C405.465 383.682 405.465 383.835 405.42 383.977L405.299 383.962Z" fill="#231F20"/>
<path d="M394.744 106.867C394.744 106.867 382.513 219.893 387.949 226.957C393.385 234.02 417.681 243.362 428.538 234.684C439.395 226.006 426.092 123.831 421.29 116.239C412.886 111.976 403.963 108.826 394.744 106.867Z" fill="#1DBF73"/>
<path d="M440.12 253.866C440.12 253.866 438.61 244.222 439.47 243.302C440.331 242.381 461.924 241.792 463.63 241.989C465.337 242.185 465.624 252.221 465.624 252.221L462.407 252.538C462.407 252.538 462.755 246.003 461.562 245.716C460.369 245.43 442.838 245.958 442.838 245.958L443.774 253.836L440.12 253.866Z" fill="#231F20"/>
<path d="M440.12 254.666C439.941 254.665 439.769 254.601 439.634 254.485C439.498 254.369 439.408 254.208 439.38 254.032C438.323 247.377 438.172 243.619 438.942 242.834C440.286 241.476 463.54 241.325 463.766 241.325C465.397 241.445 466.303 245.143 466.454 252.297C466.452 252.485 466.382 252.667 466.258 252.808C466.133 252.949 465.961 253.041 465.775 253.066L462.558 253.383C462.451 253.392 462.342 253.378 462.241 253.342C462.139 253.305 462.047 253.247 461.969 253.172C461.888 253.101 461.824 253.013 461.782 252.913C461.74 252.814 461.722 252.706 461.728 252.599C461.933 250.579 461.805 248.54 461.35 246.562C459.946 246.411 450.252 246.562 443.744 246.818L444.589 253.881C444.601 253.987 444.591 254.093 444.56 254.195C444.529 254.296 444.477 254.39 444.408 254.47C444.339 254.551 444.254 254.616 444.157 254.66C444.061 254.705 443.956 254.727 443.849 254.727H440.12V254.666ZM440.029 243.936C439.944 247.027 440.192 250.119 440.769 253.157H443.004L442.158 246.124C442.148 246.021 442.159 245.917 442.19 245.819C442.222 245.72 442.272 245.629 442.339 245.55C442.405 245.47 442.488 245.405 442.582 245.36C442.676 245.316 442.779 245.293 442.883 245.294C445.827 245.203 460.595 244.751 461.818 245.052C462.241 245.158 463.51 245.46 463.328 251.784L464.989 251.618C464.838 247.211 464.234 243.241 463.6 242.773C461.713 242.592 442.43 243.166 440.029 243.89V243.936Z" fill="#231F20"/>
<path d="M444.71 228.919C442.952 231.81 441.509 234.881 440.407 238.08C439.916 239.762 439.963 241.557 440.542 243.211L445.571 242.396C445.571 242.396 444.831 252.206 446.401 252.206C447.972 252.206 450.418 253.398 450.267 245.822C450.267 245.822 450.946 248.72 453.513 247.588C454.936 247.036 456.089 245.954 456.73 244.569C456.73 244.569 458.98 248.222 461.26 244.207C463.54 240.193 459.825 228.828 459.825 228.828L459.463 223.365L444.076 223.787L444.71 228.919Z" fill="white"/>
<path d="M447.64 253.051C447.383 253.051 447.141 253.051 446.915 253.051H446.401C446.07 253.039 445.756 252.898 445.525 252.659C444.408 251.467 444.544 246.365 444.725 243.392L440.678 244.041C440.513 244.069 440.343 244.042 440.194 243.966C440.044 243.89 439.923 243.768 439.848 243.619C439.182 241.806 439.113 239.828 439.652 237.974C440.722 234.77 442.15 231.697 443.91 228.813L443.351 223.953C443.338 223.846 443.347 223.736 443.378 223.632C443.41 223.529 443.462 223.432 443.532 223.35C443.68 223.187 443.886 223.089 444.106 223.078L459.493 222.67C459.87 222.58 460.263 222.972 460.293 223.395L460.641 228.753C461.033 229.945 464.355 240.54 461.969 244.66C461.109 246.169 460.112 246.924 458.949 246.939C458.547 246.939 458.149 246.855 457.78 246.694C457.411 246.533 457.079 246.298 456.805 246.003C456.028 247.048 454.986 247.867 453.785 248.373C453.384 248.573 452.942 248.678 452.494 248.678C452.046 248.678 451.604 248.573 451.203 248.373L450.946 248.237C451.008 249.73 450.513 251.193 449.557 252.342C449.035 252.819 448.347 253.073 447.64 253.051ZM446.598 251.421H447.051C447.745 251.421 448.198 251.421 448.561 251.165C448.923 250.908 449.572 249.429 449.497 245.807C449.495 245.614 449.566 245.427 449.694 245.282C449.822 245.137 449.999 245.045 450.191 245.022C450.38 244.999 450.571 245.046 450.727 245.154C450.883 245.263 450.994 245.426 451.037 245.611C451.17 246.152 451.498 246.625 451.958 246.939C452.161 247.015 452.378 247.046 452.595 247.03C452.811 247.015 453.021 246.953 453.211 246.848C454.447 246.391 455.452 245.463 456.005 244.268C456.059 244.133 456.149 244.016 456.264 243.928C456.38 243.841 456.517 243.786 456.662 243.771C456.806 243.755 456.952 243.779 457.083 243.84C457.215 243.901 457.328 243.997 457.409 244.117C457.59 244.434 458.285 245.279 458.919 245.279C459.553 245.279 460.173 244.464 460.565 243.77C462.332 240.751 460.082 232.088 459.055 229.024C459.047 228.959 459.047 228.893 459.055 228.828L458.738 224.119L444.952 224.497L445.435 228.783C445.453 228.951 445.416 229.12 445.329 229.266C443.618 232.095 442.206 235.094 441.116 238.216C440.77 239.549 440.744 240.945 441.041 242.291L445.39 241.581C445.506 241.558 445.625 241.564 445.739 241.599C445.852 241.633 445.955 241.694 446.039 241.777C446.127 241.857 446.196 241.955 446.24 242.065C446.284 242.175 446.303 242.293 446.296 242.411C446.069 246.154 446.114 250.516 446.598 251.421Z" fill="#231F20"/>
<path d="M429.202 254.757L419.614 255.919L423.827 304.441L434.095 305.286L429.202 254.757Z" fill="white"/>
<path d="M434.095 306.056L423.827 305.225C423.643 305.212 423.471 305.132 423.34 305.002C423.21 304.872 423.131 304.7 423.117 304.516L418.904 255.979C418.894 255.88 418.903 255.78 418.932 255.684C418.96 255.589 419.007 255.5 419.071 255.423C419.134 255.345 419.212 255.281 419.3 255.234C419.388 255.188 419.484 255.159 419.584 255.149L429.172 253.972C429.377 253.958 429.58 254.017 429.746 254.138C429.828 254.205 429.896 254.287 429.945 254.38C429.994 254.474 430.024 254.576 430.033 254.681L434.88 305.21C434.893 305.318 434.883 305.427 434.85 305.531C434.817 305.634 434.762 305.729 434.689 305.809C434.616 305.89 434.526 305.953 434.426 305.996C434.326 306.038 434.218 306.058 434.11 306.056H434.095ZM424.552 303.716L433.234 304.426L428.508 255.617L420.459 256.598L424.552 303.716Z" fill="#231F20"/>
<path d="M429.202 254.757C428.976 255.421 434.095 305.286 434.095 305.286L480.014 300.562L476.918 251.814L429.202 254.757Z" fill="white"/>
<path d="M434.095 306.056C433.915 306.053 433.741 305.995 433.597 305.889C433.443 305.754 433.346 305.565 433.325 305.361C428.191 255.33 428.387 254.711 428.463 254.515C428.507 254.363 428.598 254.229 428.722 254.132C428.847 254.034 428.999 253.978 429.157 253.972L476.873 251.029C477.079 251.016 477.282 251.085 477.437 251.221C477.592 251.357 477.688 251.548 477.704 251.753L480.799 300.517C480.812 300.716 480.746 300.912 480.617 301.065C480.487 301.217 480.304 301.312 480.105 301.332L434.17 306.056H434.095ZM430.003 255.481C430.305 260.009 432.932 286.254 434.789 304.426L479.199 299.898L476.179 252.659L430.003 255.481Z" fill="#231F20"/>
<path d="M440.376 272.339C440.248 272.339 440.122 272.307 440.009 272.247C439.895 272.186 439.799 272.099 439.727 271.992L428.553 255.179C428.468 255.008 428.449 254.812 428.499 254.627C428.549 254.443 428.664 254.283 428.823 254.177C428.983 254.072 429.175 254.028 429.364 254.054C429.554 254.08 429.727 254.174 429.852 254.319L440.769 270.739L469.927 268.461L476.194 251.542C476.227 251.445 476.28 251.356 476.349 251.28C476.417 251.204 476.501 251.142 476.593 251.099C476.686 251.055 476.787 251.03 476.889 251.026C476.992 251.022 477.094 251.038 477.19 251.074C477.288 251.11 477.377 251.164 477.453 251.234C477.53 251.304 477.591 251.388 477.635 251.482C477.678 251.576 477.703 251.678 477.707 251.782C477.711 251.885 477.694 251.988 477.658 252.085L471.211 269.457C471.16 269.596 471.07 269.719 470.953 269.809C470.835 269.9 470.694 269.956 470.546 269.97L440.437 272.339H440.376Z" fill="#231F20"/>
<path d="M458.793 266.332L454.365 266.817L455.336 275.683L459.764 275.199L458.793 266.332Z" fill="#D1D3D4"/>
<path d="M345.865 116.647C345.865 116.647 332.834 231.832 336.096 235.091C339.357 238.351 353.748 234.276 358.625 231.017C363.502 227.757 370.614 108.271 370.614 108.271C370.614 108.271 352.932 110.67 345.865 116.647Z" fill="#1DBF73"/>
<path d="M345.866 116.647C345.866 116.647 322.763 164.942 311.86 168.338C295.567 173.424 272.6 173.017 272.6 173.017L274.443 197.436C274.443 197.436 304.039 201.571 320.86 197.24C337.681 192.908 355.681 168.474 355.681 168.474L345.866 116.647Z" fill="#1DBF73"/>
<path d="M374.45 124.842L377.636 129.46L366.16 198.327L373.498 207.684L382.86 199.549L380.822 130.215L384.416 125.189L379.871 121.929L374.45 124.842Z" fill="#D1D3D4"/>
<path d="M336.911 204.122H336.836C336.631 204.099 336.444 203.999 336.312 203.841C336.18 203.684 336.113 203.482 336.126 203.277C337.198 190.403 342.06 138.123 342.166 137.595C342.227 137.433 342.34 137.296 342.487 137.205C342.634 137.113 342.807 137.073 342.979 137.091C343.151 137.108 343.313 137.181 343.439 137.3C343.565 137.418 343.648 137.575 343.676 137.746C343.676 138.274 338.768 190.569 337.636 203.413C337.622 203.599 337.54 203.773 337.407 203.903C337.274 204.034 337.097 204.112 336.911 204.122Z" fill="#231F20"/>
<path d="M371.46 99.336L369.693 114.202C369.693 114.202 370.826 121.22 381.049 120.088C391.271 118.956 393.612 112.315 393.612 112.315L395.907 84.4852C395.907 84.4852 390.199 79.4594 394.397 63.7785C394.397 63.7785 378.481 66.5404 363.97 62.7824C363.97 62.7824 361.464 80.8932 361.675 88.6507C361.887 96.4081 371.46 99.336 371.46 99.336Z" fill="white"/>
<path d="M379.01 120.993C370.192 120.993 369.029 114.398 369.014 114.323V114.111L370.705 99.8793C368.485 99.0644 361.192 95.8497 360.996 88.6657C360.769 80.863 363.185 63.4163 363.291 62.6768C363.306 62.5686 363.345 62.465 363.405 62.3737C363.465 62.2824 363.545 62.2055 363.638 62.1485C363.727 62.085 363.828 62.0413 363.935 62.0205C364.041 61.9996 364.152 62.0021 364.257 62.0278C378.406 65.7103 394.11 62.9937 394.336 62.9937C394.463 62.97 394.594 62.9797 394.716 63.0221C394.838 63.0645 394.946 63.1379 395.031 63.2352C395.122 63.3299 395.186 63.4464 395.218 63.5734C395.249 63.7004 395.248 63.8335 395.212 63.9596C391.181 79.0519 396.42 83.8362 396.481 83.8815C396.569 83.9639 396.638 84.0649 396.682 84.1771C396.726 84.2894 396.745 84.41 396.737 84.5305L394.442 112.361C394.458 112.425 394.458 112.492 394.442 112.557C394.352 112.844 391.83 119.665 381.245 120.843C380.503 120.936 379.757 120.986 379.01 120.993ZM370.584 114.172C370.75 114.972 372.26 120.209 381.049 119.318C390.109 118.307 392.615 112.919 392.932 112.134L395.182 84.7719C394.05 83.4891 390.184 77.9804 393.446 64.7293C389.565 65.2576 376.715 66.6461 364.756 63.7483C364.257 67.4309 362.385 81.8591 362.581 88.6205C362.778 95.7893 371.641 98.5663 371.807 98.5965C371.981 98.6508 372.131 98.7626 372.233 98.9135C372.334 99.0644 372.381 99.2453 372.366 99.4266L370.584 114.172Z" fill="#231F20"/>
<path d="M391.362 83.0967C391.877 81.7788 392.804 80.6621 394.004 79.9122C395.153 79.2687 396.405 78.8295 397.704 78.6143C398.401 78.4168 399.133 78.3756 399.848 78.4935C400.335 78.6388 400.791 78.8743 401.192 79.1878C402.198 79.8495 402.933 80.8514 403.261 82.01C403.412 82.9603 403.335 83.9332 403.034 84.8474C402.782 85.8697 402.396 86.8542 401.886 87.7753C401.356 88.6802 400.651 89.4706 399.811 90.1005C398.972 90.7303 398.016 91.1871 396.999 91.4441C395.981 91.7011 394.923 91.7533 393.885 91.5976C392.848 91.4419 391.851 91.0815 390.954 90.5372" fill="white"/>
<path d="M395.061 92.4539C393.465 92.4575 391.899 92.0243 390.531 91.2013C390.357 91.095 390.233 90.9241 390.184 90.7261C390.136 90.528 390.169 90.319 390.275 90.1448C390.326 90.0554 390.395 89.9772 390.477 89.9149C390.559 89.8526 390.653 89.8074 390.753 89.7821C390.853 89.7568 390.957 89.7518 391.059 89.7674C391.161 89.783 391.259 89.819 391.347 89.8731C392.155 90.3629 393.052 90.6872 393.987 90.8271C394.922 90.9669 395.875 90.9196 396.791 90.6879C397.707 90.4562 398.568 90.0446 399.324 89.4772C400.079 88.9098 400.714 88.1979 401.192 87.3829C401.673 86.5257 402.033 85.6065 402.264 84.6512C402.539 83.8568 402.617 83.0072 402.49 82.1761C402.185 81.2099 401.556 80.3784 400.709 79.8217C400.39 79.565 400.027 79.3705 399.637 79.2481C399.041 79.1639 398.434 79.205 397.855 79.3689C396.642 79.5707 395.472 79.9791 394.397 80.5763C393.345 81.233 392.535 82.2126 392.087 83.3684C392.012 83.5622 391.864 83.7188 391.674 83.8036C391.485 83.8885 391.269 83.8948 391.075 83.8211C390.881 83.7468 390.724 83.5986 390.639 83.4091C390.554 83.2195 390.548 83.0041 390.622 82.8099C391.215 81.3262 392.275 80.0758 393.642 79.2481C394.867 78.5605 396.199 78.0859 397.583 77.8446C398.395 77.6206 399.247 77.5845 400.075 77.7389C400.669 77.9018 401.224 78.1843 401.705 78.569C402.859 79.3382 403.7 80.4944 404.076 81.8289C404.25 82.9095 404.167 84.016 403.834 85.0587C403.565 86.1464 403.148 87.1924 402.596 88.1677C401.999 89.1693 401.209 90.0418 400.27 90.7337C399.331 91.4257 398.264 91.9233 397.13 92.1974C396.454 92.3686 395.759 92.4548 395.061 92.4539Z" fill="#231F20"/>
<path d="M370.041 75.5052C370.041 75.5052 363.608 82.3873 364.62 83.9268C365.631 85.4662 369.15 85.1341 369.15 85.1341" fill="white"/>
<path d="M368.44 85.934C367.172 85.934 364.937 85.7228 364.031 84.3343C362.823 82.6137 366.93 77.7238 369.497 75.0676C369.566 74.9973 369.648 74.9415 369.739 74.9034C369.83 74.8652 369.927 74.8456 370.026 74.8456C370.124 74.8456 370.221 74.8652 370.312 74.9034C370.403 74.9415 370.485 74.9973 370.554 75.0676C370.693 75.2112 370.771 75.4033 370.771 75.6034C370.771 75.8034 370.693 75.9955 370.554 76.1391C367.534 79.3538 365.042 82.8703 365.224 83.6853C365.782 84.5154 368.078 84.621 369.104 84.5305C369.302 84.5175 369.496 84.5808 369.648 84.7072C369.8 84.8336 369.897 85.0135 369.92 85.2096C369.937 85.4075 369.875 85.604 369.748 85.7566C369.62 85.9092 369.438 86.0055 369.24 86.0246C368.972 86.0084 368.705 85.9782 368.44 85.934Z" fill="#231F20"/>
<path d="M377.466 73.7265C377.839 72.7885 377.601 71.8131 376.934 71.5479C376.267 71.2827 375.424 71.828 375.05 72.766C374.677 73.7039 374.915 74.6793 375.582 74.9446C376.249 75.2098 377.093 74.6644 377.466 73.7265Z" fill="#231F20"/>
<path d="M367.944 72.1472C368.314 71.2092 368.074 70.2353 367.407 69.972C366.74 69.7087 365.899 70.2557 365.528 71.1937C365.157 72.1318 365.398 73.1057 366.065 73.369C366.732 73.6323 367.573 73.0853 367.944 72.1472Z" fill="#231F20"/>
<path d="M366.93 88.6507L373.68 89.0883C373.68 89.0883 374.118 93.9632 370.463 94.8385C366.809 95.7139 366.93 88.6507 366.93 88.6507Z" fill="white"/>
<path d="M369.844 95.6233C369.224 95.6321 368.621 95.4239 368.138 95.0347C366.13 93.4349 366.145 89.0883 366.145 88.5903C366.151 88.3845 366.238 88.1894 366.386 88.0469C366.543 87.9164 366.741 87.8467 366.945 87.8508L373.695 88.3035C373.876 88.3103 374.048 88.3832 374.179 88.5084C374.31 88.6335 374.39 88.8023 374.405 88.9827C374.571 90.8843 373.997 94.7027 370.614 95.5327C370.362 95.591 370.104 95.6213 369.844 95.6233ZM367.685 89.4204C367.76 90.8088 368.093 93.0727 369.074 93.8575C369.243 93.9836 369.438 94.0684 369.645 94.1051C369.853 94.1418 370.066 94.1294 370.267 94.0688C372.547 93.5104 372.879 90.9749 372.91 89.7524L367.685 89.4204Z" fill="#231F20"/>
<path d="M406.19 79.9877C406.085 80.0084 405.978 80.0084 405.873 79.9877C405.779 79.9468 405.694 79.8877 405.624 79.8137C405.553 79.7397 405.498 79.6524 405.461 79.5569C405.425 79.4613 405.407 79.3594 405.411 79.2572C405.414 79.155 405.438 79.0544 405.48 78.9614C407.506 74.9102 408.682 70.4884 408.938 65.9669C409.044 63.7717 408.647 61.5814 407.778 59.5625C406.909 57.5436 405.592 55.7492 403.925 54.3156C402.007 52.8064 398.942 51.8858 396.722 53.3044C396.601 53.3846 396.46 53.429 396.315 53.4326C396.17 53.4361 396.027 53.3987 395.903 53.3246C395.778 53.2505 395.677 53.1427 395.611 53.0136C395.545 52.8846 395.517 52.7395 395.529 52.5951C395.491 52.0854 395.348 51.589 395.109 51.1372C394.87 50.6853 394.54 50.2876 394.14 49.969C387.647 43.3133 377.334 42.6945 368.546 43.1624C369.423 43.9392 370.213 44.8097 370.901 45.7583C370.972 45.8799 371.009 46.0178 371.009 46.1582C371.009 46.2986 370.972 46.4366 370.901 46.5582C370.842 46.6825 370.751 46.7887 370.636 46.8657C370.522 46.9427 370.39 46.9876 370.252 46.9959C365.453 47.2784 360.653 46.4736 356.209 44.6415C356.724 48.3516 357.793 51.9635 359.38 55.357C359.446 55.492 359.47 55.6433 359.451 55.7923C359.432 55.9412 359.369 56.0812 359.272 56.1951C359.174 56.309 359.045 56.3918 358.9 56.4333C358.756 56.4747 358.602 56.4731 358.459 56.4286C354.665 55.3084 351.391 52.8808 349.218 49.5766C348.778 52.9909 349.173 56.4609 350.37 59.6889C351.566 62.9169 353.529 65.8066 356.088 68.11C356.161 68.1804 356.219 68.2648 356.259 68.3582C356.299 68.4515 356.319 68.5519 356.319 68.6533C356.319 68.7548 356.299 68.8552 356.259 68.9485C356.219 69.0419 356.161 69.1263 356.088 69.1967C356.016 69.2701 355.931 69.3285 355.836 69.3684C355.741 69.4082 355.64 69.4288 355.537 69.4288C355.434 69.4288 355.333 69.4082 355.238 69.3684C355.143 69.3285 355.058 69.2701 354.986 69.1967C351.945 66.473 349.694 62.9813 348.469 59.0882C347.244 55.1951 347.091 51.0442 348.025 47.0713C348.062 46.9144 348.148 46.7732 348.27 46.6676C348.392 46.562 348.544 46.4973 348.704 46.4827C348.865 46.4721 349.026 46.5094 349.166 46.59C349.305 46.6706 349.418 46.7908 349.49 46.9355C351.074 50.2278 353.799 52.8339 357.16 54.2704C355.765 50.7842 354.885 47.1135 354.548 43.3737C354.536 43.2376 354.56 43.1007 354.617 42.9766C354.675 42.8526 354.763 42.7456 354.875 42.6663C354.986 42.587 355.116 42.5382 355.252 42.5246C355.388 42.511 355.525 42.5332 355.65 42.5889C359.725 44.4861 364.172 45.4503 368.667 45.4112C367.868 44.5304 366.966 43.7499 365.979 43.0869C365.843 42.996 365.74 42.8652 365.682 42.7127C365.625 42.5602 365.616 42.3935 365.657 42.2359C365.699 42.0783 365.789 41.9375 365.914 41.833C366.039 41.7286 366.194 41.6657 366.356 41.6532C375.884 40.974 387.768 41.1551 395.227 48.8069C395.99 49.5166 396.565 50.4029 396.904 51.3877C398.258 50.9754 399.695 50.9086 401.082 51.1933C402.469 51.478 403.763 52.1052 404.846 53.0177C406.702 54.5974 408.172 56.5795 409.146 58.813C410.119 61.0466 410.57 63.4726 410.463 65.9065C410.209 70.6325 408.986 75.2559 406.87 79.4896C406.815 79.6286 406.723 79.7492 406.602 79.8375C406.482 79.9257 406.339 79.9778 406.19 79.9877Z" fill="#231F20"/>
<path d="M371.46 99.336C371.46 99.336 379.206 100.091 382.996 98.3248C382.996 98.3248 379.161 106.867 370.554 108.301L371.46 99.336Z" fill="#231F20"/>
<path d="M370.614 109.04C370.52 109.043 370.426 109.028 370.338 108.994C370.25 108.96 370.169 108.909 370.101 108.844C370.013 108.769 369.945 108.673 369.903 108.565C369.861 108.457 369.846 108.34 369.859 108.225L370.781 99.2606C370.79 99.1632 370.819 99.0688 370.865 98.9826C370.911 98.8964 370.974 98.8202 371.05 98.7585C371.125 98.6967 371.213 98.6506 371.307 98.6228C371.4 98.595 371.499 98.5861 371.596 98.5965C371.596 98.5965 379.146 99.3058 382.755 97.6457C382.891 97.5787 383.045 97.5572 383.195 97.5843C383.344 97.6115 383.481 97.6859 383.585 97.7966C383.695 97.9013 383.769 98.0371 383.799 98.1855C383.829 98.334 383.812 98.488 383.751 98.6267C383.585 98.9889 379.644 107.561 370.735 109.04H370.614ZM372.2 100.151L371.46 107.365C375.65 106.154 379.223 103.398 381.456 99.653C378.407 100.235 375.294 100.402 372.2 100.151Z" fill="#231F20"/>
<path d="M420.641 115.817C420.641 115.817 437.9 124.057 446.869 147.164C455.839 170.27 463.812 223.983 463.812 223.983L436.843 226.323C436.843 226.323 433.325 170.27 414.193 143.557L420.641 115.817Z" fill="#1DBF73"/>
<path d="M343.419 219.32C343.306 219.318 343.195 219.292 343.093 219.242C342.991 219.193 342.901 219.121 342.83 219.033C342.763 218.957 342.711 218.868 342.679 218.771C342.647 218.674 342.635 218.572 342.643 218.471C342.652 218.369 342.681 218.27 342.729 218.18C342.776 218.09 342.842 218.011 342.921 217.947L356.239 206.944C356.317 206.88 356.408 206.831 356.505 206.801C356.602 206.771 356.704 206.761 356.805 206.771C356.906 206.781 357.004 206.811 357.093 206.858C357.183 206.906 357.262 206.971 357.326 207.05C357.458 207.21 357.521 207.416 357.501 207.623C357.481 207.829 357.38 208.019 357.221 208.152L343.918 219.139C343.779 219.257 343.602 219.322 343.419 219.32Z" fill="#231F20"/>
<path d="M418.361 219.32C418.209 219.321 418.061 219.273 417.938 219.184C412.638 215.713 400.271 207.457 399.697 205.767C399.634 205.569 399.651 205.354 399.744 205.168C399.837 204.982 399.999 204.84 400.195 204.771C400.386 204.708 400.593 204.721 400.774 204.809C400.954 204.896 401.093 205.05 401.162 205.239C401.826 206.356 410.629 212.544 418.783 217.886C418.87 217.943 418.944 218.016 419.002 218.101C419.06 218.186 419.101 218.282 419.122 218.383C419.143 218.484 419.144 218.588 419.125 218.689C419.105 218.79 419.066 218.887 419.01 218.973C418.939 219.08 418.843 219.168 418.729 219.229C418.616 219.29 418.489 219.321 418.361 219.32Z" fill="#231F20"/>
<path d="M392.842 165.863C392.715 165.864 392.59 165.832 392.479 165.772C392.295 165.676 392.157 165.511 392.095 165.313C392.033 165.115 392.051 164.9 392.147 164.716L404.061 142.228L395.076 135.301C394.986 135.231 394.912 135.142 394.86 135.04C394.808 134.938 394.779 134.827 394.774 134.712C394.77 134.599 394.791 134.486 394.835 134.382C394.88 134.278 394.946 134.184 395.031 134.109C395.333 133.837 401.977 127.891 403.744 126.427C403.125 125.084 399.017 120.526 395.273 116.783C395.154 116.632 395.096 116.443 395.107 116.251C395.119 116.06 395.2 115.88 395.336 115.744C395.471 115.608 395.652 115.527 395.843 115.516C396.035 115.504 396.224 115.563 396.375 115.681C399.788 119.092 405.435 125.053 405.435 126.698C405.425 126.842 405.385 126.983 405.318 127.11C405.25 127.237 405.156 127.349 405.042 127.438C404.272 128.011 399.682 132.101 396.828 134.637L405.586 141.398C405.733 141.51 405.835 141.67 405.874 141.85C405.912 142.03 405.885 142.218 405.797 142.379L393.581 165.44C393.515 165.577 393.409 165.691 393.277 165.766C393.145 165.841 392.993 165.875 392.842 165.863Z" fill="#231F20"/>
<path d="M363.789 156.898C363.647 156.899 363.508 156.862 363.386 156.79C363.263 156.718 363.163 156.615 363.095 156.491L352.781 136.674C352.687 136.503 352.662 136.303 352.713 136.114C352.764 135.925 352.886 135.764 353.053 135.663L361.826 130.064L354.669 125.295C354.572 125.232 354.491 125.149 354.432 125.05C354.372 124.952 354.335 124.842 354.323 124.728C354.312 124.613 354.326 124.498 354.365 124.39C354.404 124.281 354.466 124.183 354.548 124.103L364.318 114.308C364.469 114.189 364.658 114.131 364.849 114.142C365.041 114.154 365.221 114.235 365.357 114.371C365.493 114.506 365.574 114.687 365.586 114.878C365.597 115.069 365.538 115.258 365.42 115.409L356.36 124.465L363.684 129.4C363.79 129.471 363.877 129.568 363.938 129.681C363.999 129.794 364.03 129.921 364.031 130.049C364.026 130.178 363.991 130.304 363.928 130.417C363.865 130.53 363.776 130.626 363.668 130.698L354.488 136.554L364.484 155.736C364.575 155.921 364.592 156.134 364.53 156.331C364.468 156.528 364.333 156.693 364.152 156.792C364.038 156.849 363.915 156.885 363.789 156.898Z" fill="#231F20"/>
<path d="M381.713 275.795C381.532 275.798 381.356 275.735 381.218 275.619C381.079 275.502 380.987 275.34 380.958 275.162C380.716 273.652 374.918 237.144 375.25 230.217C375.262 230.016 375.353 229.829 375.503 229.696C375.653 229.563 375.85 229.495 376.05 229.507C376.251 229.519 376.438 229.61 376.571 229.76C376.704 229.91 376.772 230.107 376.76 230.307C376.352 237.069 382.392 274.543 382.453 274.92C382.468 275.018 382.463 275.118 382.44 275.215C382.416 275.311 382.373 275.402 382.314 275.482C382.255 275.562 382.181 275.629 382.096 275.68C382.011 275.732 381.917 275.766 381.819 275.78L381.713 275.795Z" fill="white"/>
<path d="M437.085 224.074C436.904 224.073 436.73 224.01 436.592 223.894C436.454 223.778 436.361 223.617 436.33 223.44L418.814 136.735C418.794 136.635 418.794 136.532 418.815 136.432C418.836 136.332 418.876 136.237 418.933 136.152C418.991 136.068 419.065 135.996 419.151 135.941C419.236 135.885 419.332 135.847 419.433 135.829C419.532 135.807 419.635 135.806 419.735 135.824C419.835 135.843 419.93 135.882 420.014 135.938C420.099 135.995 420.171 136.067 420.227 136.152C420.283 136.238 420.321 136.333 420.339 136.433L437.9 223.138C437.922 223.238 437.924 223.34 437.905 223.44C437.886 223.54 437.847 223.635 437.791 223.72C437.735 223.804 437.662 223.877 437.577 223.932C437.492 223.988 437.396 224.026 437.296 224.044L437.085 224.074Z" fill="#231F20"/>
<path d="M197.553 305.618L194.699 372.899C194.699 372.899 222.121 389.199 220.883 390.905C219.645 392.61 171.642 384.158 171.642 384.158L174.873 306.433" fill="white"/>
<path d="M219.101 391.765C213.318 391.765 197.372 389.486 171.506 384.928C171.318 384.898 171.147 384.8 171.028 384.653C170.908 384.505 170.847 384.318 170.856 384.128L174.088 306.403C174.1 306.197 174.192 306.004 174.344 305.866C174.497 305.728 174.697 305.655 174.903 305.663C175.006 305.667 175.106 305.691 175.199 305.734C175.292 305.778 175.376 305.839 175.445 305.915C175.514 305.991 175.567 306.08 175.601 306.177C175.635 306.273 175.649 306.376 175.643 306.478L172.442 383.449C189.052 386.362 214.888 390.482 219.765 390.316C217.41 387.871 205.511 380.174 194.307 373.518C194.187 373.444 194.089 373.339 194.022 373.214C193.956 373.09 193.924 372.95 193.929 372.809L196.783 305.527C196.785 305.425 196.807 305.324 196.849 305.23C196.89 305.137 196.95 305.052 197.025 304.982C197.099 304.912 197.187 304.857 197.283 304.821C197.379 304.785 197.481 304.769 197.583 304.773C197.687 304.777 197.788 304.801 197.882 304.844C197.976 304.887 198.06 304.948 198.13 305.024C198.2 305.099 198.255 305.188 198.29 305.285C198.326 305.382 198.343 305.485 198.338 305.588L195.5 372.416C203.518 377.186 221.17 387.946 221.668 390.527C221.706 390.667 221.711 390.813 221.682 390.955C221.653 391.096 221.592 391.229 221.502 391.342C221.311 391.624 220.51 391.765 219.101 391.765Z" fill="#231F20"/>
<path d="M204.137 375.148L195.258 383.162L169.769 379.616V389.727C169.769 389.727 226.047 397.153 228.659 392.489C231.272 387.826 204.137 375.148 204.137 375.148Z" fill="#231F20"/>
<path d="M179.192 319.88L176.353 387.177C176.353 387.177 203.759 403.476 202.521 405.167C201.283 406.857 153.28 398.436 153.28 398.436L156.512 320.71" fill="white"/>
<path d="M200.739 406.042C194.956 406.042 179.011 403.748 153.144 399.205C152.958 399.173 152.789 399.074 152.67 398.927C152.551 398.78 152.488 398.595 152.495 398.405L155.726 320.68C155.742 320.474 155.834 320.282 155.985 320.142C156.137 320.002 156.336 319.925 156.542 319.925C156.645 319.929 156.746 319.953 156.84 319.997C156.934 320.04 157.018 320.101 157.088 320.176C157.158 320.252 157.213 320.341 157.249 320.438C157.284 320.534 157.301 320.637 157.297 320.74L154.08 397.711C170.69 400.624 196.511 404.744 201.404 404.563C199.048 402.118 187.165 394.436 175.945 387.765C175.825 387.691 175.727 387.586 175.661 387.461C175.595 387.337 175.562 387.197 175.568 387.056L178.422 319.774C178.468 319.61 178.568 319.466 178.704 319.363C178.84 319.261 179.006 319.205 179.177 319.205C179.347 319.205 179.513 319.261 179.649 319.363C179.786 319.466 179.885 319.61 179.932 319.774L177.093 386.603C185.111 391.372 202.763 402.133 203.276 404.714C203.307 404.856 203.309 405.004 203.28 405.146C203.251 405.289 203.194 405.425 203.11 405.544C202.944 405.906 202.144 406.042 200.739 406.042Z" fill="#231F20"/>
<path d="M185.549 389.305L176.851 397.515L151.287 394.497L151.468 404.593C151.468 404.593 207.897 410.751 210.358 406.027C212.819 401.303 185.549 389.305 185.549 389.305Z" fill="#231F20"/>
<path d="M210.796 197.059C213.001 212.061 201.736 360.463 201.736 360.463C185.468 362.109 169.062 361.836 152.857 359.648C139.932 332.829 126.251 248.931 130.056 229.387C133.862 209.842 143.088 189.498 143.088 189.498C143.088 189.498 210.872 197.602 210.796 197.059Z" fill="#231F20"/>
<path d="M210.932 204.696C210.932 204.696 218.391 125.053 214.737 119.077C202.461 99.0493 138.709 99.6832 133.288 118.669C129.014 133.611 136.534 195.202 136.534 195.202L210.932 204.696Z" fill="#1DBF73"/>
<path d="M171.294 189.498C171.294 189.498 216.594 199.277 233.204 196.289L237.281 175.16C237.281 175.16 184.613 167.84 180.536 165.123C176.459 162.407 176.187 134.728 176.187 134.728C176.187 134.728 163.427 137.444 160.181 144.236C156.934 151.027 153.914 182.223 171.294 189.498Z" fill="#1DBF73"/>
<path d="M165.315 111.289C164.197 111.938 191.785 158.075 191.785 158.075L182.861 110.338C182.861 110.338 175.9 105.252 165.315 111.289Z" fill="white"/>
<path d="M220.837 198.825C220.098 198.825 146.847 193.376 145.579 148.009C145.575 147.906 145.591 147.804 145.627 147.708C145.663 147.613 145.718 147.525 145.788 147.45C145.859 147.376 145.943 147.316 146.037 147.275C146.131 147.233 146.232 147.211 146.334 147.209C146.437 147.203 146.54 147.218 146.637 147.253C146.734 147.288 146.823 147.343 146.897 147.413C146.972 147.484 147.032 147.569 147.073 147.664C147.114 147.758 147.135 147.86 147.134 147.963C148.327 191.927 220.218 197.225 220.943 197.27C221.107 197.317 221.252 197.416 221.354 197.552C221.457 197.688 221.513 197.854 221.513 198.025C221.513 198.195 221.457 198.361 221.354 198.497C221.252 198.633 221.107 198.732 220.943 198.779L220.837 198.825Z" fill="#231F20"/>
<path d="M165.315 111.289C164.469 101.117 163.805 92.1672 163.02 81.9949C162.763 78.237 162.355 74.4488 162.249 70.6908C162.098 65.2425 164.469 66.5102 169.799 66.4649C170.182 62.9635 170.716 59.4923 171.4 56.0512L174.012 64.669C182.151 62.3749 199.063 64.669 199.063 64.669C199.063 64.669 200.77 81.0592 198.61 88.8167C195.5 100.015 180.943 97.5551 180.943 97.5551L182.831 110.338C182.831 110.338 183.374 114.534 178.301 115.968C170.992 118.035 165.315 111.289 165.315 111.289Z" fill="white"/>
<path d="M175.462 117.145C172.436 117.062 169.517 116.003 167.142 114.126C167.142 114.126 164.681 112.255 164.545 111.47C163.729 101.721 163.035 92.5143 162.249 82.161C162.159 80.9687 162.068 79.7613 161.963 78.5539C161.751 76.0184 161.54 73.4074 161.464 70.8266C161.464 68.6684 161.721 67.4158 162.521 66.631C163.563 65.6047 165.118 65.6651 167.278 65.7556C167.852 65.7556 168.456 65.7556 169.135 65.7556C169.513 62.4806 170.026 59.1904 170.645 55.9758C170.67 55.7989 170.756 55.6364 170.889 55.516C171.021 55.3957 171.19 55.3249 171.369 55.316C171.547 55.3071 171.724 55.3605 171.867 55.4671C172.01 55.5737 172.112 55.7269 172.155 55.9003L174.541 63.7936C182.952 61.8014 198.489 63.7936 199.154 63.8842C199.329 63.9069 199.491 63.9877 199.614 64.1136C199.737 64.2395 199.815 64.4032 199.833 64.5784C199.833 65.2576 201.54 81.18 199.35 89.0431C196.602 98.9587 185.368 98.7776 181.864 98.4607L183.601 110.233C183.601 110.233 184.175 115.138 178.527 116.722C177.53 117.003 176.498 117.145 175.462 117.145ZM166.1 111.017C167.036 112.029 172.034 116.949 178.18 115.213C182.499 113.991 182.151 110.565 182.136 110.429L180.203 97.7061C180.186 97.5853 180.197 97.4622 180.237 97.3467C180.276 97.2313 180.342 97.1268 180.43 97.042C180.517 96.9537 180.625 96.8882 180.743 96.8513C180.862 96.8145 180.987 96.8074 181.109 96.8307C181.668 96.9212 195.001 99.0342 197.885 88.6507C199.743 81.9497 198.656 68.4269 198.369 65.3934C195.273 65.0312 181.275 63.537 174.209 65.5141C174.113 65.5442 174.011 65.5547 173.911 65.545C173.811 65.5354 173.713 65.5058 173.625 65.458C173.536 65.4101 173.458 65.3451 173.395 65.2666C173.332 65.1881 173.285 65.0978 173.257 65.001L171.566 59.4319C171.158 61.8316 170.811 64.2464 170.554 66.646C170.532 66.8356 170.442 67.0106 170.3 67.1383C170.159 67.2661 169.975 67.3379 169.784 67.3403C168.833 67.3403 167.957 67.3403 167.172 67.3403C165.405 67.3403 164.152 67.2196 163.563 67.7629C163.021 68.6695 162.812 69.7373 162.974 70.7813C163.05 73.3169 163.261 75.9127 163.473 78.4181C163.563 79.6405 163.669 80.8479 163.759 82.0553C164.59 92.2426 165.269 101.373 166.1 111.017Z" fill="#231F20"/>
<path d="M180.974 97.5551C180.974 97.5551 174.934 96.8005 171.989 93.8273C171.989 93.8273 175.96 103.743 182.076 105.237L180.974 97.5551Z" fill="#231F20"/>
<path d="M182.076 106.263C181.996 106.278 181.914 106.278 181.834 106.263C175.266 104.679 171.264 94.6725 171.023 94.1895C170.942 93.9695 170.939 93.7289 171.012 93.5065C171.085 93.284 171.232 93.0928 171.427 92.9637C171.623 92.8346 171.856 92.7752 172.089 92.7949C172.323 92.8147 172.543 92.9126 172.714 93.0727C175.417 95.7742 181.049 96.4987 181.109 96.5137C181.334 96.5414 181.542 96.6422 181.703 96.8004C181.864 96.9587 181.969 97.1656 182 97.3891L183.103 105.071C183.124 105.218 183.114 105.368 183.072 105.51C183.031 105.653 182.959 105.785 182.861 105.896C182.763 106.008 182.643 106.098 182.507 106.159C182.371 106.219 182.224 106.25 182.076 106.248V106.263ZM174.616 96.8005C176.039 99.5908 178.175 101.955 180.807 103.652L180.052 98.4607C178.181 98.1242 176.356 97.5669 174.616 96.8005Z" fill="#231F20"/>
<path d="M165.345 77.9351C165.086 76.647 164.474 75.456 163.579 74.4942C162.683 73.5324 161.538 72.8376 160.271 72.4868C159.706 72.3016 159.108 72.2394 158.517 72.3045C157.925 72.3696 157.355 72.5604 156.844 72.8641C156.246 73.3766 155.793 74.0359 155.528 74.7769C155.263 75.5179 155.196 76.3152 155.334 77.0899C155.507 79.5732 156.626 81.8957 158.46 83.58C160.294 85.2642 162.704 86.1823 165.194 86.1453" fill="white"/>
<path d="M165.013 86.9301C162.34 86.9375 159.764 85.9328 157.803 84.1183C155.842 82.3037 154.641 79.814 154.443 77.1503C154.301 76.2333 154.402 75.2951 154.736 74.4292C155.07 73.5634 155.625 72.8 156.345 72.2151C156.955 71.8521 157.635 71.6215 158.34 71.5383C159.045 71.4551 159.76 71.5212 160.438 71.7322C161.841 72.1224 163.11 72.8927 164.104 73.9579C165.098 75.0231 165.778 76.342 166.07 77.7691C166.094 77.9632 166.043 78.1592 165.928 78.3172C165.813 78.4753 165.642 78.5835 165.449 78.62C165.257 78.6565 165.058 78.6185 164.893 78.5138C164.728 78.409 164.609 78.2452 164.56 78.0558C164.312 76.9166 163.76 75.8657 162.963 75.0153C162.165 74.1648 161.151 73.5465 160.03 73.2263C159.572 73.0691 159.085 73.012 158.604 73.0589C158.122 73.1057 157.655 73.2555 157.236 73.498C156.763 73.9449 156.403 74.4989 156.188 75.1133C155.972 75.7278 155.907 76.3849 155.998 77.0296C156.163 79.3087 157.193 81.4387 158.877 82.9843C160.561 84.5299 162.772 85.3745 165.058 85.3454C165.175 85.3121 165.298 85.3063 165.417 85.3285C165.537 85.3507 165.65 85.4004 165.747 85.4735C165.844 85.5467 165.922 85.6413 165.977 85.7501C166.031 85.8588 166.059 85.9786 166.059 86.1001C166.059 86.2215 166.031 86.3413 165.977 86.4501C165.922 86.5588 165.844 86.6534 165.747 86.7266C165.65 86.7997 165.537 86.8494 165.417 86.8716C165.298 86.8938 165.175 86.888 165.058 86.8547L165.013 86.9301Z" fill="#231F20"/>
<path d="M196.864 68.3935C196.915 67.3695 196.511 66.5173 195.961 66.4899C195.411 66.4626 194.924 67.2705 194.873 68.2944C194.822 69.3184 195.226 70.1707 195.776 70.198C196.326 70.2254 196.813 69.4175 196.864 68.3935Z" fill="#231F20"/>
<path d="M187.678 69.6677C187.729 68.6437 187.325 67.7914 186.775 67.7641C186.225 67.7367 185.738 68.5446 185.687 69.5686C185.636 70.5926 186.041 71.4448 186.59 71.4722C187.14 71.4995 187.627 70.6916 187.678 69.6677Z" fill="#231F20"/>
<path d="M196.028 88.0017C194.716 88.8418 193.279 89.4684 191.77 89.858C189.762 90.3863 187.331 90.3712 185.941 88.8318C185.374 88.1384 184.953 87.3376 184.703 86.4774" fill="white"/>
<path d="M189.49 90.9447C188.737 90.9848 187.984 90.8642 187.281 90.591C186.578 90.3178 185.941 89.8981 185.413 89.36C184.785 88.5876 184.314 87.7009 184.024 86.749C183.952 86.5489 183.962 86.3283 184.053 86.1359C184.143 85.9434 184.307 85.7948 184.507 85.7228C184.707 85.6507 184.928 85.6611 185.12 85.7517C185.313 85.8422 185.462 86.0056 185.534 86.2057C185.767 86.9694 186.135 87.685 186.621 88.3186C188.131 89.8279 190.849 89.3147 191.664 89.1034C193.076 88.7303 194.421 88.1397 195.651 87.3527C195.823 87.2406 196.033 87.2015 196.234 87.244C196.435 87.2864 196.611 87.407 196.723 87.5791C196.835 87.7512 196.874 87.9608 196.832 88.1618C196.789 88.3627 196.669 88.5386 196.496 88.6507C195.135 89.5352 193.642 90.1975 192.072 90.6127C191.229 90.8329 190.361 90.9445 189.49 90.9447Z" fill="#231F20"/>
<path d="M193.975 71.8076C193.975 71.8076 202.37 81.3611 200.301 83.4136C198.233 85.4662 193.386 84.4399 193.386 84.4399" fill="white"/>
<path d="M196.043 85.4813C195.101 85.4776 194.161 85.3866 193.235 85.2096C193.066 85.1394 192.927 85.0125 192.842 84.8507C192.756 84.689 192.73 84.5026 192.768 84.3237C192.806 84.1449 192.904 83.9847 193.047 83.8709C193.191 83.7571 193.369 83.6968 193.552 83.7004C194.79 83.957 198.308 84.3192 199.758 82.8854C200.558 82.0704 197.523 77.0447 193.386 72.3208C193.254 72.1626 193.189 71.96 193.203 71.7548C193.217 71.5496 193.309 71.3578 193.461 71.219C193.533 71.1456 193.619 71.0872 193.713 71.0473C193.808 71.0074 193.91 70.9869 194.012 70.9869C194.115 70.9869 194.217 71.0074 194.311 71.0473C194.406 71.0872 194.492 71.1456 194.564 71.219C197.236 74.2375 203.186 81.5724 200.86 83.8966C199.514 85.0167 197.792 85.5832 196.043 85.4813Z" fill="#231F20"/>
<path d="M210.66 172.368H210.464C185.186 165.788 171.989 152.597 165.36 142.681C161.124 136.623 158.254 129.718 156.949 122.442C156.924 122.24 156.979 122.036 157.104 121.875C157.228 121.714 157.412 121.608 157.614 121.582C157.82 121.556 158.028 121.614 158.192 121.741C158.356 121.868 158.463 122.055 158.49 122.261C158.49 122.623 163.503 158.483 210.856 170.859C211.033 170.909 211.186 171.022 211.287 171.176C211.388 171.33 211.431 171.515 211.407 171.697C211.383 171.88 211.295 172.048 211.158 172.171C211.021 172.294 210.844 172.364 210.66 172.368Z" fill="#231F20"/>
<path d="M146.787 97.042C146.623 97.0455 146.463 96.9922 146.334 96.8911C146.234 96.8208 146.153 96.7283 146.095 96.6209C146.037 96.5135 146.005 96.3941 146.002 96.2723L145.836 73.1207C145.836 66.1631 145.73 58.2698 148.856 51.3575C150.774 47.026 154.594 41.8192 159.547 40.1892C160.817 39.7606 162.163 39.5997 163.498 39.7166C164.834 39.8335 166.131 40.2256 167.308 40.8684C169.069 39.4828 170.904 38.193 172.804 37.0047C175.182 35.8145 177.728 34.9951 180.354 34.5749C185.202 33.7599 189.414 34.6805 194.684 37.5933C197.809 39.4894 200.527 41.9843 202.683 44.9345C204.84 47.8846 206.391 51.2319 207.248 54.7835C208.92 61.8192 208.92 69.1487 207.248 76.1844C207.245 76.2998 207.218 76.4133 207.166 76.5168C207.115 76.6203 207.042 76.7112 206.951 76.7831C206.861 76.855 206.756 76.906 206.643 76.9326C206.531 76.9592 206.414 76.9607 206.301 76.937C206.188 76.9133 206.082 76.8649 205.989 76.7954C205.897 76.7258 205.822 76.6368 205.768 76.5347C205.714 76.4325 205.683 76.3198 205.678 76.2044C205.673 76.0891 205.693 75.974 205.738 75.8675C207.349 69.0643 207.349 61.979 205.738 55.1759C204.934 51.826 203.476 48.668 201.447 45.8836C199.418 43.0992 196.858 40.7433 193.914 38.9516C188.992 36.1596 185.126 35.3446 180.611 36.0841C178.157 36.4934 175.78 37.272 173.559 38.3932C173.091 38.6347 168.425 41.9399 167.927 42.3323L167.821 42.4229C167.7 42.4931 167.562 42.53 167.421 42.53C167.281 42.53 167.143 42.4931 167.021 42.4229C165.995 41.7979 164.844 41.4039 163.65 41.2684C162.455 41.1328 161.246 41.259 160.105 41.6381C155.575 43.1473 152.117 47.9316 150.336 51.9612C147.406 58.5717 147.452 66.2838 147.512 73.0905L147.663 95.1856C149.233 94.7637 150.854 94.5655 152.48 94.597C152.428 93.0261 152.86 91.4771 153.718 90.1599C153.806 90.0428 153.924 89.9515 154.06 89.8957C154.195 89.84 154.343 89.8217 154.488 89.8429C154.632 89.8673 154.765 89.931 154.875 90.0269C154.984 90.1229 155.065 90.2473 155.107 90.3863C155.497 91.6842 155.7 93.0308 155.711 94.3857L159.29 94.1594C159.393 94.1532 159.496 94.1675 159.594 94.2014C159.692 94.2353 159.782 94.2881 159.859 94.3568C159.936 94.4255 159.999 94.5087 160.044 94.6018C160.089 94.6948 160.115 94.7958 160.12 94.8989C160.127 95 160.113 95.1013 160.079 95.1971C160.046 95.2928 159.995 95.3811 159.927 95.4568C159.86 95.5325 159.778 95.5942 159.687 95.6383C159.596 95.6824 159.497 95.7081 159.396 95.7139L154.956 95.9855C154.847 95.9946 154.738 95.9789 154.636 95.9397C154.534 95.9005 154.442 95.8388 154.367 95.7591C154.287 95.6839 154.224 95.5925 154.183 95.491C154.141 95.3894 154.122 95.2802 154.126 95.1705C154.149 94.5047 154.114 93.838 154.02 93.1784C153.854 93.8805 153.823 94.6078 153.929 95.3215C153.944 95.4362 153.933 95.5528 153.896 95.6625C153.86 95.7723 153.799 95.8723 153.718 95.9553C153.64 96.0443 153.541 96.1128 153.431 96.1549C153.32 96.1969 153.201 96.2113 153.084 96.1968C151.039 96.0503 148.986 96.312 147.044 96.9665C146.963 97.0065 146.876 97.032 146.787 97.042Z" fill="#231F20"/>
<path d="M211.475 164.64C211.269 164.633 211.073 164.545 210.929 164.396C210.785 164.247 210.705 164.048 210.705 163.841C210.705 163.584 211.083 136.961 207.882 125.4C207.838 125.204 207.871 124.999 207.975 124.827C208.078 124.655 208.243 124.529 208.436 124.475C208.63 124.42 208.837 124.442 209.014 124.536C209.192 124.63 209.327 124.788 209.392 124.978C212.638 136.765 212.291 162.709 212.261 163.871C212.261 163.973 212.24 164.074 212.201 164.169C212.161 164.263 212.103 164.349 212.03 164.42C211.957 164.492 211.87 164.549 211.775 164.586C211.68 164.624 211.578 164.642 211.475 164.64Z" fill="#231F20"/>
<path d="M201.162 398.662C200.961 398.661 200.768 398.586 200.619 398.451C198.912 396.73 188.931 391.75 185.217 389.984C185.039 389.893 184.903 389.737 184.839 389.548C184.774 389.36 184.785 389.153 184.869 388.973C184.957 388.796 185.111 388.661 185.297 388.596C185.483 388.531 185.687 388.542 185.866 388.626C186.425 388.897 199.456 395.145 201.691 397.379C201.83 397.523 201.908 397.715 201.908 397.915C201.908 398.115 201.83 398.307 201.691 398.451C201.546 398.582 201.358 398.657 201.162 398.662Z" fill="white"/>
<path d="M139.796 226.081C139.697 226.1 139.595 226.099 139.496 226.079C139.397 226.058 139.303 226.018 139.22 225.962C139.136 225.905 139.065 225.832 139.01 225.748C138.954 225.664 138.916 225.569 138.897 225.47C138.878 225.371 138.879 225.269 138.9 225.17C138.92 225.072 138.96 224.978 139.017 224.894C139.074 224.811 139.146 224.74 139.231 224.684C139.315 224.629 139.41 224.591 139.509 224.572C148.826 220.678 152.072 208.906 152.102 208.786C152.128 208.686 152.173 208.593 152.235 208.512C152.297 208.43 152.374 208.361 152.462 208.309C152.551 208.258 152.648 208.224 152.75 208.209C152.851 208.195 152.954 208.201 153.054 208.227C153.153 208.253 153.246 208.298 153.328 208.36C153.409 208.421 153.478 208.499 153.53 208.587C153.582 208.675 153.616 208.773 153.63 208.874C153.644 208.976 153.638 209.079 153.612 209.178C153.476 209.691 150.154 221.795 140.143 225.961C140.036 226.022 139.918 226.063 139.796 226.081Z" fill="white"/>
</svg>
