<svg width="38" height="45" viewBox="0 0 38 45" fill="none" xmlns="http://www.w3.org/2000/svg">
<path d="M35.4189 28.5612L25.8575 44.9802L9.43853 35.4188C6.1912 33.5277 3.57754 30.7162 1.92811 27.3397C0.278685 23.9632 -0.332446 20.1735 0.171958 16.4496C0.676361 12.7258 2.27368 9.23517 4.76194 6.41911C7.25019 3.60313 10.5176 1.5882 14.151 0.629156C17.7844 -0.329888 21.6206 -0.189901 25.1745 1.03127C28.7283 2.25245 31.8403 4.50002 34.1168 7.48983C36.3932 10.4796 37.732 14.0774 37.9638 17.828C38.1955 21.5787 37.31 25.3139 35.4189 28.5612ZM20.0775 23.0823C21.1602 22.7964 22.0851 22.0922 22.6486 21.1245C23.2121 20.1569 23.3681 19.005 23.0824 17.9223C22.7965 16.8396 22.0923 15.9147 21.1247 15.3512C20.157 14.7876 19.0051 14.6316 17.9224 14.9174C16.8397 15.2032 15.9149 15.9074 15.3513 16.8751C14.7878 17.8428 14.6318 18.9947 14.9175 20.0774C15.2034 21.1601 15.9076 22.0849 16.8752 22.6485C17.8429 23.2119 18.9948 23.368 20.0775 23.0823Z" fill="#1DBF73"/>
<path d="M19.0275 23.4058C21.4565 23.4058 23.4256 21.4367 23.4256 19.0077C23.4256 16.5787 21.4565 14.6096 19.0275 14.6096C16.5984 14.6096 14.6293 16.5787 14.6293 19.0077C14.6293 21.4367 16.5984 23.4058 19.0275 23.4058Z" fill="#1DBF73"/>
<path d="M19.4368 7.31307C19.5236 7.24723 19.6009 7.16957 19.6661 7.08219H23.6628L23.7174 7.08068C24.0007 7.06628 24.2844 7.06628 24.5677 7.08068H24.6269C25.5151 7.07867 26.3923 7.27538 27.1946 7.6563C28.6605 8.23115 29.9284 9.21835 30.8451 10.4987C31.539 11.468 32.0111 12.5781 32.2278 13.7503C32.4445 14.9226 32.4007 16.1281 32.0994 17.2815L26.9809 12.2318C26.7619 12.0157 26.4665 11.8947 26.1589 11.8948H18.7566C18.5018 11.8961 18.254 11.9792 18.05 12.1319L15.1109 14.3596C14.953 14.4801 14.773 14.5682 14.581 14.619C14.389 14.6698 14.1889 14.6822 13.9921 14.6555C13.7953 14.6289 13.6058 14.5636 13.4343 14.4636C13.2627 14.3636 13.1126 14.2307 12.9924 14.0726C12.8729 13.9171 12.7854 13.7395 12.7348 13.55C12.6842 13.3606 12.6718 13.1629 12.698 12.9686C12.7243 12.7742 12.7888 12.587 12.8877 12.4177C12.9867 12.2484 13.1183 12.1003 13.2748 11.9822L19.4368 7.31307Z" fill="white"/>
<path d="M11.7351 24.5884L11.7148 24.6087L10.1953 26.1188L10.175 26.1376C9.90897 26.3906 9.55486 26.5301 9.18767 26.5266C8.82049 26.5231 8.46914 26.3768 8.20785 26.1188C8.07742 25.9895 7.97379 25.8355 7.90308 25.6659C7.83238 25.4963 7.79602 25.3143 7.79602 25.1305C7.79602 24.9468 7.83238 24.7649 7.90308 24.5952C7.97379 24.4256 8.07742 24.2717 8.20785 24.1423L9.72735 22.6322C9.99199 22.3702 10.3494 22.2232 10.7218 22.2232C11.0943 22.2232 11.4517 22.3702 11.7163 22.6322C11.9763 22.8903 12.124 23.2403 12.1275 23.6065C12.131 23.9727 11.99 24.3256 11.7351 24.5884Z" fill="white"/>
<path d="M11.2826 27.2375C11.0278 27.5007 10.8871 27.8536 10.8909 28.2198C10.8947 28.586 11.0427 28.936 11.3029 29.1937C11.852 29.7398 12.7412 29.7398 13.2918 29.1937L14.8113 27.6852C14.9588 27.5392 15.0719 27.3619 15.1421 27.1665C15.2123 26.9711 15.2378 26.7625 15.2169 26.5559C15.1959 26.3493 15.129 26.15 15.021 25.9726C14.9131 25.7953 14.7667 25.6443 14.5929 25.5309C14.3263 25.3555 14.0083 25.2755 13.6906 25.3038C13.3728 25.3321 13.0739 25.4671 12.8425 25.6869L12.8223 25.7087L11.3029 27.2173L11.2826 27.2375Z" fill="white"/>
<path d="M7.99422 20.1768C8.12466 20.3062 8.22829 20.4601 8.29899 20.6298C8.3697 20.7993 8.40606 20.9813 8.40606 21.1651C8.40606 21.3488 8.3697 21.5308 8.29899 21.7004C8.22829 21.8701 8.12466 22.024 7.99422 22.1534L6.47632 23.6634C6.2116 23.926 5.85388 24.0733 5.481 24.0733C5.10821 24.0733 4.7505 23.926 4.48577 23.6634C4.35525 23.5341 4.25162 23.3801 4.18092 23.2105C4.11021 23.0409 4.07385 22.8589 4.07385 22.6752C4.07385 22.4914 4.11021 22.3095 4.18092 22.1398C4.25162 21.9703 4.35525 21.8163 4.48577 21.6869L6.00677 20.1768C6.27141 19.9148 6.62879 19.7678 7.00125 19.7678C7.37371 19.7678 7.73109 19.9148 7.99573 20.1768H7.99422Z" fill="white"/>
<path d="M17.9063 28.7835C18.0368 28.9128 18.1405 29.0668 18.2112 29.2364C18.2819 29.406 18.3182 29.588 18.3182 29.7718C18.3182 29.9555 18.2819 30.1375 18.2112 30.3071C18.1405 30.4767 18.0368 30.6306 17.9063 30.76L16.3869 32.2701C16.1231 32.5336 15.7654 32.6818 15.3924 32.6818C15.0195 32.6818 14.6618 32.5336 14.3979 32.2701C14.1907 32.0647 14.0533 31.7993 14.0051 31.5115C13.957 31.2238 14.0005 30.9281 14.1296 30.6664L14.1311 30.6633C14.1992 30.5263 14.2893 30.4013 14.3979 30.2936L15.9174 28.7835C16.182 28.5214 16.5394 28.3744 16.9118 28.3744C17.2843 28.3744 17.6417 28.5214 17.9063 28.7835Z" fill="white"/>
<path d="M7.75082 9.91684C8.78669 8.88776 10.0427 8.10741 11.4241 7.63476C12.8057 7.1621 14.2765 7.00947 15.7256 7.18841L11.8614 10.1181C11.4591 10.4224 11.121 10.8034 10.8665 11.239C10.612 11.6747 10.4462 12.1563 10.3786 12.6563C10.311 13.1562 10.343 13.6646 10.4728 14.1521C10.6025 14.6396 10.8274 15.0967 11.1345 15.4969C11.7546 16.3051 12.669 16.8353 13.6784 16.9718C14.6879 17.1083 15.7104 16.84 16.5227 16.2254L19.1498 14.2365H25.6784L31.1493 19.634C31.1669 19.6558 31.1857 19.6767 31.2054 19.6965L32.9995 21.4905C33.403 21.8996 33.6343 22.448 33.6456 23.0226C33.6569 23.5972 33.4474 24.1543 33.0602 24.5791C32.6731 25.0038 32.1378 25.2638 31.5646 25.3057C30.9914 25.3475 30.424 25.168 29.9793 24.8039L29.8295 24.6542C29.8005 24.6247 29.7692 24.5976 29.736 24.573L28.0308 22.8696C27.9589 22.795 27.8728 22.7356 27.7777 22.6947C27.6825 22.6538 27.5801 22.6323 27.4766 22.6314C27.373 22.6306 27.2703 22.6502 27.1744 22.6894C27.0786 22.7287 26.9915 22.7866 26.9182 22.8598C26.845 22.9331 26.7871 23.0202 26.7479 23.116C26.7087 23.2119 26.6889 23.3147 26.6899 23.4182C26.6907 23.5217 26.7122 23.6241 26.7531 23.7193C26.794 23.8144 26.8535 23.9005 26.9279 23.9724L28.722 25.7665C28.7875 25.8304 28.853 25.8928 28.9216 25.9521L28.9903 26.0207C29.2663 26.3231 29.4151 26.7203 29.4058 27.1297C29.3965 27.539 29.2297 27.9291 28.9402 28.2186C28.6506 28.5081 28.2606 28.6749 27.8513 28.6842C27.4419 28.6935 27.0447 28.5447 26.7423 28.2687L26.4771 28.0051C26.3671 27.8953 26.2268 27.8209 26.0743 27.7915C25.9217 27.762 25.7638 27.7788 25.6208 27.8396C25.4779 27.9004 25.3563 28.0026 25.2718 28.133C25.1873 28.2634 25.1436 28.416 25.1464 28.5713C25.1441 28.6769 25.1632 28.7817 25.2026 28.8796C25.242 28.9774 25.3009 29.0663 25.3757 29.1407L25.7236 29.4886C25.8669 29.6236 25.9818 29.786 26.0612 29.9661C26.1406 30.1463 26.1831 30.3406 26.186 30.5375C26.1891 30.7344 26.1525 30.9299 26.0785 31.1123C26.0045 31.2949 25.8946 31.4606 25.7554 31.5998C25.6161 31.739 25.4503 31.849 25.2679 31.9229C25.0854 31.9969 24.8899 32.0335 24.693 32.0306C24.4962 32.0276 24.3019 31.9851 24.1217 31.9057C23.9415 31.8263 23.7791 31.7115 23.6442 31.5681H23.641L23.6238 31.5478L23.2963 31.2202C23.2243 31.1457 23.1383 31.0863 23.0431 31.0454C22.9479 31.0045 22.8456 30.983 22.742 30.9821C22.6384 30.9812 22.5357 31.0009 22.4398 31.0402C22.344 31.0794 22.2569 31.1373 22.1837 31.2105C22.1104 31.2838 22.0525 31.3709 22.0133 31.4667C21.9741 31.5626 21.9544 31.6653 21.9552 31.7689C21.9561 31.8724 21.9777 31.9748 22.0185 32.07C22.0594 32.1651 22.1188 32.2512 22.1933 32.3231L22.5334 32.6648C22.6734 32.8031 22.7848 32.9676 22.8613 33.1489C22.9377 33.3303 22.9778 33.5249 22.9789 33.7216C22.9802 33.9184 22.9426 34.1135 22.8685 34.2958C22.7943 34.4781 22.685 34.644 22.5466 34.7841C22.4084 34.9241 22.2439 35.0355 22.0625 35.112C21.8812 35.1884 21.6865 35.2283 21.4898 35.2296C21.293 35.2308 21.0979 35.1933 20.9156 35.1191C20.7334 35.0449 20.5674 34.9356 20.4274 34.7973L18.195 32.6757L19.0125 31.8614C19.2881 31.5882 19.5069 31.263 19.6562 30.9047C19.8056 30.5465 19.8824 30.1623 19.8824 29.7741C19.8824 29.386 19.8056 29.0016 19.6562 28.6434C19.5069 28.2852 19.2881 27.9601 19.0125 27.6868C18.721 27.3968 18.3725 27.1704 17.9891 27.0219C17.6057 26.8735 17.1956 26.8061 16.7848 26.8241C16.803 26.4148 16.7352 26.0061 16.5858 25.6246C16.4364 25.2431 16.2087 24.8971 15.9174 24.609C15.6258 24.3192 15.2773 24.0931 14.8939 23.9449C14.5105 23.7967 14.1005 23.7296 13.6897 23.7478C13.7077 23.3387 13.6397 22.9305 13.4903 22.5492C13.341 22.168 13.1134 21.8222 12.8224 21.5342C12.4518 21.166 11.991 20.9016 11.4862 20.7675C10.9814 20.6334 10.4502 20.6341 9.94579 20.7698C9.85875 20.1284 9.56202 19.5338 9.10176 19.0787C8.58856 18.57 7.90832 18.2648 7.18711 18.2193C6.46598 18.174 5.75281 18.3918 5.17997 18.8322C4.8117 17.2506 4.85467 15.6009 5.30471 14.0405C5.75474 12.4802 6.59684 11.061 7.75082 9.91835V9.91684Z" fill="white"/>
</svg>
